<?xml version="1.0" encoding="utf-8" standalone="no"?>
<!DOCTYPE svg PUBLIC "-//W3C//DTD SVG 1.1//EN"
  "http://www.w3.org/Graphics/SVG/1.1/DTD/svg11.dtd">
<svg xmlns:xlink="http://www.w3.org/1999/xlink" width="363.777188pt" height="177.103438pt" viewBox="0 0 363.777188 177.103438" xmlns="http://www.w3.org/2000/svg" version="1.1">
 <metadata>
  <rdf:RDF xmlns:dc="http://purl.org/dc/elements/1.1/" xmlns:cc="http://creativecommons.org/ns#" xmlns:rdf="http://www.w3.org/1999/02/22-rdf-syntax-ns#">
   <cc:Work>
    <dc:type rdf:resource="http://purl.org/dc/dcmitype/StillImage"/>
    <dc:date>2026-05-27T15:20:35.406619</dc:date>
    <dc:format>image/svg+xml</dc:format>
    <dc:creator>
     <cc:Agent>
      <dc:title>Matplotlib v3.10.8, https://matplotlib.org/</dc:title>
     </cc:Agent>
    </dc:creator>
   </cc:Work>
  </rdf:RDF>
 </metadata>
 <defs>
  <style type="text/css">*{stroke-linejoin: round; stroke-linecap: butt}</style>
 </defs>
 <g id="figure_1">
  <g id="patch_1">
   <path d="M -0 177.103438 
L 363.777188 177.103438 
L 363.777188 0 
L -0 0 
z
" style="fill: #ffffff"/>
  </g>
  <g id="axes_1">
   <g id="patch_2">
    <path d="M 83.350962 148.095594 
L 280.426225 148.095594 
L 280.426225 20.038594 
L 83.350962 20.038594 
z
" style="fill: #ffffff"/>
   </g>
   <g id="patch_3">
    <path d="M 98.909536 148.095594 
L 161.143829 148.095594 
L 161.143829 146.144249 
L 98.909536 146.144249 
z
" clip-path="url(#p9e27aaff46)" style="fill: #c91414; stroke: #1a1a1a; stroke-width: 0.8; stroke-linejoin: miter"/>
   </g>
   <g id="patch_4">
    <path d="M 202.633358 148.095594 
L 264.867652 148.095594 
L 264.867652 54.918881 
L 202.633358 54.918881 
z
" clip-path="url(#p9e27aaff46)" style="fill: #2c7fb8; stroke: #1a1a1a; stroke-width: 0.8; stroke-linejoin: miter"/>
   </g>
   <g id="matplotlib.axis_1">
    <g id="xtick_1">
     <g id="line2d_1">
      <defs>
       <path id="m621aa1e3f5" d="M 0 0 
L 0 3.5 
" style="stroke: #1a1a1a; stroke-width: 0.8"/>
      </defs>
      <g>
       <use xlink:href="#m621aa1e3f5" x="130.026682" y="148.095594" style="fill: #1a1a1a; stroke: #1a1a1a; stroke-width: 0.8"/>
      </g>
     </g>
     <g id="text_1">
      <!-- v1.0.0 Hub default -->
      <g style="fill: #1a1a1a" transform="translate(96.897542 160.4145) scale(0.07 -0.07)">
       <defs>
        <path id="DejaVuSerif-76" d="M 1581 0 
L 359 2988 
L -19 2988 
L -19 3322 
L 1509 3322 
L 1509 2988 
L 978 2988 
L 1913 703 
L 2847 2988 
L 2350 2988 
L 2350 3322 
L 3597 3322 
L 3597 2988 
L 3225 2988 
L 2003 0 
L 1581 0 
z
" transform="scale(0.015625)"/>
        <path id="DejaVuSerif-31" d="M 909 0 
L 909 331 
L 1722 331 
L 1722 4213 
L 781 3603 
L 781 4013 
L 1919 4750 
L 2350 4750 
L 2350 331 
L 3163 331 
L 3163 0 
L 909 0 
z
" transform="scale(0.015625)"/>
        <path id="DejaVuSerif-2e" d="M 603 325 
Q 603 500 722 622 
Q 841 744 1019 744 
Q 1191 744 1312 622 
Q 1434 500 1434 325 
Q 1434 153 1312 31 
Q 1191 -91 1019 -91 
Q 841 -91 722 29 
Q 603 150 603 325 
z
" transform="scale(0.015625)"/>
        <path id="DejaVuSerif-30" d="M 2034 219 
Q 2513 219 2750 744 
Q 2988 1269 2988 2328 
Q 2988 3391 2750 3916 
Q 2513 4441 2034 4441 
Q 1556 4441 1318 3916 
Q 1081 3391 1081 2328 
Q 1081 1269 1318 744 
Q 1556 219 2034 219 
z
M 2034 -91 
Q 1275 -91 848 546 
Q 422 1184 422 2328 
Q 422 3475 848 4112 
Q 1275 4750 2034 4750 
Q 2797 4750 3222 4112 
Q 3647 3475 3647 2328 
Q 3647 1184 3222 546 
Q 2797 -91 2034 -91 
z
" transform="scale(0.015625)"/>
        <path id="DejaVuSerif-20" transform="scale(0.015625)"/>
        <path id="DejaVuSerif-48" d="M 353 0 
L 353 331 
L 947 331 
L 947 4331 
L 353 4331 
L 353 4666 
L 2175 4666 
L 2175 4331 
L 1581 4331 
L 1581 2719 
L 4000 2719 
L 4000 4331 
L 3406 4331 
L 3406 4666 
L 5228 4666 
L 5228 4331 
L 4634 4331 
L 4634 331 
L 5228 331 
L 5228 0 
L 3406 0 
L 3406 331 
L 4000 331 
L 4000 2338 
L 1581 2338 
L 1581 331 
L 2175 331 
L 2175 0 
L 353 0 
z
" transform="scale(0.015625)"/>
        <path id="DejaVuSerif-75" d="M 2266 3322 
L 3341 3322 
L 3341 331 
L 3884 331 
L 3884 0 
L 2766 0 
L 2766 588 
Q 2606 256 2353 82 
Q 2100 -91 1766 -91 
Q 1213 -91 952 223 
Q 691 538 691 1209 
L 691 2988 
L 172 2988 
L 172 3322 
L 1269 3322 
L 1269 1388 
Q 1269 781 1417 556 
Q 1566 331 1947 331 
Q 2347 331 2556 625 
Q 2766 919 2766 1478 
L 2766 2988 
L 2266 2988 
L 2266 3322 
z
" transform="scale(0.015625)"/>
        <path id="DejaVuSerif-62" d="M 738 331 
L 738 4531 
L 184 4531 
L 184 4863 
L 1313 4863 
L 1313 2803 
Q 1481 3116 1742 3264 
Q 2003 3413 2388 3413 
Q 3000 3413 3387 2928 
Q 3775 2444 3775 1663 
Q 3775 881 3387 395 
Q 3000 -91 2388 -91 
Q 2003 -91 1742 57 
Q 1481 206 1313 519 
L 1313 0 
L 184 0 
L 184 331 
L 738 331 
z
M 1313 1497 
Q 1313 897 1542 583 
Q 1772 269 2209 269 
Q 2650 269 2876 622 
Q 3103 975 3103 1663 
Q 3103 2353 2876 2703 
Q 2650 3053 2209 3053 
Q 1772 3053 1542 2737 
Q 1313 2422 1313 1825 
L 1313 1497 
z
" transform="scale(0.015625)"/>
        <path id="DejaVuSerif-64" d="M 3359 331 
L 3909 331 
L 3909 0 
L 2784 0 
L 2784 519 
Q 2616 206 2355 57 
Q 2094 -91 1709 -91 
Q 1097 -91 708 395 
Q 319 881 319 1663 
Q 319 2444 706 2928 
Q 1094 3413 1709 3413 
Q 2094 3413 2355 3264 
Q 2616 3116 2784 2803 
L 2784 4531 
L 2241 4531 
L 2241 4863 
L 3359 4863 
L 3359 331 
z
M 2784 1497 
L 2784 1825 
Q 2784 2422 2554 2737 
Q 2325 3053 1888 3053 
Q 1444 3053 1217 2703 
Q 991 2353 991 1663 
Q 991 975 1217 622 
Q 1444 269 1888 269 
Q 2325 269 2554 583 
Q 2784 897 2784 1497 
z
" transform="scale(0.015625)"/>
        <path id="DejaVuSerif-65" d="M 3469 1600 
L 991 1600 
L 991 1575 
Q 991 903 1244 561 
Q 1497 219 1991 219 
Q 2369 219 2611 417 
Q 2853 616 2950 1006 
L 3413 1006 
Q 3275 459 2904 184 
Q 2534 -91 1931 -91 
Q 1203 -91 761 389 
Q 319 869 319 1663 
Q 319 2450 753 2931 
Q 1188 3413 1894 3413 
Q 2647 3413 3050 2948 
Q 3453 2484 3469 1600 
z
M 2791 1931 
Q 2772 2513 2545 2808 
Q 2319 3103 1894 3103 
Q 1497 3103 1269 2806 
Q 1041 2509 991 1931 
L 2791 1931 
z
" transform="scale(0.015625)"/>
        <path id="DejaVuSerif-66" d="M 2753 4078 
L 2450 4078 
Q 2447 4313 2317 4434 
Q 2188 4556 1941 4556 
Q 1619 4556 1487 4379 
Q 1356 4203 1356 3750 
L 1356 3322 
L 2284 3322 
L 2284 2988 
L 1356 2988 
L 1356 331 
L 2094 331 
L 2094 0 
L 231 0 
L 231 331 
L 781 331 
L 781 2988 
L 231 2988 
L 231 3322 
L 781 3322 
L 781 3738 
Q 781 4294 1070 4578 
Q 1359 4863 1919 4863 
Q 2128 4863 2337 4825 
Q 2547 4788 2753 4709 
L 2753 4078 
z
" transform="scale(0.015625)"/>
        <path id="DejaVuSerif-61" d="M 2547 1044 
L 2547 1747 
L 1806 1747 
Q 1378 1747 1168 1562 
Q 959 1378 959 997 
Q 959 650 1171 447 
Q 1384 244 1747 244 
Q 2106 244 2326 466 
Q 2547 688 2547 1044 
z
M 3122 2075 
L 3122 331 
L 3634 331 
L 3634 0 
L 2547 0 
L 2547 359 
Q 2356 128 2106 18 
Q 1856 -91 1522 -91 
Q 969 -91 644 203 
Q 319 497 319 997 
Q 319 1513 691 1797 
Q 1063 2081 1741 2081 
L 2547 2081 
L 2547 2309 
Q 2547 2688 2317 2895 
Q 2088 3103 1672 3103 
Q 1328 3103 1125 2947 
Q 922 2791 872 2484 
L 575 2484 
L 575 3156 
Q 875 3284 1158 3348 
Q 1441 3413 1709 3413 
Q 2400 3413 2761 3070 
Q 3122 2728 3122 2075 
z
" transform="scale(0.015625)"/>
        <path id="DejaVuSerif-6c" d="M 1313 331 
L 1856 331 
L 1856 0 
L 184 0 
L 184 331 
L 738 331 
L 738 4531 
L 184 4531 
L 184 4863 
L 1313 4863 
L 1313 331 
z
" transform="scale(0.015625)"/>
        <path id="DejaVuSerif-74" d="M 691 2988 
L 184 2988 
L 184 3322 
L 691 3322 
L 691 4353 
L 1269 4353 
L 1269 3322 
L 2350 3322 
L 2350 2988 
L 1269 2988 
L 1269 878 
Q 1269 456 1350 337 
Q 1431 219 1650 219 
Q 1875 219 1978 351 
Q 2081 484 2088 781 
L 2522 781 
Q 2497 328 2275 118 
Q 2053 -91 1600 -91 
Q 1103 -91 897 129 
Q 691 350 691 878 
L 691 2988 
z
" transform="scale(0.015625)"/>
       </defs>
       <use xlink:href="#DejaVuSerif-76"/>
       <use xlink:href="#DejaVuSerif-31" transform="translate(56.494141 0)"/>
       <use xlink:href="#DejaVuSerif-2e" transform="translate(120.117188 0)"/>
       <use xlink:href="#DejaVuSerif-30" transform="translate(151.904297 0)"/>
       <use xlink:href="#DejaVuSerif-2e" transform="translate(215.527344 0)"/>
       <use xlink:href="#DejaVuSerif-30" transform="translate(247.314453 0)"/>
       <use xlink:href="#DejaVuSerif-20" transform="translate(310.9375 0)"/>
       <use xlink:href="#DejaVuSerif-48" transform="translate(342.724609 0)"/>
       <use xlink:href="#DejaVuSerif-75" transform="translate(429.931641 0)"/>
       <use xlink:href="#DejaVuSerif-62" transform="translate(494.335938 0)"/>
       <use xlink:href="#DejaVuSerif-20" transform="translate(558.349609 0)"/>
       <use xlink:href="#DejaVuSerif-64" transform="translate(590.136719 0)"/>
       <use xlink:href="#DejaVuSerif-65" transform="translate(654.150391 0)"/>
       <use xlink:href="#DejaVuSerif-66" transform="translate(713.330078 0)"/>
       <use xlink:href="#DejaVuSerif-61" transform="translate(750.341797 0)"/>
       <use xlink:href="#DejaVuSerif-75" transform="translate(809.960938 0)"/>
       <use xlink:href="#DejaVuSerif-6c" transform="translate(874.365234 0)"/>
       <use xlink:href="#DejaVuSerif-74" transform="translate(906.347656 0)"/>
      </g>
      <!-- n_action_steps=100 -->
      <g style="fill: #1a1a1a" transform="translate(94.414182 168.252969) scale(0.07 -0.07)">
       <defs>
        <path id="DejaVuSerif-6e" d="M 263 0 
L 263 331 
L 781 331 
L 781 2988 
L 231 2988 
L 231 3322 
L 1356 3322 
L 1356 2731 
Q 1516 3069 1770 3241 
Q 2025 3413 2363 3413 
Q 2913 3413 3172 3097 
Q 3431 2781 3431 2113 
L 3431 331 
L 3944 331 
L 3944 0 
L 2356 0 
L 2356 331 
L 2853 331 
L 2853 1931 
Q 2853 2541 2703 2767 
Q 2553 2994 2175 2994 
Q 1775 2994 1565 2701 
Q 1356 2409 1356 1850 
L 1356 331 
L 1856 331 
L 1856 0 
L 263 0 
z
" transform="scale(0.015625)"/>
        <path id="DejaVuSerif-5f" d="M 3200 -1259 
L 3200 -1509 
L 0 -1509 
L 0 -1259 
L 3200 -1259 
z
" transform="scale(0.015625)"/>
        <path id="DejaVuSerif-63" d="M 3291 997 
Q 3169 466 2822 187 
Q 2475 -91 1925 -91 
Q 1200 -91 759 389 
Q 319 869 319 1663 
Q 319 2459 759 2936 
Q 1200 3413 1925 3413 
Q 2241 3413 2553 3339 
Q 2866 3266 3181 3116 
L 3181 2266 
L 2847 2266 
Q 2781 2703 2561 2903 
Q 2341 3103 1931 3103 
Q 1466 3103 1228 2742 
Q 991 2381 991 1663 
Q 991 944 1227 581 
Q 1463 219 1931 219 
Q 2303 219 2525 412 
Q 2747 606 2828 997 
L 3291 997 
z
" transform="scale(0.015625)"/>
        <path id="DejaVuSerif-69" d="M 622 4353 
Q 622 4497 726 4603 
Q 831 4709 978 4709 
Q 1122 4709 1226 4603 
Q 1331 4497 1331 4353 
Q 1331 4206 1228 4103 
Q 1125 4000 978 4000 
Q 831 4000 726 4103 
Q 622 4206 622 4353 
z
M 1356 331 
L 1900 331 
L 1900 0 
L 231 0 
L 231 331 
L 781 331 
L 781 2988 
L 231 2988 
L 231 3322 
L 1356 3322 
L 1356 331 
z
" transform="scale(0.015625)"/>
        <path id="DejaVuSerif-6f" d="M 1925 219 
Q 2388 219 2623 584 
Q 2859 950 2859 1663 
Q 2859 2375 2623 2739 
Q 2388 3103 1925 3103 
Q 1463 3103 1227 2739 
Q 991 2375 991 1663 
Q 991 950 1228 584 
Q 1466 219 1925 219 
z
M 1925 -91 
Q 1200 -91 759 389 
Q 319 869 319 1663 
Q 319 2456 758 2934 
Q 1197 3413 1925 3413 
Q 2653 3413 3092 2934 
Q 3531 2456 3531 1663 
Q 3531 869 3092 389 
Q 2653 -91 1925 -91 
z
" transform="scale(0.015625)"/>
        <path id="DejaVuSerif-73" d="M 359 184 
L 359 959 
L 691 959 
Q 703 588 923 403 
Q 1144 219 1575 219 
Q 1963 219 2166 364 
Q 2369 509 2369 788 
Q 2369 1006 2220 1140 
Q 2072 1275 1594 1428 
L 1178 1569 
Q 750 1706 558 1912 
Q 366 2119 366 2438 
Q 366 2894 700 3153 
Q 1034 3413 1625 3413 
Q 1888 3413 2178 3344 
Q 2469 3275 2778 3144 
L 2778 2419 
L 2447 2419 
Q 2434 2741 2221 2922 
Q 2009 3103 1644 3103 
Q 1281 3103 1095 2975 
Q 909 2847 909 2591 
Q 909 2381 1050 2254 
Q 1191 2128 1613 1997 
L 2069 1856 
Q 2541 1709 2748 1489 
Q 2956 1269 2956 922 
Q 2956 450 2595 179 
Q 2234 -91 1600 -91 
Q 1278 -91 972 -22 
Q 666 47 359 184 
z
" transform="scale(0.015625)"/>
        <path id="DejaVuSerif-70" d="M 1313 1825 
L 1313 1497 
Q 1313 897 1542 583 
Q 1772 269 2209 269 
Q 2650 269 2876 622 
Q 3103 975 3103 1663 
Q 3103 2353 2876 2703 
Q 2650 3053 2209 3053 
Q 1772 3053 1542 2737 
Q 1313 2422 1313 1825 
z
M 738 2988 
L 184 2988 
L 184 3322 
L 1313 3322 
L 1313 2803 
Q 1481 3116 1742 3264 
Q 2003 3413 2388 3413 
Q 3000 3413 3387 2928 
Q 3775 2444 3775 1663 
Q 3775 881 3387 395 
Q 3000 -91 2388 -91 
Q 2003 -91 1742 57 
Q 1481 206 1313 519 
L 1313 -997 
L 1856 -997 
L 1856 -1331 
L 184 -1331 
L 184 -997 
L 738 -997 
L 738 2988 
z
" transform="scale(0.015625)"/>
        <path id="DejaVuSerif-3d" d="M 678 2894 
L 4684 2894 
L 4684 2394 
L 678 2394 
L 678 2894 
z
M 678 1619 
L 4684 1619 
L 4684 1119 
L 678 1119 
L 678 1619 
z
" transform="scale(0.015625)"/>
       </defs>
       <use xlink:href="#DejaVuSerif-6e"/>
       <use xlink:href="#DejaVuSerif-5f" transform="translate(64.404297 0)"/>
       <use xlink:href="#DejaVuSerif-61" transform="translate(114.404297 0)"/>
       <use xlink:href="#DejaVuSerif-63" transform="translate(174.023438 0)"/>
       <use xlink:href="#DejaVuSerif-74" transform="translate(230.029297 0)"/>
       <use xlink:href="#DejaVuSerif-69" transform="translate(270.214844 0)"/>
       <use xlink:href="#DejaVuSerif-6f" transform="translate(302.197266 0)"/>
       <use xlink:href="#DejaVuSerif-6e" transform="translate(362.402344 0)"/>
       <use xlink:href="#DejaVuSerif-5f" transform="translate(426.806641 0)"/>
       <use xlink:href="#DejaVuSerif-73" transform="translate(476.806641 0)"/>
       <use xlink:href="#DejaVuSerif-74" transform="translate(528.125 0)"/>
       <use xlink:href="#DejaVuSerif-65" transform="translate(568.310547 0)"/>
       <use xlink:href="#DejaVuSerif-70" transform="translate(627.490234 0)"/>
       <use xlink:href="#DejaVuSerif-73" transform="translate(691.503906 0)"/>
       <use xlink:href="#DejaVuSerif-3d" transform="translate(742.822266 0)"/>
       <use xlink:href="#DejaVuSerif-31" transform="translate(826.611328 0)"/>
       <use xlink:href="#DejaVuSerif-30" transform="translate(890.234375 0)"/>
       <use xlink:href="#DejaVuSerif-30" transform="translate(953.857422 0)"/>
      </g>
     </g>
    </g>
    <g id="xtick_2">
     <g id="line2d_2">
      <g>
       <use xlink:href="#m621aa1e3f5" x="233.750505" y="148.095594" style="fill: #1a1a1a; stroke: #1a1a1a; stroke-width: 0.8"/>
      </g>
     </g>
     <g id="text_2">
      <!-- v1.0.2 paper -->
      <g style="fill: #1a1a1a" transform="translate(211.442927 160.4145) scale(0.07 -0.07)">
       <defs>
        <path id="DejaVuSerif-32" d="M 819 3553 
L 469 3553 
L 469 4384 
Q 803 4563 1142 4656 
Q 1481 4750 1806 4750 
Q 2534 4750 2956 4397 
Q 3378 4044 3378 3438 
Q 3378 2753 2422 1800 
Q 2347 1728 2309 1691 
L 1131 513 
L 3078 513 
L 3078 1088 
L 3444 1088 
L 3444 0 
L 434 0 
L 434 341 
L 1850 1753 
Q 2319 2222 2519 2614 
Q 2719 3006 2719 3438 
Q 2719 3909 2473 4175 
Q 2228 4441 1797 4441 
Q 1350 4441 1106 4219 
Q 863 3997 819 3553 
z
" transform="scale(0.015625)"/>
        <path id="DejaVuSerif-72" d="M 3059 3328 
L 3059 2497 
L 2728 2497 
Q 2713 2744 2591 2866 
Q 2469 2988 2234 2988 
Q 1809 2988 1582 2694 
Q 1356 2400 1356 1850 
L 1356 331 
L 2022 331 
L 2022 0 
L 263 0 
L 263 331 
L 781 331 
L 781 2994 
L 231 2994 
L 231 3322 
L 1356 3322 
L 1356 2731 
Q 1525 3078 1790 3245 
Q 2056 3413 2438 3413 
Q 2578 3413 2733 3391 
Q 2888 3369 3059 3328 
z
" transform="scale(0.015625)"/>
       </defs>
       <use xlink:href="#DejaVuSerif-76"/>
       <use xlink:href="#DejaVuSerif-31" transform="translate(56.494141 0)"/>
       <use xlink:href="#DejaVuSerif-2e" transform="translate(120.117188 0)"/>
       <use xlink:href="#DejaVuSerif-30" transform="translate(151.904297 0)"/>
       <use xlink:href="#DejaVuSerif-2e" transform="translate(215.527344 0)"/>
       <use xlink:href="#DejaVuSerif-32" transform="translate(247.314453 0)"/>
       <use xlink:href="#DejaVuSerif-20" transform="translate(310.9375 0)"/>
       <use xlink:href="#DejaVuSerif-70" transform="translate(342.724609 0)"/>
       <use xlink:href="#DejaVuSerif-61" transform="translate(406.738281 0)"/>
       <use xlink:href="#DejaVuSerif-70" transform="translate(466.357422 0)"/>
       <use xlink:href="#DejaVuSerif-65" transform="translate(530.371094 0)"/>
       <use xlink:href="#DejaVuSerif-72" transform="translate(589.550781 0)"/>
      </g>
      <!-- coeff=0.01, n_action_steps=1 -->
      <g style="fill: #1a1a1a" transform="translate(180.911443 168.252969) scale(0.07 -0.07)">
       <defs>
        <path id="DejaVuSerif-2c" d="M 231 -622 
Q 525 -406 662 -114 
Q 800 178 800 594 
L 800 709 
L 1416 709 
Q 1391 175 1164 -208 
Q 938 -591 481 -872 
L 231 -622 
z
" transform="scale(0.015625)"/>
       </defs>
       <use xlink:href="#DejaVuSerif-63"/>
       <use xlink:href="#DejaVuSerif-6f" transform="translate(56.005859 0)"/>
       <use xlink:href="#DejaVuSerif-65" transform="translate(116.210938 0)"/>
       <use xlink:href="#DejaVuSerif-66" transform="translate(175.390625 0)"/>
       <use xlink:href="#DejaVuSerif-66" transform="translate(212.402344 0)"/>
       <use xlink:href="#DejaVuSerif-3d" transform="translate(249.414062 0)"/>
       <use xlink:href="#DejaVuSerif-30" transform="translate(333.203125 0)"/>
       <use xlink:href="#DejaVuSerif-2e" transform="translate(396.826172 0)"/>
       <use xlink:href="#DejaVuSerif-30" transform="translate(428.613281 0)"/>
       <use xlink:href="#DejaVuSerif-31" transform="translate(492.236328 0)"/>
       <use xlink:href="#DejaVuSerif-2c" transform="translate(555.859375 0)"/>
       <use xlink:href="#DejaVuSerif-20" transform="translate(587.646484 0)"/>
       <use xlink:href="#DejaVuSerif-6e" transform="translate(619.433594 0)"/>
       <use xlink:href="#DejaVuSerif-5f" transform="translate(683.837891 0)"/>
       <use xlink:href="#DejaVuSerif-61" transform="translate(733.837891 0)"/>
       <use xlink:href="#DejaVuSerif-63" transform="translate(793.457031 0)"/>
       <use xlink:href="#DejaVuSerif-74" transform="translate(849.462891 0)"/>
       <use xlink:href="#DejaVuSerif-69" transform="translate(889.648438 0)"/>
       <use xlink:href="#DejaVuSerif-6f" transform="translate(921.630859 0)"/>
       <use xlink:href="#DejaVuSerif-6e" transform="translate(981.835938 0)"/>
       <use xlink:href="#DejaVuSerif-5f" transform="translate(1046.240234 0)"/>
       <use xlink:href="#DejaVuSerif-73" transform="translate(1096.240234 0)"/>
       <use xlink:href="#DejaVuSerif-74" transform="translate(1147.558594 0)"/>
       <use xlink:href="#DejaVuSerif-65" transform="translate(1187.744141 0)"/>
       <use xlink:href="#DejaVuSerif-70" transform="translate(1246.923828 0)"/>
       <use xlink:href="#DejaVuSerif-73" transform="translate(1310.9375 0)"/>
       <use xlink:href="#DejaVuSerif-3d" transform="translate(1362.255859 0)"/>
       <use xlink:href="#DejaVuSerif-31" transform="translate(1446.044922 0)"/>
      </g>
     </g>
    </g>
   </g>
   <g id="matplotlib.axis_2">
    <g id="ytick_1">
     <g id="line2d_3">
      <defs>
       <path id="mad32309cbe" d="M 0 0 
L -3.5 0 
" style="stroke: #1a1a1a; stroke-width: 0.8"/>
      </defs>
      <g>
       <use xlink:href="#mad32309cbe" x="83.350962" y="148.095594" style="fill: #1a1a1a; stroke: #1a1a1a; stroke-width: 0.8"/>
      </g>
     </g>
     <g id="text_3">
      <!-- 0.0 -->
      <g style="fill: #1a1a1a" transform="translate(63.628462 151.134969) scale(0.08 -0.08)">
       <use xlink:href="#DejaVuSerif-30"/>
       <use xlink:href="#DejaVuSerif-2e" transform="translate(63.623047 0)"/>
       <use xlink:href="#DejaVuSerif-30" transform="translate(95.410156 0)"/>
      </g>
     </g>
    </g>
    <g id="ytick_2">
     <g id="line2d_4">
      <g>
       <use xlink:href="#mad32309cbe" x="83.350962" y="123.703784" style="fill: #1a1a1a; stroke: #1a1a1a; stroke-width: 0.8"/>
      </g>
     </g>
     <g id="text_4">
      <!-- 0.2 -->
      <g style="fill: #1a1a1a" transform="translate(63.628462 126.743159) scale(0.08 -0.08)">
       <use xlink:href="#DejaVuSerif-30"/>
       <use xlink:href="#DejaVuSerif-2e" transform="translate(63.623047 0)"/>
       <use xlink:href="#DejaVuSerif-32" transform="translate(95.410156 0)"/>
      </g>
     </g>
    </g>
    <g id="ytick_3">
     <g id="line2d_5">
      <g>
       <use xlink:href="#mad32309cbe" x="83.350962" y="99.311975" style="fill: #1a1a1a; stroke: #1a1a1a; stroke-width: 0.8"/>
      </g>
     </g>
     <g id="text_5">
      <!-- 0.4 -->
      <g style="fill: #1a1a1a" transform="translate(63.628462 102.35135) scale(0.08 -0.08)">
       <defs>
        <path id="DejaVuSerif-34" d="M 2234 1581 
L 2234 4063 
L 641 1581 
L 2234 1581 
z
M 3609 0 
L 1484 0 
L 1484 331 
L 2234 331 
L 2234 1247 
L 197 1247 
L 197 1588 
L 2241 4750 
L 2859 4750 
L 2859 1581 
L 3750 1581 
L 3750 1247 
L 2859 1247 
L 2859 331 
L 3609 331 
L 3609 0 
z
" transform="scale(0.015625)"/>
       </defs>
       <use xlink:href="#DejaVuSerif-30"/>
       <use xlink:href="#DejaVuSerif-2e" transform="translate(63.623047 0)"/>
       <use xlink:href="#DejaVuSerif-34" transform="translate(95.410156 0)"/>
      </g>
     </g>
    </g>
    <g id="ytick_4">
     <g id="line2d_6">
      <g>
       <use xlink:href="#mad32309cbe" x="83.350962" y="74.920165" style="fill: #1a1a1a; stroke: #1a1a1a; stroke-width: 0.8"/>
      </g>
     </g>
     <g id="text_6">
      <!-- 0.6 -->
      <g style="fill: #1a1a1a" transform="translate(63.628462 77.95954) scale(0.08 -0.08)">
       <defs>
        <path id="DejaVuSerif-36" d="M 2094 219 
Q 2534 219 2771 542 
Q 3009 866 3009 1472 
Q 3009 2078 2771 2401 
Q 2534 2725 2094 2725 
Q 1647 2725 1412 2412 
Q 1178 2100 1178 1509 
Q 1178 888 1415 553 
Q 1653 219 2094 219 
z
M 1075 2569 
Q 1288 2803 1556 2918 
Q 1825 3034 2163 3034 
Q 2859 3034 3264 2615 
Q 3669 2197 3669 1472 
Q 3669 763 3233 336 
Q 2797 -91 2069 -91 
Q 1278 -91 853 498 
Q 428 1088 428 2181 
Q 428 3406 931 4078 
Q 1434 4750 2350 4750 
Q 2597 4750 2869 4703 
Q 3141 4656 3425 4563 
L 3425 3794 
L 3072 3794 
Q 3034 4109 2831 4275 
Q 2628 4441 2284 4441 
Q 1678 4441 1381 3981 
Q 1084 3522 1075 2569 
z
" transform="scale(0.015625)"/>
       </defs>
       <use xlink:href="#DejaVuSerif-30"/>
       <use xlink:href="#DejaVuSerif-2e" transform="translate(63.623047 0)"/>
       <use xlink:href="#DejaVuSerif-36" transform="translate(95.410156 0)"/>
      </g>
     </g>
    </g>
    <g id="ytick_5">
     <g id="line2d_7">
      <g>
       <use xlink:href="#mad32309cbe" x="83.350962" y="50.528356" style="fill: #1a1a1a; stroke: #1a1a1a; stroke-width: 0.8"/>
      </g>
     </g>
     <g id="text_7">
      <!-- 0.8 -->
      <g style="fill: #1a1a1a" transform="translate(63.628462 53.567731) scale(0.08 -0.08)">
       <defs>
        <path id="DejaVuSerif-38" d="M 2981 1275 
Q 2981 1775 2732 2051 
Q 2484 2328 2034 2328 
Q 1584 2328 1336 2051 
Q 1088 1775 1088 1275 
Q 1088 772 1336 495 
Q 1584 219 2034 219 
Q 2484 219 2732 495 
Q 2981 772 2981 1275 
z
M 2853 3541 
Q 2853 3966 2637 4203 
Q 2422 4441 2034 4441 
Q 1650 4441 1433 4203 
Q 1216 3966 1216 3541 
Q 1216 3113 1433 2875 
Q 1650 2638 2034 2638 
Q 2422 2638 2637 2875 
Q 2853 3113 2853 3541 
z
M 2516 2484 
Q 3047 2413 3344 2092 
Q 3641 1772 3641 1275 
Q 3641 619 3225 264 
Q 2809 -91 2034 -91 
Q 1263 -91 845 264 
Q 428 619 428 1275 
Q 428 1772 725 2092 
Q 1022 2413 1556 2484 
Q 1084 2569 832 2842 
Q 581 3116 581 3541 
Q 581 4103 968 4426 
Q 1356 4750 2034 4750 
Q 2713 4750 3100 4426 
Q 3488 4103 3488 3541 
Q 3488 3116 3236 2842 
Q 2984 2569 2516 2484 
z
" transform="scale(0.015625)"/>
       </defs>
       <use xlink:href="#DejaVuSerif-30"/>
       <use xlink:href="#DejaVuSerif-2e" transform="translate(63.623047 0)"/>
       <use xlink:href="#DejaVuSerif-38" transform="translate(95.410156 0)"/>
      </g>
     </g>
    </g>
    <g id="ytick_6">
     <g id="line2d_8">
      <g>
       <use xlink:href="#mad32309cbe" x="83.350962" y="26.136546" style="fill: #1a1a1a; stroke: #1a1a1a; stroke-width: 0.8"/>
      </g>
     </g>
     <g id="text_8">
      <!-- 1.0 -->
      <g style="fill: #1a1a1a" transform="translate(63.628462 29.175921) scale(0.08 -0.08)">
       <use xlink:href="#DejaVuSerif-31"/>
       <use xlink:href="#DejaVuSerif-2e" transform="translate(63.623047 0)"/>
       <use xlink:href="#DejaVuSerif-30" transform="translate(95.410156 0)"/>
      </g>
     </g>
    </g>
    <g id="text_9">
     <!-- success rate -->
     <g style="fill: #1a1a1a" transform="translate(57.964712 109.191469) rotate(-90) scale(0.08 -0.08)">
      <use xlink:href="#DejaVuSerif-73"/>
      <use xlink:href="#DejaVuSerif-75" transform="translate(51.318359 0)"/>
      <use xlink:href="#DejaVuSerif-63" transform="translate(115.722656 0)"/>
      <use xlink:href="#DejaVuSerif-63" transform="translate(171.728516 0)"/>
      <use xlink:href="#DejaVuSerif-65" transform="translate(227.734375 0)"/>
      <use xlink:href="#DejaVuSerif-73" transform="translate(286.914062 0)"/>
      <use xlink:href="#DejaVuSerif-73" transform="translate(338.232422 0)"/>
      <use xlink:href="#DejaVuSerif-20" transform="translate(389.550781 0)"/>
      <use xlink:href="#DejaVuSerif-72" transform="translate(421.337891 0)"/>
      <use xlink:href="#DejaVuSerif-61" transform="translate(469.140625 0)"/>
      <use xlink:href="#DejaVuSerif-74" transform="translate(528.759766 0)"/>
      <use xlink:href="#DejaVuSerif-65" transform="translate(568.945312 0)"/>
     </g>
    </g>
   </g>
   <g id="LineCollection_1">
    <path d="M 130.026682 147.363839 
L 130.026682 143.217232 
" clip-path="url(#p9e27aaff46)" style="fill: none; stroke: #1a1a1a; stroke-width: 1.2"/>
    <path d="M 233.750505 61.748588 
L 233.750505 49.064847 
" clip-path="url(#p9e27aaff46)" style="fill: none; stroke: #1a1a1a; stroke-width: 1.2"/>
   </g>
   <g id="line2d_9">
    <defs>
     <path id="me4b083e2c4" d="M 4 0 
L -4 -0 
" style="stroke: #1a1a1a"/>
    </defs>
    <g clip-path="url(#p9e27aaff46)">
     <use xlink:href="#me4b083e2c4" x="130.026682" y="147.363839" style="fill: #1f77b4; stroke: #1a1a1a"/>
     <use xlink:href="#me4b083e2c4" x="233.750505" y="61.748588" style="fill: #1f77b4; stroke: #1a1a1a"/>
    </g>
   </g>
   <g id="line2d_10">
    <g clip-path="url(#p9e27aaff46)">
     <use xlink:href="#me4b083e2c4" x="130.026682" y="143.217232" style="fill: #1f77b4; stroke: #1a1a1a"/>
     <use xlink:href="#me4b083e2c4" x="233.750505" y="49.064847" style="fill: #1f77b4; stroke: #1a1a1a"/>
    </g>
   </g>
   <g id="line2d_11">
    <path d="M 83.350962 87.11607 
L 280.426225 87.11607 
" clip-path="url(#p9e27aaff46)" style="fill: none; stroke-dasharray: 0.8,1.32; stroke-dashoffset: 0; stroke: #888888; stroke-width: 0.8"/>
   </g>
   <g id="patch_5">
    <path d="M 83.350962 148.095594 
L 83.350962 20.038594 
" style="fill: none; stroke: #1a1a1a; stroke-width: 0.8; stroke-linejoin: miter; stroke-linecap: square"/>
   </g>
   <g id="patch_6">
    <path d="M 83.350962 148.095594 
L 280.426225 148.095594 
" style="fill: none; stroke: #1a1a1a; stroke-width: 0.8; stroke-linejoin: miter; stroke-linecap: square"/>
   </g>
   <g id="text_10">
    <!-- paper (Zhao 2023): 0.50 -->
    <g style="fill: #888888" transform="translate(98.909536 83.429076) scale(0.06 -0.06)">
     <defs>
      <path id="DejaVuSerif-28" d="M 2041 -997 
Q 1281 -656 893 83 
Q 506 822 506 1931 
Q 506 3044 893 3783 
Q 1281 4522 2041 4863 
L 2041 4556 
Q 1559 4225 1350 3623 
Q 1141 3022 1141 1931 
Q 1141 844 1350 242 
Q 1559 -359 2041 -691 
L 2041 -997 
z
" transform="scale(0.015625)"/>
      <path id="DejaVuSerif-5a" d="M 288 0 
L 288 225 
L 3194 4281 
L 781 4281 
L 781 3584 
L 397 3584 
L 397 4666 
L 4084 4666 
L 4084 4441 
L 1178 384 
L 3816 384 
L 3816 1038 
L 4197 1038 
L 4197 0 
L 288 0 
z
" transform="scale(0.015625)"/>
      <path id="DejaVuSerif-68" d="M 263 0 
L 263 331 
L 781 331 
L 781 4531 
L 231 4531 
L 231 4863 
L 1356 4863 
L 1356 2731 
Q 1516 3069 1770 3241 
Q 2025 3413 2363 3413 
Q 2913 3413 3172 3097 
Q 3431 2781 3431 2113 
L 3431 331 
L 3944 331 
L 3944 0 
L 2356 0 
L 2356 331 
L 2853 331 
L 2853 1931 
Q 2853 2541 2704 2764 
Q 2556 2988 2175 2988 
Q 1775 2988 1565 2697 
Q 1356 2406 1356 1850 
L 1356 331 
L 1856 331 
L 1856 0 
L 263 0 
z
" transform="scale(0.015625)"/>
      <path id="DejaVuSerif-33" d="M 622 4469 
Q 988 4606 1323 4678 
Q 1659 4750 1953 4750 
Q 2638 4750 3022 4454 
Q 3406 4159 3406 3634 
Q 3406 3213 3140 2930 
Q 2875 2647 2388 2547 
Q 2963 2466 3280 2130 
Q 3597 1794 3597 1259 
Q 3597 606 3158 257 
Q 2719 -91 1894 -91 
Q 1528 -91 1179 -12 
Q 831 66 488 225 
L 488 1131 
L 838 1131 
Q 869 681 1141 450 
Q 1413 219 1906 219 
Q 2384 219 2661 495 
Q 2938 772 2938 1253 
Q 2938 1803 2653 2086 
Q 2369 2369 1819 2369 
L 1522 2369 
L 1522 2688 
L 1678 2688 
Q 2225 2688 2498 2914 
Q 2772 3141 2772 3597 
Q 2772 4006 2547 4223 
Q 2322 4441 1900 4441 
Q 1478 4441 1245 4241 
Q 1013 4041 972 3647 
L 622 3647 
L 622 4469 
z
" transform="scale(0.015625)"/>
      <path id="DejaVuSerif-29" d="M 453 -997 
L 453 -691 
Q 934 -359 1145 242 
Q 1356 844 1356 1931 
Q 1356 3022 1145 3623 
Q 934 4225 453 4556 
L 453 4863 
Q 1216 4522 1603 3783 
Q 1991 3044 1991 1931 
Q 1991 822 1603 83 
Q 1216 -656 453 -997 
z
" transform="scale(0.015625)"/>
      <path id="DejaVuSerif-3a" d="M 666 325 
Q 666 500 786 622 
Q 906 744 1081 744 
Q 1256 744 1376 622 
Q 1497 500 1497 325 
Q 1497 150 1378 29 
Q 1259 -91 1081 -91 
Q 903 -91 784 29 
Q 666 150 666 325 
z
M 666 2363 
Q 666 2538 786 2658 
Q 906 2778 1081 2778 
Q 1259 2778 1378 2659 
Q 1497 2541 1497 2363 
Q 1497 2184 1378 2065 
Q 1259 1947 1081 1947 
Q 906 1947 786 2067 
Q 666 2188 666 2363 
z
" transform="scale(0.015625)"/>
      <path id="DejaVuSerif-35" d="M 3219 4666 
L 3219 4153 
L 1081 4153 
L 1081 2816 
Q 1244 2928 1461 2984 
Q 1678 3041 1947 3041 
Q 2703 3041 3140 2622 
Q 3578 2203 3578 1478 
Q 3578 738 3136 323 
Q 2694 -91 1894 -91 
Q 1572 -91 1234 -12 
Q 897 66 544 225 
L 544 1131 
L 897 1131 
Q 925 688 1179 453 
Q 1434 219 1894 219 
Q 2388 219 2653 544 
Q 2919 869 2919 1478 
Q 2919 2084 2655 2407 
Q 2391 2731 1894 2731 
Q 1613 2731 1398 2631 
Q 1184 2531 1019 2322 
L 750 2322 
L 750 4666 
L 3219 4666 
z
" transform="scale(0.015625)"/>
     </defs>
     <use xlink:href="#DejaVuSerif-70"/>
     <use xlink:href="#DejaVuSerif-61" transform="translate(64.013672 0)"/>
     <use xlink:href="#DejaVuSerif-70" transform="translate(123.632812 0)"/>
     <use xlink:href="#DejaVuSerif-65" transform="translate(187.646484 0)"/>
     <use xlink:href="#DejaVuSerif-72" transform="translate(246.826172 0)"/>
     <use xlink:href="#DejaVuSerif-20" transform="translate(294.628906 0)"/>
     <use xlink:href="#DejaVuSerif-28" transform="translate(326.416016 0)"/>
     <use xlink:href="#DejaVuSerif-5a" transform="translate(365.429688 0)"/>
     <use xlink:href="#DejaVuSerif-68" transform="translate(434.912109 0)"/>
     <use xlink:href="#DejaVuSerif-61" transform="translate(499.316406 0)"/>
     <use xlink:href="#DejaVuSerif-6f" transform="translate(558.935547 0)"/>
     <use xlink:href="#DejaVuSerif-20" transform="translate(619.140625 0)"/>
     <use xlink:href="#DejaVuSerif-32" transform="translate(650.927734 0)"/>
     <use xlink:href="#DejaVuSerif-30" transform="translate(714.550781 0)"/>
     <use xlink:href="#DejaVuSerif-32" transform="translate(778.173828 0)"/>
     <use xlink:href="#DejaVuSerif-33" transform="translate(841.796875 0)"/>
     <use xlink:href="#DejaVuSerif-29" transform="translate(905.419922 0)"/>
     <use xlink:href="#DejaVuSerif-3a" transform="translate(944.433594 0)"/>
     <use xlink:href="#DejaVuSerif-20" transform="translate(978.125 0)"/>
     <use xlink:href="#DejaVuSerif-30" transform="translate(1009.912109 0)"/>
     <use xlink:href="#DejaVuSerif-2e" transform="translate(1073.535156 0)"/>
     <use xlink:href="#DejaVuSerif-35" transform="translate(1105.322266 0)"/>
     <use xlink:href="#DejaVuSerif-30" transform="translate(1168.945312 0)"/>
    </g>
   </g>
   <g id="text_11">
    <!-- +74.8 pp -->
    <g style="fill: #2c7fb8" transform="translate(161.808594 48.820929) scale(0.08 -0.08)">
     <defs>
      <path id="DejaVuSerif-Bold-2b" d="M 3041 4013 
L 3041 2369 
L 4684 2369 
L 4684 1650 
L 3041 1650 
L 3041 6 
L 2322 6 
L 2322 1650 
L 678 1650 
L 678 2369 
L 2322 2369 
L 2322 4013 
L 3041 4013 
z
" transform="scale(0.015625)"/>
      <path id="DejaVuSerif-Bold-37" d="M 3922 3872 
L 1997 0 
L 1363 0 
L 3238 3781 
L 934 3781 
L 934 3150 
L 506 3150 
L 506 4666 
L 3922 4666 
L 3922 3872 
z
" transform="scale(0.015625)"/>
      <path id="DejaVuSerif-Bold-34" d="M 4084 0 
L 1516 0 
L 1516 378 
L 2209 378 
L 2209 1228 
L 263 1228 
L 263 1588 
L 2216 4750 
L 3391 4750 
L 3391 1631 
L 4191 1631 
L 4191 1228 
L 3391 1228 
L 3391 378 
L 4084 378 
L 4084 0 
z
M 2209 1631 
L 2209 3897 
L 819 1631 
L 2209 1631 
z
" transform="scale(0.015625)"/>
      <path id="DejaVuSerif-Bold-2e" d="M 519 506 
Q 519 750 694 925 
Q 869 1100 1113 1100 
Q 1359 1100 1534 925 
Q 1709 750 1709 506 
Q 1709 259 1534 84 
Q 1359 -91 1113 -91 
Q 869 -91 694 84 
Q 519 259 519 506 
z
" transform="scale(0.015625)"/>
      <path id="DejaVuSerif-Bold-38" d="M 2975 2484 
Q 3531 2394 3820 2075 
Q 4109 1756 4109 1241 
Q 4109 597 3623 253 
Q 3138 -91 2222 -91 
Q 1306 -91 818 253 
Q 331 597 331 1241 
Q 331 1756 622 2075 
Q 913 2394 1466 2484 
Q 975 2597 731 2861 
Q 488 3125 488 3531 
Q 488 4125 931 4437 
Q 1375 4750 2222 4750 
Q 3066 4750 3511 4437 
Q 3956 4125 3956 3531 
Q 3956 3125 3711 2861 
Q 3466 2597 2975 2484 
z
M 2747 3519 
Q 2747 4013 2628 4198 
Q 2509 4384 2222 4384 
Q 1931 4384 1814 4198 
Q 1697 4013 1697 3519 
Q 1697 3028 1814 2845 
Q 1931 2663 2222 2663 
Q 2513 2663 2630 2845 
Q 2747 3028 2747 3519 
z
M 2869 1294 
Q 2869 1866 2723 2081 
Q 2578 2297 2222 2297 
Q 1863 2297 1719 2081 
Q 1575 1866 1575 1294 
Q 1575 716 1720 495 
Q 1866 275 2222 275 
Q 2575 275 2722 495 
Q 2869 716 2869 1294 
z
" transform="scale(0.015625)"/>
      <path id="DejaVuSerif-Bold-20" transform="scale(0.015625)"/>
      <path id="DejaVuSerif-Bold-70" d="M 1728 1825 
L 1728 1497 
Q 1728 916 1876 656 
Q 2025 397 2356 397 
Q 2697 397 2836 672 
Q 2975 947 2975 1663 
Q 2975 2378 2836 2651 
Q 2697 2925 2356 2925 
Q 2025 2925 1876 2665 
Q 1728 2406 1728 1825 
z
M 622 2944 
L 147 2944 
L 147 3322 
L 1728 3322 
L 1728 2900 
Q 1869 3159 2106 3286 
Q 2344 3413 2694 3413 
Q 3403 3413 3811 2945 
Q 4219 2478 4219 1663 
Q 4219 847 3811 378 
Q 3403 -91 2694 -91 
Q 2344 -91 2106 36 
Q 1869 163 1728 422 
L 1728 -953 
L 2241 -953 
L 2241 -1331 
L 147 -1331 
L 147 -953 
L 622 -953 
L 622 2944 
z
" transform="scale(0.015625)"/>
     </defs>
     <use xlink:href="#DejaVuSerif-Bold-2b"/>
     <use xlink:href="#DejaVuSerif-Bold-37" transform="translate(83.789062 0)"/>
     <use xlink:href="#DejaVuSerif-Bold-34" transform="translate(153.369141 0)"/>
     <use xlink:href="#DejaVuSerif-Bold-2e" transform="translate(222.949219 0)"/>
     <use xlink:href="#DejaVuSerif-Bold-38" transform="translate(257.763672 0)"/>
     <use xlink:href="#DejaVuSerif-Bold-20" transform="translate(327.34375 0)"/>
     <use xlink:href="#DejaVuSerif-Bold-70" transform="translate(362.158203 0)"/>
     <use xlink:href="#DejaVuSerif-Bold-70" transform="translate(432.080078 0)"/>
    </g>
   </g>
   <g id="text_12">
    <!-- ACT x aloha_transfer_cube - inference settings are the load-bearing variable -->
    <g style="fill: #1a1a1a" transform="translate(7.2 14.038594) scale(0.09 -0.09)">
     <defs>
      <path id="DejaVuSerif-41" d="M 1281 1691 
L 2994 1691 
L 2138 3909 
L 1281 1691 
z
M -38 0 
L -38 331 
L 372 331 
L 2034 4666 
L 2559 4666 
L 4225 331 
L 4684 331 
L 4684 0 
L 2988 0 
L 2988 331 
L 3506 331 
L 3116 1356 
L 1153 1356 
L 763 331 
L 1275 331 
L 1275 0 
L -38 0 
z
" transform="scale(0.015625)"/>
      <path id="DejaVuSerif-43" d="M 4513 1234 
Q 4306 581 3820 245 
Q 3334 -91 2591 -91 
Q 2134 -91 1743 65 
Q 1353 222 1050 525 
Q 700 875 529 1320 
Q 359 1766 359 2328 
Q 359 3416 987 4083 
Q 1616 4750 2644 4750 
Q 3025 4750 3456 4650 
Q 3888 4550 4384 4347 
L 4384 3272 
L 4031 3272 
Q 3916 3859 3567 4137 
Q 3219 4416 2591 4416 
Q 1844 4416 1459 3886 
Q 1075 3356 1075 2328 
Q 1075 1303 1459 773 
Q 1844 244 2591 244 
Q 3113 244 3450 492 
Q 3788 741 3938 1234 
L 4513 1234 
z
" transform="scale(0.015625)"/>
      <path id="DejaVuSerif-54" d="M 1222 0 
L 1222 331 
L 1819 331 
L 1819 4294 
L 447 4294 
L 447 3566 
L 63 3566 
L 63 4666 
L 4206 4666 
L 4206 3566 
L 3822 3566 
L 3822 4294 
L 2450 4294 
L 2450 331 
L 3047 331 
L 3047 0 
L 1222 0 
z
" transform="scale(0.015625)"/>
      <path id="DejaVuSerif-78" d="M 1863 2028 
L 2559 2988 
L 2113 2988 
L 2113 3322 
L 3391 3322 
L 3391 2988 
L 2950 2988 
L 2059 1759 
L 3097 331 
L 3531 331 
L 3531 0 
L 1997 0 
L 1997 331 
L 2419 331 
L 1697 1325 
L 972 331 
L 1403 331 
L 1403 0 
L 141 0 
L 141 331 
L 581 331 
L 1497 1594 
L 488 2988 
L 78 2988 
L 78 3322 
L 1563 3322 
L 1563 2988 
L 1166 2988 
L 1863 2028 
z
" transform="scale(0.015625)"/>
      <path id="DejaVuSerif-2d" d="M 281 1959 
L 1881 1959 
L 1881 1472 
L 281 1472 
L 281 1959 
z
" transform="scale(0.015625)"/>
      <path id="DejaVuSerif-67" d="M 3359 2988 
L 3359 72 
Q 3359 -644 2965 -1033 
Q 2572 -1422 1844 -1422 
Q 1516 -1422 1216 -1362 
Q 916 -1303 641 -1184 
L 641 -488 
L 941 -488 
Q 997 -813 1206 -963 
Q 1416 -1113 1806 -1113 
Q 2313 -1113 2548 -827 
Q 2784 -541 2784 72 
L 2784 519 
Q 2616 206 2355 57 
Q 2094 -91 1709 -91 
Q 1097 -91 708 395 
Q 319 881 319 1663 
Q 319 2444 706 2928 
Q 1094 3413 1709 3413 
Q 2094 3413 2355 3264 
Q 2616 3116 2784 2803 
L 2784 3322 
L 3909 3322 
L 3909 2988 
L 3359 2988 
z
M 2784 1825 
Q 2784 2422 2554 2737 
Q 2325 3053 1888 3053 
Q 1444 3053 1217 2703 
Q 991 2353 991 1663 
Q 991 975 1217 622 
Q 1444 269 1888 269 
Q 2325 269 2554 583 
Q 2784 897 2784 1497 
L 2784 1825 
z
" transform="scale(0.015625)"/>
     </defs>
     <use xlink:href="#DejaVuSerif-41"/>
     <use xlink:href="#DejaVuSerif-43" transform="translate(72.216797 0)"/>
     <use xlink:href="#DejaVuSerif-54" transform="translate(148.730469 0)"/>
     <use xlink:href="#DejaVuSerif-20" transform="translate(215.429688 0)"/>
     <use xlink:href="#DejaVuSerif-78" transform="translate(247.216797 0)"/>
     <use xlink:href="#DejaVuSerif-20" transform="translate(303.613281 0)"/>
     <use xlink:href="#DejaVuSerif-61" transform="translate(335.400391 0)"/>
     <use xlink:href="#DejaVuSerif-6c" transform="translate(395.019531 0)"/>
     <use xlink:href="#DejaVuSerif-6f" transform="translate(427.001953 0)"/>
     <use xlink:href="#DejaVuSerif-68" transform="translate(487.207031 0)"/>
     <use xlink:href="#DejaVuSerif-61" transform="translate(551.611328 0)"/>
     <use xlink:href="#DejaVuSerif-5f" transform="translate(611.230469 0)"/>
     <use xlink:href="#DejaVuSerif-74" transform="translate(661.230469 0)"/>
     <use xlink:href="#DejaVuSerif-72" transform="translate(701.416016 0)"/>
     <use xlink:href="#DejaVuSerif-61" transform="translate(749.21875 0)"/>
     <use xlink:href="#DejaVuSerif-6e" transform="translate(808.837891 0)"/>
     <use xlink:href="#DejaVuSerif-73" transform="translate(873.242188 0)"/>
     <use xlink:href="#DejaVuSerif-66" transform="translate(924.560547 0)"/>
     <use xlink:href="#DejaVuSerif-65" transform="translate(961.572266 0)"/>
     <use xlink:href="#DejaVuSerif-72" transform="translate(1020.751953 0)"/>
     <use xlink:href="#DejaVuSerif-5f" transform="translate(1068.554688 0)"/>
     <use xlink:href="#DejaVuSerif-63" transform="translate(1118.554688 0)"/>
     <use xlink:href="#DejaVuSerif-75" transform="translate(1174.560547 0)"/>
     <use xlink:href="#DejaVuSerif-62" transform="translate(1238.964844 0)"/>
     <use xlink:href="#DejaVuSerif-65" transform="translate(1302.978516 0)"/>
     <use xlink:href="#DejaVuSerif-20" transform="translate(1362.158203 0)"/>
     <use xlink:href="#DejaVuSerif-2d" transform="translate(1393.945312 0)"/>
     <use xlink:href="#DejaVuSerif-20" transform="translate(1427.734375 0)"/>
     <use xlink:href="#DejaVuSerif-69" transform="translate(1459.521484 0)"/>
     <use xlink:href="#DejaVuSerif-6e" transform="translate(1491.503906 0)"/>
     <use xlink:href="#DejaVuSerif-66" transform="translate(1555.908203 0)"/>
     <use xlink:href="#DejaVuSerif-65" transform="translate(1592.919922 0)"/>
     <use xlink:href="#DejaVuSerif-72" transform="translate(1652.099609 0)"/>
     <use xlink:href="#DejaVuSerif-65" transform="translate(1699.902344 0)"/>
     <use xlink:href="#DejaVuSerif-6e" transform="translate(1759.082031 0)"/>
     <use xlink:href="#DejaVuSerif-63" transform="translate(1823.486328 0)"/>
     <use xlink:href="#DejaVuSerif-65" transform="translate(1879.492188 0)"/>
     <use xlink:href="#DejaVuSerif-20" transform="translate(1938.671875 0)"/>
     <use xlink:href="#DejaVuSerif-73" transform="translate(1970.458984 0)"/>
     <use xlink:href="#DejaVuSerif-65" transform="translate(2021.777344 0)"/>
     <use xlink:href="#DejaVuSerif-74" transform="translate(2080.957031 0)"/>
     <use xlink:href="#DejaVuSerif-74" transform="translate(2121.142578 0)"/>
     <use xlink:href="#DejaVuSerif-69" transform="translate(2161.328125 0)"/>
     <use xlink:href="#DejaVuSerif-6e" transform="translate(2193.310547 0)"/>
     <use xlink:href="#DejaVuSerif-67" transform="translate(2257.714844 0)"/>
     <use xlink:href="#DejaVuSerif-73" transform="translate(2321.728516 0)"/>
     <use xlink:href="#DejaVuSerif-20" transform="translate(2373.046875 0)"/>
     <use xlink:href="#DejaVuSerif-61" transform="translate(2404.833984 0)"/>
     <use xlink:href="#DejaVuSerif-72" transform="translate(2464.453125 0)"/>
     <use xlink:href="#DejaVuSerif-65" transform="translate(2512.255859 0)"/>
     <use xlink:href="#DejaVuSerif-20" transform="translate(2571.435547 0)"/>
     <use xlink:href="#DejaVuSerif-74" transform="translate(2603.222656 0)"/>
     <use xlink:href="#DejaVuSerif-68" transform="translate(2643.408203 0)"/>
     <use xlink:href="#DejaVuSerif-65" transform="translate(2707.8125 0)"/>
     <use xlink:href="#DejaVuSerif-20" transform="translate(2766.992188 0)"/>
     <use xlink:href="#DejaVuSerif-6c" transform="translate(2798.779297 0)"/>
     <use xlink:href="#DejaVuSerif-6f" transform="translate(2830.761719 0)"/>
     <use xlink:href="#DejaVuSerif-61" transform="translate(2890.966797 0)"/>
     <use xlink:href="#DejaVuSerif-64" transform="translate(2950.585938 0)"/>
     <use xlink:href="#DejaVuSerif-2d" transform="translate(3014.599609 0)"/>
     <use xlink:href="#DejaVuSerif-62" transform="translate(3048.388672 0)"/>
     <use xlink:href="#DejaVuSerif-65" transform="translate(3112.402344 0)"/>
     <use xlink:href="#DejaVuSerif-61" transform="translate(3171.582031 0)"/>
     <use xlink:href="#DejaVuSerif-72" transform="translate(3231.201172 0)"/>
     <use xlink:href="#DejaVuSerif-69" transform="translate(3279.003906 0)"/>
     <use xlink:href="#DejaVuSerif-6e" transform="translate(3310.986328 0)"/>
     <use xlink:href="#DejaVuSerif-67" transform="translate(3375.390625 0)"/>
     <use xlink:href="#DejaVuSerif-20" transform="translate(3439.404297 0)"/>
     <use xlink:href="#DejaVuSerif-76" transform="translate(3471.191406 0)"/>
     <use xlink:href="#DejaVuSerif-61" transform="translate(3527.685547 0)"/>
     <use xlink:href="#DejaVuSerif-72" transform="translate(3587.304688 0)"/>
     <use xlink:href="#DejaVuSerif-69" transform="translate(3635.107422 0)"/>
     <use xlink:href="#DejaVuSerif-61" transform="translate(3667.089844 0)"/>
     <use xlink:href="#DejaVuSerif-62" transform="translate(3726.708984 0)"/>
     <use xlink:href="#DejaVuSerif-6c" transform="translate(3790.722656 0)"/>
     <use xlink:href="#DejaVuSerif-65" transform="translate(3822.705078 0)"/>
    </g>
   </g>
   <g id="PathCollection_1">
    <defs>
     <path id="m590bf1a0fe" d="M 0 2.12132 
C 0.562581 2.12132 1.102195 1.897805 1.5 1.5 
C 1.897805 1.102195 2.12132 0.562581 2.12132 0 
C 2.12132 -0.562581 1.897805 -1.102195 1.5 -1.5 
C 1.102195 -1.897805 0.562581 -2.12132 0 -2.12132 
C -0.562581 -2.12132 -1.102195 -1.897805 -1.5 -1.5 
C -1.897805 -1.102195 -2.12132 -0.562581 -2.12132 0 
C -2.12132 0.562581 -1.897805 1.102195 -1.5 1.5 
C -1.102195 1.897805 -0.562581 2.12132 0 2.12132 
z
" style="stroke: #ffffff; stroke-opacity: 0.85; stroke-width: 0.5"/>
    </defs>
    <g clip-path="url(#p9e27aaff46)">
     <use xlink:href="#m590bf1a0fe" x="133.436168" y="145.656413" style="fill: #1a1a1a; fill-opacity: 0.85; stroke: #ffffff; stroke-opacity: 0.85; stroke-width: 0.5"/>
     <use xlink:href="#m590bf1a0fe" x="124.295818" y="143.217232" style="fill: #1a1a1a; fill-opacity: 0.85; stroke: #ffffff; stroke-opacity: 0.85; stroke-width: 0.5"/>
     <use xlink:href="#m590bf1a0fe" x="118.599807" y="148.095594" style="fill: #1a1a1a; fill-opacity: 0.85; stroke: #ffffff; stroke-opacity: 0.85; stroke-width: 0.5"/>
     <use xlink:href="#m590bf1a0fe" x="117.991258" y="145.656413" style="fill: #1a1a1a; fill-opacity: 0.85; stroke: #ffffff; stroke-opacity: 0.85; stroke-width: 0.5"/>
     <use xlink:href="#m590bf1a0fe" x="137.825143" y="148.095594" style="fill: #1a1a1a; fill-opacity: 0.85; stroke: #ffffff; stroke-opacity: 0.85; stroke-width: 0.5"/>
    </g>
   </g>
   <g id="PathCollection_2">
    <g clip-path="url(#p9e27aaff46)">
     <use xlink:href="#m590bf1a0fe" x="244.025526" y="35.89327" style="fill: #1a1a1a; fill-opacity: 0.85; stroke: #ffffff; stroke-opacity: 0.85; stroke-width: 0.5"/>
     <use xlink:href="#m590bf1a0fe" x="236.405066" y="50.528356" style="fill: #1a1a1a; fill-opacity: 0.85; stroke: #ffffff; stroke-opacity: 0.85; stroke-width: 0.5"/>
     <use xlink:href="#m590bf1a0fe" x="239.463528" y="55.406718" style="fill: #1a1a1a; fill-opacity: 0.85; stroke: #ffffff; stroke-opacity: 0.85; stroke-width: 0.5"/>
     <use xlink:href="#m590bf1a0fe" x="234.836493" y="67.602622" style="fill: #1a1a1a; fill-opacity: 0.85; stroke: #ffffff; stroke-opacity: 0.85; stroke-width: 0.5"/>
     <use xlink:href="#m590bf1a0fe" x="244.581075" y="65.163441" style="fill: #1a1a1a; fill-opacity: 0.85; stroke: #ffffff; stroke-opacity: 0.85; stroke-width: 0.5"/>
    </g>
   </g>
  </g>
 </g>
 <defs>
  <clipPath id="p9e27aaff46">
   <rect x="83.350962" y="20.038594" width="197.075263" height="128.057"/>
  </clipPath>
 </defs>
</svg>
