<?xml version="1.0" encoding="utf-8" standalone="no"?>
<!DOCTYPE svg PUBLIC "-//W3C//DTD SVG 1.1//EN"
  "http://www.w3.org/Graphics/SVG/1.1/DTD/svg11.dtd">
<svg xmlns:xlink="http://www.w3.org/1999/xlink" width="266.7533pt" height="166.321625pt" viewBox="0 0 266.7533 166.321625" xmlns="http://www.w3.org/2000/svg" version="1.1">
 <metadata>
  <rdf:RDF xmlns:dc="http://purl.org/dc/elements/1.1/" xmlns:cc="http://creativecommons.org/ns#" xmlns:rdf="http://www.w3.org/1999/02/22-rdf-syntax-ns#">
   <cc:Work>
    <dc:type rdf:resource="http://purl.org/dc/dcmitype/StillImage"/>
    <dc:date>2026-05-29T07:21:56.557591</dc:date>
    <dc:format>image/svg+xml</dc:format>
    <dc:creator>
     <cc:Agent>
      <dc:title>Matplotlib v3.10.8, https://matplotlib.org/</dc:title>
     </cc:Agent>
    </dc:creator>
   </cc:Work>
  </rdf:RDF>
 </metadata>
 <defs>
  <style type="text/css">*{stroke-linejoin: round; stroke-linecap: butt}</style>
 </defs>
 <g id="figure_1">
  <g id="patch_1">
   <path d="M 0 166.321625 
L 266.7533 166.321625 
L 266.7533 0 
L 0 0 
z
" style="fill: #ffffff"/>
  </g>
  <g id="axes_1">
   <g id="patch_2">
    <path d="M 38.665 132.636625 
L 230.92785 132.636625 
L 230.92785 32.116625 
L 38.665 32.116625 
z
" style="fill: #ffffff"/>
   </g>
   <g id="matplotlib.axis_1">
    <g id="xtick_1">
     <g id="line2d_1">
      <path d="M 42.258698 132.636625 
L 42.258698 32.116625 
" clip-path="url(#p6c57246a42)" style="fill: none; stroke-dasharray: 0.8,1.32; stroke-dashoffset: 0; stroke: #b0b0b0; stroke-opacity: 0.25; stroke-width: 0.8"/>
     </g>
     <g id="line2d_2">
      <defs>
       <path id="m2de6d91284" d="M 0 0 
L 0 3.5 
" style="stroke: #1a1a1a; stroke-width: 0.8"/>
      </defs>
      <g>
       <use xlink:href="#m2de6d91284" x="42.258698" y="132.636625" style="fill: #1a1a1a; stroke: #1a1a1a; stroke-width: 0.8"/>
      </g>
     </g>
     <g id="text_1">
      <!-- 0.0 -->
      <g style="fill: #1a1a1a" transform="translate(35.897448 145.715375) scale(0.08 -0.08)">
       <defs>
        <path id="DejaVuSerif-30" d="M 2034 219 
Q 2513 219 2750 744 
Q 2988 1269 2988 2328 
Q 2988 3391 2750 3916 
Q 2513 4441 2034 4441 
Q 1556 4441 1318 3916 
Q 1081 3391 1081 2328 
Q 1081 1269 1318 744 
Q 1556 219 2034 219 
z
M 2034 -91 
Q 1275 -91 848 546 
Q 422 1184 422 2328 
Q 422 3475 848 4112 
Q 1275 4750 2034 4750 
Q 2797 4750 3222 4112 
Q 3647 3475 3647 2328 
Q 3647 1184 3222 546 
Q 2797 -91 2034 -91 
z
" transform="scale(0.015625)"/>
        <path id="DejaVuSerif-2e" d="M 603 325 
Q 603 500 722 622 
Q 841 744 1019 744 
Q 1191 744 1312 622 
Q 1434 500 1434 325 
Q 1434 153 1312 31 
Q 1191 -91 1019 -91 
Q 841 -91 722 29 
Q 603 150 603 325 
z
" transform="scale(0.015625)"/>
       </defs>
       <use xlink:href="#DejaVuSerif-30"/>
       <use xlink:href="#DejaVuSerif-2e" transform="translate(63.623047 0)"/>
       <use xlink:href="#DejaVuSerif-30" transform="translate(95.410156 0)"/>
      </g>
     </g>
    </g>
    <g id="xtick_2">
     <g id="line2d_3">
      <path d="M 78.19568 132.636625 
L 78.19568 32.116625 
" clip-path="url(#p6c57246a42)" style="fill: none; stroke-dasharray: 0.8,1.32; stroke-dashoffset: 0; stroke: #b0b0b0; stroke-opacity: 0.25; stroke-width: 0.8"/>
     </g>
     <g id="line2d_4">
      <g>
       <use xlink:href="#m2de6d91284" x="78.19568" y="132.636625" style="fill: #1a1a1a; stroke: #1a1a1a; stroke-width: 0.8"/>
      </g>
     </g>
     <g id="text_2">
      <!-- 0.2 -->
      <g style="fill: #1a1a1a" transform="translate(71.83443 145.715375) scale(0.08 -0.08)">
       <defs>
        <path id="DejaVuSerif-32" d="M 819 3553 
L 469 3553 
L 469 4384 
Q 803 4563 1142 4656 
Q 1481 4750 1806 4750 
Q 2534 4750 2956 4397 
Q 3378 4044 3378 3438 
Q 3378 2753 2422 1800 
Q 2347 1728 2309 1691 
L 1131 513 
L 3078 513 
L 3078 1088 
L 3444 1088 
L 3444 0 
L 434 0 
L 434 341 
L 1850 1753 
Q 2319 2222 2519 2614 
Q 2719 3006 2719 3438 
Q 2719 3909 2473 4175 
Q 2228 4441 1797 4441 
Q 1350 4441 1106 4219 
Q 863 3997 819 3553 
z
" transform="scale(0.015625)"/>
       </defs>
       <use xlink:href="#DejaVuSerif-30"/>
       <use xlink:href="#DejaVuSerif-2e" transform="translate(63.623047 0)"/>
       <use xlink:href="#DejaVuSerif-32" transform="translate(95.410156 0)"/>
      </g>
     </g>
    </g>
    <g id="xtick_3">
     <g id="line2d_5">
      <path d="M 114.132661 132.636625 
L 114.132661 32.116625 
" clip-path="url(#p6c57246a42)" style="fill: none; stroke-dasharray: 0.8,1.32; stroke-dashoffset: 0; stroke: #b0b0b0; stroke-opacity: 0.25; stroke-width: 0.8"/>
     </g>
     <g id="line2d_6">
      <g>
       <use xlink:href="#m2de6d91284" x="114.132661" y="132.636625" style="fill: #1a1a1a; stroke: #1a1a1a; stroke-width: 0.8"/>
      </g>
     </g>
     <g id="text_3">
      <!-- 0.4 -->
      <g style="fill: #1a1a1a" transform="translate(107.771411 145.715375) scale(0.08 -0.08)">
       <defs>
        <path id="DejaVuSerif-34" d="M 2234 1581 
L 2234 4063 
L 641 1581 
L 2234 1581 
z
M 3609 0 
L 1484 0 
L 1484 331 
L 2234 331 
L 2234 1247 
L 197 1247 
L 197 1588 
L 2241 4750 
L 2859 4750 
L 2859 1581 
L 3750 1581 
L 3750 1247 
L 2859 1247 
L 2859 331 
L 3609 331 
L 3609 0 
z
" transform="scale(0.015625)"/>
       </defs>
       <use xlink:href="#DejaVuSerif-30"/>
       <use xlink:href="#DejaVuSerif-2e" transform="translate(63.623047 0)"/>
       <use xlink:href="#DejaVuSerif-34" transform="translate(95.410156 0)"/>
      </g>
     </g>
    </g>
    <g id="xtick_4">
     <g id="line2d_7">
      <path d="M 150.069642 132.636625 
L 150.069642 32.116625 
" clip-path="url(#p6c57246a42)" style="fill: none; stroke-dasharray: 0.8,1.32; stroke-dashoffset: 0; stroke: #b0b0b0; stroke-opacity: 0.25; stroke-width: 0.8"/>
     </g>
     <g id="line2d_8">
      <g>
       <use xlink:href="#m2de6d91284" x="150.069642" y="132.636625" style="fill: #1a1a1a; stroke: #1a1a1a; stroke-width: 0.8"/>
      </g>
     </g>
     <g id="text_4">
      <!-- 0.6 -->
      <g style="fill: #1a1a1a" transform="translate(143.708392 145.715375) scale(0.08 -0.08)">
       <defs>
        <path id="DejaVuSerif-36" d="M 2094 219 
Q 2534 219 2771 542 
Q 3009 866 3009 1472 
Q 3009 2078 2771 2401 
Q 2534 2725 2094 2725 
Q 1647 2725 1412 2412 
Q 1178 2100 1178 1509 
Q 1178 888 1415 553 
Q 1653 219 2094 219 
z
M 1075 2569 
Q 1288 2803 1556 2918 
Q 1825 3034 2163 3034 
Q 2859 3034 3264 2615 
Q 3669 2197 3669 1472 
Q 3669 763 3233 336 
Q 2797 -91 2069 -91 
Q 1278 -91 853 498 
Q 428 1088 428 2181 
Q 428 3406 931 4078 
Q 1434 4750 2350 4750 
Q 2597 4750 2869 4703 
Q 3141 4656 3425 4563 
L 3425 3794 
L 3072 3794 
Q 3034 4109 2831 4275 
Q 2628 4441 2284 4441 
Q 1678 4441 1381 3981 
Q 1084 3522 1075 2569 
z
" transform="scale(0.015625)"/>
       </defs>
       <use xlink:href="#DejaVuSerif-30"/>
       <use xlink:href="#DejaVuSerif-2e" transform="translate(63.623047 0)"/>
       <use xlink:href="#DejaVuSerif-36" transform="translate(95.410156 0)"/>
      </g>
     </g>
    </g>
    <g id="xtick_5">
     <g id="line2d_9">
      <path d="M 186.006624 132.636625 
L 186.006624 32.116625 
" clip-path="url(#p6c57246a42)" style="fill: none; stroke-dasharray: 0.8,1.32; stroke-dashoffset: 0; stroke: #b0b0b0; stroke-opacity: 0.25; stroke-width: 0.8"/>
     </g>
     <g id="line2d_10">
      <g>
       <use xlink:href="#m2de6d91284" x="186.006624" y="132.636625" style="fill: #1a1a1a; stroke: #1a1a1a; stroke-width: 0.8"/>
      </g>
     </g>
     <g id="text_5">
      <!-- 0.8 -->
      <g style="fill: #1a1a1a" transform="translate(179.645374 145.715375) scale(0.08 -0.08)">
       <defs>
        <path id="DejaVuSerif-38" d="M 2981 1275 
Q 2981 1775 2732 2051 
Q 2484 2328 2034 2328 
Q 1584 2328 1336 2051 
Q 1088 1775 1088 1275 
Q 1088 772 1336 495 
Q 1584 219 2034 219 
Q 2484 219 2732 495 
Q 2981 772 2981 1275 
z
M 2853 3541 
Q 2853 3966 2637 4203 
Q 2422 4441 2034 4441 
Q 1650 4441 1433 4203 
Q 1216 3966 1216 3541 
Q 1216 3113 1433 2875 
Q 1650 2638 2034 2638 
Q 2422 2638 2637 2875 
Q 2853 3113 2853 3541 
z
M 2516 2484 
Q 3047 2413 3344 2092 
Q 3641 1772 3641 1275 
Q 3641 619 3225 264 
Q 2809 -91 2034 -91 
Q 1263 -91 845 264 
Q 428 619 428 1275 
Q 428 1772 725 2092 
Q 1022 2413 1556 2484 
Q 1084 2569 832 2842 
Q 581 3116 581 3541 
Q 581 4103 968 4426 
Q 1356 4750 2034 4750 
Q 2713 4750 3100 4426 
Q 3488 4103 3488 3541 
Q 3488 3116 3236 2842 
Q 2984 2569 2516 2484 
z
" transform="scale(0.015625)"/>
       </defs>
       <use xlink:href="#DejaVuSerif-30"/>
       <use xlink:href="#DejaVuSerif-2e" transform="translate(63.623047 0)"/>
       <use xlink:href="#DejaVuSerif-38" transform="translate(95.410156 0)"/>
      </g>
     </g>
    </g>
    <g id="xtick_6">
     <g id="line2d_11">
      <path d="M 221.943605 132.636625 
L 221.943605 32.116625 
" clip-path="url(#p6c57246a42)" style="fill: none; stroke-dasharray: 0.8,1.32; stroke-dashoffset: 0; stroke: #b0b0b0; stroke-opacity: 0.25; stroke-width: 0.8"/>
     </g>
     <g id="line2d_12">
      <g>
       <use xlink:href="#m2de6d91284" x="221.943605" y="132.636625" style="fill: #1a1a1a; stroke: #1a1a1a; stroke-width: 0.8"/>
      </g>
     </g>
     <g id="text_6">
      <!-- 1.0 -->
      <g style="fill: #1a1a1a" transform="translate(215.582355 145.715375) scale(0.08 -0.08)">
       <defs>
        <path id="DejaVuSerif-31" d="M 909 0 
L 909 331 
L 1722 331 
L 1722 4213 
L 781 3603 
L 781 4013 
L 1919 4750 
L 2350 4750 
L 2350 331 
L 3163 331 
L 3163 0 
L 909 0 
z
" transform="scale(0.015625)"/>
       </defs>
       <use xlink:href="#DejaVuSerif-31"/>
       <use xlink:href="#DejaVuSerif-2e" transform="translate(63.623047 0)"/>
       <use xlink:href="#DejaVuSerif-30" transform="translate(95.410156 0)"/>
      </g>
     </g>
    </g>
    <g id="text_7">
     <!-- paper-reported success -->
     <g style="fill: #1a1a1a" transform="translate(87.1108 157.457875) scale(0.08 -0.08)">
      <defs>
       <path id="DejaVuSerif-70" d="M 1313 1825 
L 1313 1497 
Q 1313 897 1542 583 
Q 1772 269 2209 269 
Q 2650 269 2876 622 
Q 3103 975 3103 1663 
Q 3103 2353 2876 2703 
Q 2650 3053 2209 3053 
Q 1772 3053 1542 2737 
Q 1313 2422 1313 1825 
z
M 738 2988 
L 184 2988 
L 184 3322 
L 1313 3322 
L 1313 2803 
Q 1481 3116 1742 3264 
Q 2003 3413 2388 3413 
Q 3000 3413 3387 2928 
Q 3775 2444 3775 1663 
Q 3775 881 3387 395 
Q 3000 -91 2388 -91 
Q 2003 -91 1742 57 
Q 1481 206 1313 519 
L 1313 -997 
L 1856 -997 
L 1856 -1331 
L 184 -1331 
L 184 -997 
L 738 -997 
L 738 2988 
z
" transform="scale(0.015625)"/>
       <path id="DejaVuSerif-61" d="M 2547 1044 
L 2547 1747 
L 1806 1747 
Q 1378 1747 1168 1562 
Q 959 1378 959 997 
Q 959 650 1171 447 
Q 1384 244 1747 244 
Q 2106 244 2326 466 
Q 2547 688 2547 1044 
z
M 3122 2075 
L 3122 331 
L 3634 331 
L 3634 0 
L 2547 0 
L 2547 359 
Q 2356 128 2106 18 
Q 1856 -91 1522 -91 
Q 969 -91 644 203 
Q 319 497 319 997 
Q 319 1513 691 1797 
Q 1063 2081 1741 2081 
L 2547 2081 
L 2547 2309 
Q 2547 2688 2317 2895 
Q 2088 3103 1672 3103 
Q 1328 3103 1125 2947 
Q 922 2791 872 2484 
L 575 2484 
L 575 3156 
Q 875 3284 1158 3348 
Q 1441 3413 1709 3413 
Q 2400 3413 2761 3070 
Q 3122 2728 3122 2075 
z
" transform="scale(0.015625)"/>
       <path id="DejaVuSerif-65" d="M 3469 1600 
L 991 1600 
L 991 1575 
Q 991 903 1244 561 
Q 1497 219 1991 219 
Q 2369 219 2611 417 
Q 2853 616 2950 1006 
L 3413 1006 
Q 3275 459 2904 184 
Q 2534 -91 1931 -91 
Q 1203 -91 761 389 
Q 319 869 319 1663 
Q 319 2450 753 2931 
Q 1188 3413 1894 3413 
Q 2647 3413 3050 2948 
Q 3453 2484 3469 1600 
z
M 2791 1931 
Q 2772 2513 2545 2808 
Q 2319 3103 1894 3103 
Q 1497 3103 1269 2806 
Q 1041 2509 991 1931 
L 2791 1931 
z
" transform="scale(0.015625)"/>
       <path id="DejaVuSerif-72" d="M 3059 3328 
L 3059 2497 
L 2728 2497 
Q 2713 2744 2591 2866 
Q 2469 2988 2234 2988 
Q 1809 2988 1582 2694 
Q 1356 2400 1356 1850 
L 1356 331 
L 2022 331 
L 2022 0 
L 263 0 
L 263 331 
L 781 331 
L 781 2994 
L 231 2994 
L 231 3322 
L 1356 3322 
L 1356 2731 
Q 1525 3078 1790 3245 
Q 2056 3413 2438 3413 
Q 2578 3413 2733 3391 
Q 2888 3369 3059 3328 
z
" transform="scale(0.015625)"/>
       <path id="DejaVuSerif-2d" d="M 281 1959 
L 1881 1959 
L 1881 1472 
L 281 1472 
L 281 1959 
z
" transform="scale(0.015625)"/>
       <path id="DejaVuSerif-6f" d="M 1925 219 
Q 2388 219 2623 584 
Q 2859 950 2859 1663 
Q 2859 2375 2623 2739 
Q 2388 3103 1925 3103 
Q 1463 3103 1227 2739 
Q 991 2375 991 1663 
Q 991 950 1228 584 
Q 1466 219 1925 219 
z
M 1925 -91 
Q 1200 -91 759 389 
Q 319 869 319 1663 
Q 319 2456 758 2934 
Q 1197 3413 1925 3413 
Q 2653 3413 3092 2934 
Q 3531 2456 3531 1663 
Q 3531 869 3092 389 
Q 2653 -91 1925 -91 
z
" transform="scale(0.015625)"/>
       <path id="DejaVuSerif-74" d="M 691 2988 
L 184 2988 
L 184 3322 
L 691 3322 
L 691 4353 
L 1269 4353 
L 1269 3322 
L 2350 3322 
L 2350 2988 
L 1269 2988 
L 1269 878 
Q 1269 456 1350 337 
Q 1431 219 1650 219 
Q 1875 219 1978 351 
Q 2081 484 2088 781 
L 2522 781 
Q 2497 328 2275 118 
Q 2053 -91 1600 -91 
Q 1103 -91 897 129 
Q 691 350 691 878 
L 691 2988 
z
" transform="scale(0.015625)"/>
       <path id="DejaVuSerif-64" d="M 3359 331 
L 3909 331 
L 3909 0 
L 2784 0 
L 2784 519 
Q 2616 206 2355 57 
Q 2094 -91 1709 -91 
Q 1097 -91 708 395 
Q 319 881 319 1663 
Q 319 2444 706 2928 
Q 1094 3413 1709 3413 
Q 2094 3413 2355 3264 
Q 2616 3116 2784 2803 
L 2784 4531 
L 2241 4531 
L 2241 4863 
L 3359 4863 
L 3359 331 
z
M 2784 1497 
L 2784 1825 
Q 2784 2422 2554 2737 
Q 2325 3053 1888 3053 
Q 1444 3053 1217 2703 
Q 991 2353 991 1663 
Q 991 975 1217 622 
Q 1444 269 1888 269 
Q 2325 269 2554 583 
Q 2784 897 2784 1497 
z
" transform="scale(0.015625)"/>
       <path id="DejaVuSerif-20" transform="scale(0.015625)"/>
       <path id="DejaVuSerif-73" d="M 359 184 
L 359 959 
L 691 959 
Q 703 588 923 403 
Q 1144 219 1575 219 
Q 1963 219 2166 364 
Q 2369 509 2369 788 
Q 2369 1006 2220 1140 
Q 2072 1275 1594 1428 
L 1178 1569 
Q 750 1706 558 1912 
Q 366 2119 366 2438 
Q 366 2894 700 3153 
Q 1034 3413 1625 3413 
Q 1888 3413 2178 3344 
Q 2469 3275 2778 3144 
L 2778 2419 
L 2447 2419 
Q 2434 2741 2221 2922 
Q 2009 3103 1644 3103 
Q 1281 3103 1095 2975 
Q 909 2847 909 2591 
Q 909 2381 1050 2254 
Q 1191 2128 1613 1997 
L 2069 1856 
Q 2541 1709 2748 1489 
Q 2956 1269 2956 922 
Q 2956 450 2595 179 
Q 2234 -91 1600 -91 
Q 1278 -91 972 -22 
Q 666 47 359 184 
z
" transform="scale(0.015625)"/>
       <path id="DejaVuSerif-75" d="M 2266 3322 
L 3341 3322 
L 3341 331 
L 3884 331 
L 3884 0 
L 2766 0 
L 2766 588 
Q 2606 256 2353 82 
Q 2100 -91 1766 -91 
Q 1213 -91 952 223 
Q 691 538 691 1209 
L 691 2988 
L 172 2988 
L 172 3322 
L 1269 3322 
L 1269 1388 
Q 1269 781 1417 556 
Q 1566 331 1947 331 
Q 2347 331 2556 625 
Q 2766 919 2766 1478 
L 2766 2988 
L 2266 2988 
L 2266 3322 
z
" transform="scale(0.015625)"/>
       <path id="DejaVuSerif-63" d="M 3291 997 
Q 3169 466 2822 187 
Q 2475 -91 1925 -91 
Q 1200 -91 759 389 
Q 319 869 319 1663 
Q 319 2459 759 2936 
Q 1200 3413 1925 3413 
Q 2241 3413 2553 3339 
Q 2866 3266 3181 3116 
L 3181 2266 
L 2847 2266 
Q 2781 2703 2561 2903 
Q 2341 3103 1931 3103 
Q 1466 3103 1228 2742 
Q 991 2381 991 1663 
Q 991 944 1227 581 
Q 1463 219 1931 219 
Q 2303 219 2525 412 
Q 2747 606 2828 997 
L 3291 997 
z
" transform="scale(0.015625)"/>
      </defs>
      <use xlink:href="#DejaVuSerif-70"/>
      <use xlink:href="#DejaVuSerif-61" transform="translate(64.013672 0)"/>
      <use xlink:href="#DejaVuSerif-70" transform="translate(123.632812 0)"/>
      <use xlink:href="#DejaVuSerif-65" transform="translate(187.646484 0)"/>
      <use xlink:href="#DejaVuSerif-72" transform="translate(246.826172 0)"/>
      <use xlink:href="#DejaVuSerif-2d" transform="translate(294.628906 0)"/>
      <use xlink:href="#DejaVuSerif-72" transform="translate(328.417969 0)"/>
      <use xlink:href="#DejaVuSerif-65" transform="translate(376.220703 0)"/>
      <use xlink:href="#DejaVuSerif-70" transform="translate(435.400391 0)"/>
      <use xlink:href="#DejaVuSerif-6f" transform="translate(499.414062 0)"/>
      <use xlink:href="#DejaVuSerif-72" transform="translate(559.619141 0)"/>
      <use xlink:href="#DejaVuSerif-74" transform="translate(607.421875 0)"/>
      <use xlink:href="#DejaVuSerif-65" transform="translate(647.607422 0)"/>
      <use xlink:href="#DejaVuSerif-64" transform="translate(706.787109 0)"/>
      <use xlink:href="#DejaVuSerif-20" transform="translate(770.800781 0)"/>
      <use xlink:href="#DejaVuSerif-73" transform="translate(802.587891 0)"/>
      <use xlink:href="#DejaVuSerif-75" transform="translate(853.90625 0)"/>
      <use xlink:href="#DejaVuSerif-63" transform="translate(918.310547 0)"/>
      <use xlink:href="#DejaVuSerif-63" transform="translate(974.316406 0)"/>
      <use xlink:href="#DejaVuSerif-65" transform="translate(1030.322266 0)"/>
      <use xlink:href="#DejaVuSerif-73" transform="translate(1089.501953 0)"/>
      <use xlink:href="#DejaVuSerif-73" transform="translate(1140.820312 0)"/>
     </g>
    </g>
   </g>
   <g id="matplotlib.axis_2">
    <g id="ytick_1">
     <g id="line2d_13">
      <path d="M 38.665 130.757746 
L 230.92785 130.757746 
" clip-path="url(#p6c57246a42)" style="fill: none; stroke-dasharray: 0.8,1.32; stroke-dashoffset: 0; stroke: #b0b0b0; stroke-opacity: 0.25; stroke-width: 0.8"/>
     </g>
     <g id="line2d_14">
      <defs>
       <path id="m00293bc34a" d="M 0 0 
L -3.5 0 
" style="stroke: #1a1a1a; stroke-width: 0.8"/>
      </defs>
      <g>
       <use xlink:href="#m00293bc34a" x="38.665" y="130.757746" style="fill: #1a1a1a; stroke: #1a1a1a; stroke-width: 0.8"/>
      </g>
     </g>
     <g id="text_8">
      <!-- 0.0 -->
      <g style="fill: #1a1a1a" transform="translate(18.9425 133.797121) scale(0.08 -0.08)">
       <use xlink:href="#DejaVuSerif-30"/>
       <use xlink:href="#DejaVuSerif-2e" transform="translate(63.623047 0)"/>
       <use xlink:href="#DejaVuSerif-30" transform="translate(95.410156 0)"/>
      </g>
     </g>
    </g>
    <g id="ytick_2">
     <g id="line2d_15">
      <path d="M 38.665 111.968961 
L 230.92785 111.968961 
" clip-path="url(#p6c57246a42)" style="fill: none; stroke-dasharray: 0.8,1.32; stroke-dashoffset: 0; stroke: #b0b0b0; stroke-opacity: 0.25; stroke-width: 0.8"/>
     </g>
     <g id="line2d_16">
      <g>
       <use xlink:href="#m00293bc34a" x="38.665" y="111.968961" style="fill: #1a1a1a; stroke: #1a1a1a; stroke-width: 0.8"/>
      </g>
     </g>
     <g id="text_9">
      <!-- 0.2 -->
      <g style="fill: #1a1a1a" transform="translate(18.9425 115.008336) scale(0.08 -0.08)">
       <use xlink:href="#DejaVuSerif-30"/>
       <use xlink:href="#DejaVuSerif-2e" transform="translate(63.623047 0)"/>
       <use xlink:href="#DejaVuSerif-32" transform="translate(95.410156 0)"/>
      </g>
     </g>
    </g>
    <g id="ytick_3">
     <g id="line2d_17">
      <path d="M 38.665 93.180176 
L 230.92785 93.180176 
" clip-path="url(#p6c57246a42)" style="fill: none; stroke-dasharray: 0.8,1.32; stroke-dashoffset: 0; stroke: #b0b0b0; stroke-opacity: 0.25; stroke-width: 0.8"/>
     </g>
     <g id="line2d_18">
      <g>
       <use xlink:href="#m00293bc34a" x="38.665" y="93.180176" style="fill: #1a1a1a; stroke: #1a1a1a; stroke-width: 0.8"/>
      </g>
     </g>
     <g id="text_10">
      <!-- 0.4 -->
      <g style="fill: #1a1a1a" transform="translate(18.9425 96.219551) scale(0.08 -0.08)">
       <use xlink:href="#DejaVuSerif-30"/>
       <use xlink:href="#DejaVuSerif-2e" transform="translate(63.623047 0)"/>
       <use xlink:href="#DejaVuSerif-34" transform="translate(95.410156 0)"/>
      </g>
     </g>
    </g>
    <g id="ytick_4">
     <g id="line2d_19">
      <path d="M 38.665 74.391391 
L 230.92785 74.391391 
" clip-path="url(#p6c57246a42)" style="fill: none; stroke-dasharray: 0.8,1.32; stroke-dashoffset: 0; stroke: #b0b0b0; stroke-opacity: 0.25; stroke-width: 0.8"/>
     </g>
     <g id="line2d_20">
      <g>
       <use xlink:href="#m00293bc34a" x="38.665" y="74.391391" style="fill: #1a1a1a; stroke: #1a1a1a; stroke-width: 0.8"/>
      </g>
     </g>
     <g id="text_11">
      <!-- 0.6 -->
      <g style="fill: #1a1a1a" transform="translate(18.9425 77.430766) scale(0.08 -0.08)">
       <use xlink:href="#DejaVuSerif-30"/>
       <use xlink:href="#DejaVuSerif-2e" transform="translate(63.623047 0)"/>
       <use xlink:href="#DejaVuSerif-36" transform="translate(95.410156 0)"/>
      </g>
     </g>
    </g>
    <g id="ytick_5">
     <g id="line2d_21">
      <path d="M 38.665 55.602606 
L 230.92785 55.602606 
" clip-path="url(#p6c57246a42)" style="fill: none; stroke-dasharray: 0.8,1.32; stroke-dashoffset: 0; stroke: #b0b0b0; stroke-opacity: 0.25; stroke-width: 0.8"/>
     </g>
     <g id="line2d_22">
      <g>
       <use xlink:href="#m00293bc34a" x="38.665" y="55.602606" style="fill: #1a1a1a; stroke: #1a1a1a; stroke-width: 0.8"/>
      </g>
     </g>
     <g id="text_12">
      <!-- 0.8 -->
      <g style="fill: #1a1a1a" transform="translate(18.9425 58.641981) scale(0.08 -0.08)">
       <use xlink:href="#DejaVuSerif-30"/>
       <use xlink:href="#DejaVuSerif-2e" transform="translate(63.623047 0)"/>
       <use xlink:href="#DejaVuSerif-38" transform="translate(95.410156 0)"/>
      </g>
     </g>
    </g>
    <g id="ytick_6">
     <g id="line2d_23">
      <path d="M 38.665 36.813821 
L 230.92785 36.813821 
" clip-path="url(#p6c57246a42)" style="fill: none; stroke-dasharray: 0.8,1.32; stroke-dashoffset: 0; stroke: #b0b0b0; stroke-opacity: 0.25; stroke-width: 0.8"/>
     </g>
     <g id="line2d_24">
      <g>
       <use xlink:href="#m00293bc34a" x="38.665" y="36.813821" style="fill: #1a1a1a; stroke: #1a1a1a; stroke-width: 0.8"/>
      </g>
     </g>
     <g id="text_13">
      <!-- 1.0 -->
      <g style="fill: #1a1a1a" transform="translate(18.9425 39.853196) scale(0.08 -0.08)">
       <use xlink:href="#DejaVuSerif-31"/>
       <use xlink:href="#DejaVuSerif-2e" transform="translate(63.623047 0)"/>
       <use xlink:href="#DejaVuSerif-30" transform="translate(95.410156 0)"/>
      </g>
     </g>
    </g>
    <g id="text_14">
     <!-- measured success (N=250 per cell) -->
     <g style="fill: #1a1a1a" transform="translate(13.27875 154.671625) rotate(-90) scale(0.08 -0.08)">
      <defs>
       <path id="DejaVuSerif-6d" d="M 3316 2675 
Q 3481 3041 3739 3227 
Q 3997 3413 4341 3413 
Q 4863 3413 5119 3089 
Q 5375 2766 5375 2113 
L 5375 331 
L 5894 331 
L 5894 0 
L 4300 0 
L 4300 331 
L 4800 331 
L 4800 2047 
Q 4800 2556 4650 2772 
Q 4500 2988 4153 2988 
Q 3769 2988 3567 2697 
Q 3366 2406 3366 1850 
L 3366 331 
L 3866 331 
L 3866 0 
L 2291 0 
L 2291 331 
L 2791 331 
L 2791 2069 
Q 2791 2566 2641 2777 
Q 2491 2988 2144 2988 
Q 1759 2988 1557 2697 
Q 1356 2406 1356 1850 
L 1356 331 
L 1856 331 
L 1856 0 
L 263 0 
L 263 331 
L 781 331 
L 781 2994 
L 231 2994 
L 231 3322 
L 1356 3322 
L 1356 2731 
Q 1516 3063 1762 3238 
Q 2009 3413 2322 3413 
Q 2709 3413 2968 3220 
Q 3228 3028 3316 2675 
z
" transform="scale(0.015625)"/>
       <path id="DejaVuSerif-28" d="M 2041 -997 
Q 1281 -656 893 83 
Q 506 822 506 1931 
Q 506 3044 893 3783 
Q 1281 4522 2041 4863 
L 2041 4556 
Q 1559 4225 1350 3623 
Q 1141 3022 1141 1931 
Q 1141 844 1350 242 
Q 1559 -359 2041 -691 
L 2041 -997 
z
" transform="scale(0.015625)"/>
       <path id="DejaVuSerif-4e" d="M 313 0 
L 313 331 
L 941 331 
L 941 4331 
L 313 4331 
L 313 4666 
L 1509 4666 
L 4306 984 
L 4306 4331 
L 3681 4331 
L 3681 4666 
L 5319 4666 
L 5319 4331 
L 4691 4331 
L 4691 -91 
L 4313 -91 
L 1325 3841 
L 1325 331 
L 1953 331 
L 1953 0 
L 313 0 
z
" transform="scale(0.015625)"/>
       <path id="DejaVuSerif-3d" d="M 678 2894 
L 4684 2894 
L 4684 2394 
L 678 2394 
L 678 2894 
z
M 678 1619 
L 4684 1619 
L 4684 1119 
L 678 1119 
L 678 1619 
z
" transform="scale(0.015625)"/>
       <path id="DejaVuSerif-35" d="M 3219 4666 
L 3219 4153 
L 1081 4153 
L 1081 2816 
Q 1244 2928 1461 2984 
Q 1678 3041 1947 3041 
Q 2703 3041 3140 2622 
Q 3578 2203 3578 1478 
Q 3578 738 3136 323 
Q 2694 -91 1894 -91 
Q 1572 -91 1234 -12 
Q 897 66 544 225 
L 544 1131 
L 897 1131 
Q 925 688 1179 453 
Q 1434 219 1894 219 
Q 2388 219 2653 544 
Q 2919 869 2919 1478 
Q 2919 2084 2655 2407 
Q 2391 2731 1894 2731 
Q 1613 2731 1398 2631 
Q 1184 2531 1019 2322 
L 750 2322 
L 750 4666 
L 3219 4666 
z
" transform="scale(0.015625)"/>
       <path id="DejaVuSerif-6c" d="M 1313 331 
L 1856 331 
L 1856 0 
L 184 0 
L 184 331 
L 738 331 
L 738 4531 
L 184 4531 
L 184 4863 
L 1313 4863 
L 1313 331 
z
" transform="scale(0.015625)"/>
       <path id="DejaVuSerif-29" d="M 453 -997 
L 453 -691 
Q 934 -359 1145 242 
Q 1356 844 1356 1931 
Q 1356 3022 1145 3623 
Q 934 4225 453 4556 
L 453 4863 
Q 1216 4522 1603 3783 
Q 1991 3044 1991 1931 
Q 1991 822 1603 83 
Q 1216 -656 453 -997 
z
" transform="scale(0.015625)"/>
      </defs>
      <use xlink:href="#DejaVuSerif-6d"/>
      <use xlink:href="#DejaVuSerif-65" transform="translate(94.824219 0)"/>
      <use xlink:href="#DejaVuSerif-61" transform="translate(154.003906 0)"/>
      <use xlink:href="#DejaVuSerif-73" transform="translate(213.623047 0)"/>
      <use xlink:href="#DejaVuSerif-75" transform="translate(264.941406 0)"/>
      <use xlink:href="#DejaVuSerif-72" transform="translate(329.345703 0)"/>
      <use xlink:href="#DejaVuSerif-65" transform="translate(377.148438 0)"/>
      <use xlink:href="#DejaVuSerif-64" transform="translate(436.328125 0)"/>
      <use xlink:href="#DejaVuSerif-20" transform="translate(500.341797 0)"/>
      <use xlink:href="#DejaVuSerif-73" transform="translate(532.128906 0)"/>
      <use xlink:href="#DejaVuSerif-75" transform="translate(583.447266 0)"/>
      <use xlink:href="#DejaVuSerif-63" transform="translate(647.851562 0)"/>
      <use xlink:href="#DejaVuSerif-63" transform="translate(703.857422 0)"/>
      <use xlink:href="#DejaVuSerif-65" transform="translate(759.863281 0)"/>
      <use xlink:href="#DejaVuSerif-73" transform="translate(819.042969 0)"/>
      <use xlink:href="#DejaVuSerif-73" transform="translate(870.361328 0)"/>
      <use xlink:href="#DejaVuSerif-20" transform="translate(921.679688 0)"/>
      <use xlink:href="#DejaVuSerif-28" transform="translate(953.466797 0)"/>
      <use xlink:href="#DejaVuSerif-4e" transform="translate(992.480469 0)"/>
      <use xlink:href="#DejaVuSerif-3d" transform="translate(1079.980469 0)"/>
      <use xlink:href="#DejaVuSerif-32" transform="translate(1163.769531 0)"/>
      <use xlink:href="#DejaVuSerif-35" transform="translate(1227.392578 0)"/>
      <use xlink:href="#DejaVuSerif-30" transform="translate(1291.015625 0)"/>
      <use xlink:href="#DejaVuSerif-20" transform="translate(1354.638672 0)"/>
      <use xlink:href="#DejaVuSerif-70" transform="translate(1386.425781 0)"/>
      <use xlink:href="#DejaVuSerif-65" transform="translate(1450.439453 0)"/>
      <use xlink:href="#DejaVuSerif-72" transform="translate(1509.619141 0)"/>
      <use xlink:href="#DejaVuSerif-20" transform="translate(1557.421875 0)"/>
      <use xlink:href="#DejaVuSerif-63" transform="translate(1589.208984 0)"/>
      <use xlink:href="#DejaVuSerif-65" transform="translate(1645.214844 0)"/>
      <use xlink:href="#DejaVuSerif-6c" transform="translate(1704.394531 0)"/>
      <use xlink:href="#DejaVuSerif-6c" transform="translate(1736.376953 0)"/>
      <use xlink:href="#DejaVuSerif-29" transform="translate(1768.359375 0)"/>
     </g>
    </g>
   </g>
   <g id="line2d_25">
    <path d="M 42.258698 130.757746 
L 221.943605 36.813821 
" clip-path="url(#p6c57246a42)" style="fill: none; stroke-dasharray: 2.96,1.28; stroke-dashoffset: 0; stroke: #888888; stroke-width: 0.8"/>
   </g>
   <g id="LineCollection_1">
    <path d="M 159.772627 61.33217 
L 159.772627 48.637053 
" clip-path="url(#p6c57246a42)" style="fill: none; stroke: #7570b3; stroke-width: 0.8"/>
   </g>
   <g id="line2d_26">
    <defs>
     <path id="m5c6c773b0c" d="M 3 0 
L -3 -0 
" style="stroke: #7570b3"/>
    </defs>
    <g clip-path="url(#p6c57246a42)">
     <use xlink:href="#m5c6c773b0c" x="159.772627" y="61.33217" style="fill: #7570b3; stroke: #7570b3"/>
    </g>
   </g>
   <g id="line2d_27">
    <g clip-path="url(#p6c57246a42)">
     <use xlink:href="#m5c6c773b0c" x="159.772627" y="48.637053" style="fill: #7570b3; stroke: #7570b3"/>
    </g>
   </g>
   <g id="LineCollection_2">
    <path d="M 132.101152 130.171609 
L 132.101152 126.96149 
" clip-path="url(#p6c57246a42)" style="fill: none; stroke: #1b9e77; stroke-width: 0.8"/>
   </g>
   <g id="line2d_28">
    <defs>
     <path id="m8323826296" d="M 3 0 
L -3 -0 
" style="stroke: #1b9e77"/>
    </defs>
    <g clip-path="url(#p6c57246a42)">
     <use xlink:href="#m8323826296" x="132.101152" y="130.171609" style="fill: #1b9e77; stroke: #1b9e77"/>
    </g>
   </g>
   <g id="line2d_29">
    <g clip-path="url(#p6c57246a42)">
     <use xlink:href="#m8323826296" x="132.101152" y="126.96149" style="fill: #1b9e77; stroke: #1b9e77"/>
    </g>
   </g>
   <g id="LineCollection_3">
    <path d="M 203.975114 63.083857 
L 203.975114 53.415432 
" clip-path="url(#p6c57246a42)" style="fill: none; stroke: #d95f02; stroke-width: 0.8"/>
   </g>
   <g id="line2d_30">
    <defs>
     <path id="m438c2fa2fc" d="M 3 0 
L -3 -0 
" style="stroke: #d95f02"/>
    </defs>
    <g clip-path="url(#p6c57246a42)">
     <use xlink:href="#m438c2fa2fc" x="203.975114" y="63.083857" style="fill: #d95f02; stroke: #d95f02"/>
    </g>
   </g>
   <g id="line2d_31">
    <g clip-path="url(#p6c57246a42)">
     <use xlink:href="#m438c2fa2fc" x="203.975114" y="53.415432" style="fill: #d95f02; stroke: #d95f02"/>
    </g>
   </g>
   <g id="LineCollection_4">
    <path d="M 214.756209 86.964603 
L 214.756209 75.425719 
" clip-path="url(#p6c57246a42)" style="fill: none; stroke: #d95f02; stroke-width: 0.8"/>
   </g>
   <g id="line2d_32">
    <g clip-path="url(#p6c57246a42)">
     <use xlink:href="#m438c2fa2fc" x="214.756209" y="86.964603" style="fill: #d95f02; stroke: #d95f02"/>
    </g>
   </g>
   <g id="line2d_33">
    <g clip-path="url(#p6c57246a42)">
     <use xlink:href="#m438c2fa2fc" x="214.756209" y="75.425719" style="fill: #d95f02; stroke: #d95f02"/>
    </g>
   </g>
   <g id="LineCollection_5">
    <path d="M 207.568813 47.234883 
L 207.568813 41.137644 
" clip-path="url(#p6c57246a42)" style="fill: none; stroke: #888888; stroke-width: 0.8"/>
   </g>
   <g id="line2d_34">
    <defs>
     <path id="m9f4053c381" d="M 3 0 
L -3 -0 
" style="stroke: #888888"/>
    </defs>
    <g clip-path="url(#p6c57246a42)">
     <use xlink:href="#m9f4053c381" x="207.568813" y="47.234883" style="fill: #888888; stroke: #888888"/>
    </g>
   </g>
   <g id="line2d_35">
    <g clip-path="url(#p6c57246a42)">
     <use xlink:href="#m9f4053c381" x="207.568813" y="41.137644" style="fill: #888888; stroke: #888888"/>
    </g>
   </g>
   <g id="LineCollection_6">
    <path d="M 169.834982 111.761164 
L 169.834982 101.701437 
" clip-path="url(#p6c57246a42)" style="fill: none; stroke: #d95f02; stroke-width: 0.8"/>
   </g>
   <g id="line2d_36">
    <g clip-path="url(#p6c57246a42)">
     <use xlink:href="#m438c2fa2fc" x="169.834982" y="111.761164" style="fill: #d95f02; stroke: #d95f02"/>
    </g>
   </g>
   <g id="line2d_37">
    <g clip-path="url(#p6c57246a42)">
     <use xlink:href="#m438c2fa2fc" x="169.834982" y="101.701437" style="fill: #d95f02; stroke: #d95f02"/>
    </g>
   </g>
   <g id="LineCollection_7">
    <path d="M 132.101152 64.245447 
L 132.101152 54.475279 
" clip-path="url(#p6c57246a42)" style="fill: none; stroke: #1b9e77; stroke-width: 0.8"/>
   </g>
   <g id="line2d_38">
    <g clip-path="url(#p6c57246a42)">
     <use xlink:href="#m8323826296" x="132.101152" y="64.245447" style="fill: #1b9e77; stroke: #1b9e77"/>
    </g>
   </g>
   <g id="line2d_39">
    <g clip-path="url(#p6c57246a42)">
     <use xlink:href="#m8323826296" x="132.101152" y="54.475279" style="fill: #1b9e77; stroke: #1b9e77"/>
    </g>
   </g>
   <g id="line2d_40">
    <defs>
     <path id="m249b9b6730" d="M 0 2.5 
C 0.663008 2.5 1.29895 2.236584 1.767767 1.767767 
C 2.236584 1.29895 2.5 0.663008 2.5 0 
C 2.5 -0.663008 2.236584 -1.29895 1.767767 -1.767767 
C 1.29895 -2.236584 0.663008 -2.5 0 -2.5 
C -0.663008 -2.5 -1.29895 -2.236584 -1.767767 -1.767767 
C -2.236584 -1.29895 -2.5 -0.663008 -2.5 0 
C -2.5 0.663008 -2.236584 1.29895 -1.767767 1.767767 
C -1.29895 2.236584 -0.663008 2.5 0 2.5 
z
" style="stroke: #7570b3"/>
    </defs>
    <g clip-path="url(#p6c57246a42)">
     <use xlink:href="#m249b9b6730" x="159.772627" y="54.099504" style="fill: #7570b3; stroke: #7570b3"/>
    </g>
   </g>
   <g id="line2d_41">
    <defs>
     <path id="m3ed1825a95" d="M 0 2.5 
C 0.663008 2.5 1.29895 2.236584 1.767767 1.767767 
C 2.236584 1.29895 2.5 0.663008 2.5 0 
C 2.5 -0.663008 2.236584 -1.29895 1.767767 -1.767767 
C 1.29895 -2.236584 0.663008 -2.5 0 -2.5 
C -0.663008 -2.5 -1.29895 -2.236584 -1.767767 -1.767767 
C -2.236584 -1.29895 -2.5 -0.663008 -2.5 0 
C -2.5 0.663008 -2.236584 1.29895 -1.767767 1.767767 
C -1.29895 2.236584 -0.663008 2.5 0 2.5 
z
" style="stroke: #1b9e77"/>
    </defs>
    <g clip-path="url(#p6c57246a42)">
     <use xlink:href="#m3ed1825a95" x="132.101152" y="129.254644" style="fill: #1b9e77; stroke: #1b9e77"/>
    </g>
   </g>
   <g id="line2d_42">
    <defs>
     <path id="m753f5de0dd" d="M 0 2.5 
C 0.663008 2.5 1.29895 2.236584 1.767767 1.767767 
C 2.236584 1.29895 2.5 0.663008 2.5 0 
C 2.5 -0.663008 2.236584 -1.29895 1.767767 -1.767767 
C 1.29895 -2.236584 0.663008 -2.5 0 -2.5 
C -0.663008 -2.5 -1.29895 -2.236584 -1.767767 -1.767767 
C -2.236584 -1.29895 -2.5 -0.663008 -2.5 0 
C -2.5 0.663008 -2.236584 1.29895 -1.767767 1.767767 
C -1.29895 2.236584 -0.663008 2.5 0 2.5 
z
" style="stroke: #d95f02"/>
    </defs>
    <g clip-path="url(#p6c57246a42)">
     <use xlink:href="#m753f5de0dd" x="203.975114" y="57.857261" style="fill: #d95f02; stroke: #d95f02"/>
    </g>
   </g>
   <g id="line2d_43">
    <g clip-path="url(#p6c57246a42)">
     <use xlink:href="#m753f5de0dd" x="214.756209" y="81.155354" style="fill: #d95f02; stroke: #d95f02"/>
    </g>
   </g>
   <g id="line2d_44">
    <defs>
     <path id="m313dabcec8" d="M 0 2.5 
C 0.663008 2.5 1.29895 2.236584 1.767767 1.767767 
C 2.236584 1.29895 2.5 0.663008 2.5 0 
C 2.5 -0.663008 2.236584 -1.29895 1.767767 -1.767767 
C 1.29895 -2.236584 0.663008 -2.5 0 -2.5 
C -0.663008 -2.5 -1.29895 -2.236584 -1.767767 -1.767767 
C -2.236584 -1.29895 -2.5 -0.663008 -2.5 0 
C -2.5 0.663008 -2.236584 1.29895 -1.767767 1.767767 
C -1.29895 2.236584 -0.663008 2.5 0 2.5 
z
" style="stroke: #888888"/>
    </defs>
    <g clip-path="url(#p6c57246a42)">
     <use xlink:href="#m313dabcec8" x="207.568813" y="43.577784" style="fill: #888888; stroke: #888888"/>
    </g>
   </g>
   <g id="line2d_45">
    <g clip-path="url(#p6c57246a42)">
     <use xlink:href="#m753f5de0dd" x="169.834982" y="107.083877" style="fill: #d95f02; stroke: #d95f02"/>
    </g>
   </g>
   <g id="line2d_46">
    <defs>
     <path id="md6a43e5573" d="M 0 2.5 
C 0.663008 2.5 1.29895 2.236584 1.767767 1.767767 
C 2.236584 1.29895 2.5 0.663008 2.5 0 
C 2.5 -0.663008 2.236584 -1.29895 1.767767 -1.767767 
C 1.29895 -2.236584 0.663008 -2.5 0 -2.5 
C -0.663008 -2.5 -1.29895 -2.236584 -1.767767 -1.767767 
C -2.236584 -1.29895 -2.5 -0.663008 -2.5 0 
C -2.5 0.663008 -2.236584 1.29895 -1.767767 1.767767 
C -1.29895 2.236584 -0.663008 2.5 0 2.5 
z
" style="stroke: #1b9e77"/>
    </defs>
    <g clip-path="url(#p6c57246a42)">
     <use xlink:href="#md6a43e5573" x="132.101152" y="58.984588" style="fill-opacity: 0; stroke: #1b9e77"/>
    </g>
   </g>
   <g id="patch_3">
    <path d="M 38.665 132.636625 
L 38.665 32.116625 
" style="fill: none; stroke: #1a1a1a; stroke-width: 0.8; stroke-linejoin: miter; stroke-linecap: square"/>
   </g>
   <g id="patch_4">
    <path d="M 38.665 132.636625 
L 230.92785 132.636625 
" style="fill: none; stroke: #1a1a1a; stroke-width: 0.8; stroke-linejoin: miter; stroke-linecap: square"/>
   </g>
   <g id="text_15">
    <!-- diffusion_policy/pusht -->
    <g style="fill: #1a1a1a; opacity: 0.75" transform="translate(100.220284 50.099504) scale(0.05 -0.05)">
     <defs>
      <path id="DejaVuSerif-69" d="M 622 4353 
Q 622 4497 726 4603 
Q 831 4709 978 4709 
Q 1122 4709 1226 4603 
Q 1331 4497 1331 4353 
Q 1331 4206 1228 4103 
Q 1125 4000 978 4000 
Q 831 4000 726 4103 
Q 622 4206 622 4353 
z
M 1356 331 
L 1900 331 
L 1900 0 
L 231 0 
L 231 331 
L 781 331 
L 781 2988 
L 231 2988 
L 231 3322 
L 1356 3322 
L 1356 331 
z
" transform="scale(0.015625)"/>
      <path id="DejaVuSerif-66" d="M 2753 4078 
L 2450 4078 
Q 2447 4313 2317 4434 
Q 2188 4556 1941 4556 
Q 1619 4556 1487 4379 
Q 1356 4203 1356 3750 
L 1356 3322 
L 2284 3322 
L 2284 2988 
L 1356 2988 
L 1356 331 
L 2094 331 
L 2094 0 
L 231 0 
L 231 331 
L 781 331 
L 781 2988 
L 231 2988 
L 231 3322 
L 781 3322 
L 781 3738 
Q 781 4294 1070 4578 
Q 1359 4863 1919 4863 
Q 2128 4863 2337 4825 
Q 2547 4788 2753 4709 
L 2753 4078 
z
" transform="scale(0.015625)"/>
      <path id="DejaVuSerif-6e" d="M 263 0 
L 263 331 
L 781 331 
L 781 2988 
L 231 2988 
L 231 3322 
L 1356 3322 
L 1356 2731 
Q 1516 3069 1770 3241 
Q 2025 3413 2363 3413 
Q 2913 3413 3172 3097 
Q 3431 2781 3431 2113 
L 3431 331 
L 3944 331 
L 3944 0 
L 2356 0 
L 2356 331 
L 2853 331 
L 2853 1931 
Q 2853 2541 2703 2767 
Q 2553 2994 2175 2994 
Q 1775 2994 1565 2701 
Q 1356 2409 1356 1850 
L 1356 331 
L 1856 331 
L 1856 0 
L 263 0 
z
" transform="scale(0.015625)"/>
      <path id="DejaVuSerif-5f" d="M 3200 -1259 
L 3200 -1509 
L 0 -1509 
L 0 -1259 
L 3200 -1259 
z
" transform="scale(0.015625)"/>
      <path id="DejaVuSerif-79" d="M 1381 -609 
L 1600 -56 
L 359 2988 
L -19 2988 
L -19 3322 
L 1509 3322 
L 1509 2988 
L 978 2988 
L 1913 703 
L 2847 2988 
L 2350 2988 
L 2350 3322 
L 3597 3322 
L 3597 2988 
L 3225 2988 
L 1703 -750 
Q 1547 -1138 1356 -1280 
Q 1166 -1422 819 -1422 
Q 672 -1422 517 -1397 
Q 363 -1372 206 -1325 
L 206 -691 
L 500 -691 
Q 519 -903 608 -995 
Q 697 -1088 884 -1088 
Q 1056 -1088 1161 -992 
Q 1266 -897 1381 -609 
z
" transform="scale(0.015625)"/>
      <path id="DejaVuSerif-2f" d="M 1656 4666 
L 2156 4666 
L 500 -594 
L 0 -594 
L 1656 4666 
z
" transform="scale(0.015625)"/>
      <path id="DejaVuSerif-68" d="M 263 0 
L 263 331 
L 781 331 
L 781 4531 
L 231 4531 
L 231 4863 
L 1356 4863 
L 1356 2731 
Q 1516 3069 1770 3241 
Q 2025 3413 2363 3413 
Q 2913 3413 3172 3097 
Q 3431 2781 3431 2113 
L 3431 331 
L 3944 331 
L 3944 0 
L 2356 0 
L 2356 331 
L 2853 331 
L 2853 1931 
Q 2853 2541 2704 2764 
Q 2556 2988 2175 2988 
Q 1775 2988 1565 2697 
Q 1356 2406 1356 1850 
L 1356 331 
L 1856 331 
L 1856 0 
L 263 0 
z
" transform="scale(0.015625)"/>
     </defs>
     <use xlink:href="#DejaVuSerif-64"/>
     <use xlink:href="#DejaVuSerif-69" transform="translate(64.013672 0)"/>
     <use xlink:href="#DejaVuSerif-66" transform="translate(95.996094 0)"/>
     <use xlink:href="#DejaVuSerif-66" transform="translate(133.007812 0)"/>
     <use xlink:href="#DejaVuSerif-75" transform="translate(170.019531 0)"/>
     <use xlink:href="#DejaVuSerif-73" transform="translate(234.423828 0)"/>
     <use xlink:href="#DejaVuSerif-69" transform="translate(285.742188 0)"/>
     <use xlink:href="#DejaVuSerif-6f" transform="translate(317.724609 0)"/>
     <use xlink:href="#DejaVuSerif-6e" transform="translate(377.929688 0)"/>
     <use xlink:href="#DejaVuSerif-5f" transform="translate(442.333984 0)"/>
     <use xlink:href="#DejaVuSerif-70" transform="translate(492.333984 0)"/>
     <use xlink:href="#DejaVuSerif-6f" transform="translate(556.347656 0)"/>
     <use xlink:href="#DejaVuSerif-6c" transform="translate(616.552734 0)"/>
     <use xlink:href="#DejaVuSerif-69" transform="translate(648.535156 0)"/>
     <use xlink:href="#DejaVuSerif-63" transform="translate(680.517578 0)"/>
     <use xlink:href="#DejaVuSerif-79" transform="translate(736.523438 0)"/>
     <use xlink:href="#DejaVuSerif-2f" transform="translate(793.017578 0)"/>
     <use xlink:href="#DejaVuSerif-70" transform="translate(826.708984 0)"/>
     <use xlink:href="#DejaVuSerif-75" transform="translate(890.722656 0)"/>
     <use xlink:href="#DejaVuSerif-73" transform="translate(955.126953 0)"/>
     <use xlink:href="#DejaVuSerif-68" transform="translate(1006.445312 0)"/>
     <use xlink:href="#DejaVuSerif-74" transform="translate(1070.849609 0)"/>
    </g>
   </g>
   <g id="text_16">
    <!-- act/aloha_transfer_cube (Hub default) -->
    <g style="fill: #1a1a1a; opacity: 0.75" transform="translate(136.101152 125.254644) scale(0.05 -0.05)">
     <defs>
      <path id="DejaVuSerif-62" d="M 738 331 
L 738 4531 
L 184 4531 
L 184 4863 
L 1313 4863 
L 1313 2803 
Q 1481 3116 1742 3264 
Q 2003 3413 2388 3413 
Q 3000 3413 3387 2928 
Q 3775 2444 3775 1663 
Q 3775 881 3387 395 
Q 3000 -91 2388 -91 
Q 2003 -91 1742 57 
Q 1481 206 1313 519 
L 1313 0 
L 184 0 
L 184 331 
L 738 331 
z
M 1313 1497 
Q 1313 897 1542 583 
Q 1772 269 2209 269 
Q 2650 269 2876 622 
Q 3103 975 3103 1663 
Q 3103 2353 2876 2703 
Q 2650 3053 2209 3053 
Q 1772 3053 1542 2737 
Q 1313 2422 1313 1825 
L 1313 1497 
z
" transform="scale(0.015625)"/>
      <path id="DejaVuSerif-48" d="M 353 0 
L 353 331 
L 947 331 
L 947 4331 
L 353 4331 
L 353 4666 
L 2175 4666 
L 2175 4331 
L 1581 4331 
L 1581 2719 
L 4000 2719 
L 4000 4331 
L 3406 4331 
L 3406 4666 
L 5228 4666 
L 5228 4331 
L 4634 4331 
L 4634 331 
L 5228 331 
L 5228 0 
L 3406 0 
L 3406 331 
L 4000 331 
L 4000 2338 
L 1581 2338 
L 1581 331 
L 2175 331 
L 2175 0 
L 353 0 
z
" transform="scale(0.015625)"/>
     </defs>
     <use xlink:href="#DejaVuSerif-61"/>
     <use xlink:href="#DejaVuSerif-63" transform="translate(59.619141 0)"/>
     <use xlink:href="#DejaVuSerif-74" transform="translate(115.625 0)"/>
     <use xlink:href="#DejaVuSerif-2f" transform="translate(155.810547 0)"/>
     <use xlink:href="#DejaVuSerif-61" transform="translate(189.501953 0)"/>
     <use xlink:href="#DejaVuSerif-6c" transform="translate(249.121094 0)"/>
     <use xlink:href="#DejaVuSerif-6f" transform="translate(281.103516 0)"/>
     <use xlink:href="#DejaVuSerif-68" transform="translate(341.308594 0)"/>
     <use xlink:href="#DejaVuSerif-61" transform="translate(405.712891 0)"/>
     <use xlink:href="#DejaVuSerif-5f" transform="translate(465.332031 0)"/>
     <use xlink:href="#DejaVuSerif-74" transform="translate(515.332031 0)"/>
     <use xlink:href="#DejaVuSerif-72" transform="translate(555.517578 0)"/>
     <use xlink:href="#DejaVuSerif-61" transform="translate(603.320312 0)"/>
     <use xlink:href="#DejaVuSerif-6e" transform="translate(662.939453 0)"/>
     <use xlink:href="#DejaVuSerif-73" transform="translate(727.34375 0)"/>
     <use xlink:href="#DejaVuSerif-66" transform="translate(778.662109 0)"/>
     <use xlink:href="#DejaVuSerif-65" transform="translate(815.673828 0)"/>
     <use xlink:href="#DejaVuSerif-72" transform="translate(874.853516 0)"/>
     <use xlink:href="#DejaVuSerif-5f" transform="translate(922.65625 0)"/>
     <use xlink:href="#DejaVuSerif-63" transform="translate(972.65625 0)"/>
     <use xlink:href="#DejaVuSerif-75" transform="translate(1028.662109 0)"/>
     <use xlink:href="#DejaVuSerif-62" transform="translate(1093.066406 0)"/>
     <use xlink:href="#DejaVuSerif-65" transform="translate(1157.080078 0)"/>
     <use xlink:href="#DejaVuSerif-20" transform="translate(1216.259766 0)"/>
     <use xlink:href="#DejaVuSerif-28" transform="translate(1248.046875 0)"/>
     <use xlink:href="#DejaVuSerif-48" transform="translate(1287.060547 0)"/>
     <use xlink:href="#DejaVuSerif-75" transform="translate(1374.267578 0)"/>
     <use xlink:href="#DejaVuSerif-62" transform="translate(1438.671875 0)"/>
     <use xlink:href="#DejaVuSerif-20" transform="translate(1502.685547 0)"/>
     <use xlink:href="#DejaVuSerif-64" transform="translate(1534.472656 0)"/>
     <use xlink:href="#DejaVuSerif-65" transform="translate(1598.486328 0)"/>
     <use xlink:href="#DejaVuSerif-66" transform="translate(1657.666016 0)"/>
     <use xlink:href="#DejaVuSerif-61" transform="translate(1694.677734 0)"/>
     <use xlink:href="#DejaVuSerif-75" transform="translate(1754.296875 0)"/>
     <use xlink:href="#DejaVuSerif-6c" transform="translate(1818.701172 0)"/>
     <use xlink:href="#DejaVuSerif-74" transform="translate(1850.683594 0)"/>
     <use xlink:href="#DejaVuSerif-29" transform="translate(1890.869141 0)"/>
    </g>
   </g>
   <g id="text_17">
    <!-- smolvla_libero/libero_spatial (single-task) -->
    <g style="fill: #1a1a1a; opacity: 0.75" transform="translate(94.604021 53.857261) scale(0.05 -0.05)">
     <defs>
      <path id="DejaVuSerif-76" d="M 1581 0 
L 359 2988 
L -19 2988 
L -19 3322 
L 1509 3322 
L 1509 2988 
L 978 2988 
L 1913 703 
L 2847 2988 
L 2350 2988 
L 2350 3322 
L 3597 3322 
L 3597 2988 
L 3225 2988 
L 2003 0 
L 1581 0 
z
" transform="scale(0.015625)"/>
      <path id="DejaVuSerif-67" d="M 3359 2988 
L 3359 72 
Q 3359 -644 2965 -1033 
Q 2572 -1422 1844 -1422 
Q 1516 -1422 1216 -1362 
Q 916 -1303 641 -1184 
L 641 -488 
L 941 -488 
Q 997 -813 1206 -963 
Q 1416 -1113 1806 -1113 
Q 2313 -1113 2548 -827 
Q 2784 -541 2784 72 
L 2784 519 
Q 2616 206 2355 57 
Q 2094 -91 1709 -91 
Q 1097 -91 708 395 
Q 319 881 319 1663 
Q 319 2444 706 2928 
Q 1094 3413 1709 3413 
Q 2094 3413 2355 3264 
Q 2616 3116 2784 2803 
L 2784 3322 
L 3909 3322 
L 3909 2988 
L 3359 2988 
z
M 2784 1825 
Q 2784 2422 2554 2737 
Q 2325 3053 1888 3053 
Q 1444 3053 1217 2703 
Q 991 2353 991 1663 
Q 991 975 1217 622 
Q 1444 269 1888 269 
Q 2325 269 2554 583 
Q 2784 897 2784 1497 
L 2784 1825 
z
" transform="scale(0.015625)"/>
      <path id="DejaVuSerif-6b" d="M 1831 0 
L 219 0 
L 219 331 
L 738 331 
L 738 4531 
L 184 4531 
L 184 4863 
L 1313 4863 
L 1313 1697 
L 2713 2988 
L 2234 2988 
L 2234 3322 
L 3738 3322 
L 3738 2988 
L 3169 2988 
L 2181 2075 
L 3444 331 
L 3922 331 
L 3922 0 
L 2284 0 
L 2284 331 
L 2759 331 
L 1766 1697 
L 1313 1275 
L 1313 331 
L 1831 331 
L 1831 0 
z
" transform="scale(0.015625)"/>
     </defs>
     <use xlink:href="#DejaVuSerif-73"/>
     <use xlink:href="#DejaVuSerif-6d" transform="translate(51.318359 0)"/>
     <use xlink:href="#DejaVuSerif-6f" transform="translate(146.142578 0)"/>
     <use xlink:href="#DejaVuSerif-6c" transform="translate(206.347656 0)"/>
     <use xlink:href="#DejaVuSerif-76" transform="translate(238.330078 0)"/>
     <use xlink:href="#DejaVuSerif-6c" transform="translate(294.824219 0)"/>
     <use xlink:href="#DejaVuSerif-61" transform="translate(326.806641 0)"/>
     <use xlink:href="#DejaVuSerif-5f" transform="translate(386.425781 0)"/>
     <use xlink:href="#DejaVuSerif-6c" transform="translate(436.425781 0)"/>
     <use xlink:href="#DejaVuSerif-69" transform="translate(468.408203 0)"/>
     <use xlink:href="#DejaVuSerif-62" transform="translate(500.390625 0)"/>
     <use xlink:href="#DejaVuSerif-65" transform="translate(564.404297 0)"/>
     <use xlink:href="#DejaVuSerif-72" transform="translate(623.583984 0)"/>
     <use xlink:href="#DejaVuSerif-6f" transform="translate(671.386719 0)"/>
     <use xlink:href="#DejaVuSerif-2f" transform="translate(731.591797 0)"/>
     <use xlink:href="#DejaVuSerif-6c" transform="translate(765.283203 0)"/>
     <use xlink:href="#DejaVuSerif-69" transform="translate(797.265625 0)"/>
     <use xlink:href="#DejaVuSerif-62" transform="translate(829.248047 0)"/>
     <use xlink:href="#DejaVuSerif-65" transform="translate(893.261719 0)"/>
     <use xlink:href="#DejaVuSerif-72" transform="translate(952.441406 0)"/>
     <use xlink:href="#DejaVuSerif-6f" transform="translate(1000.244141 0)"/>
     <use xlink:href="#DejaVuSerif-5f" transform="translate(1060.449219 0)"/>
     <use xlink:href="#DejaVuSerif-73" transform="translate(1110.449219 0)"/>
     <use xlink:href="#DejaVuSerif-70" transform="translate(1161.767578 0)"/>
     <use xlink:href="#DejaVuSerif-61" transform="translate(1225.78125 0)"/>
     <use xlink:href="#DejaVuSerif-74" transform="translate(1285.400391 0)"/>
     <use xlink:href="#DejaVuSerif-69" transform="translate(1325.585938 0)"/>
     <use xlink:href="#DejaVuSerif-61" transform="translate(1357.568359 0)"/>
     <use xlink:href="#DejaVuSerif-6c" transform="translate(1417.1875 0)"/>
     <use xlink:href="#DejaVuSerif-20" transform="translate(1449.169922 0)"/>
     <use xlink:href="#DejaVuSerif-28" transform="translate(1480.957031 0)"/>
     <use xlink:href="#DejaVuSerif-73" transform="translate(1519.970703 0)"/>
     <use xlink:href="#DejaVuSerif-69" transform="translate(1571.289062 0)"/>
     <use xlink:href="#DejaVuSerif-6e" transform="translate(1603.271484 0)"/>
     <use xlink:href="#DejaVuSerif-67" transform="translate(1667.675781 0)"/>
     <use xlink:href="#DejaVuSerif-6c" transform="translate(1731.689453 0)"/>
     <use xlink:href="#DejaVuSerif-65" transform="translate(1763.671875 0)"/>
     <use xlink:href="#DejaVuSerif-2d" transform="translate(1822.851562 0)"/>
     <use xlink:href="#DejaVuSerif-74" transform="translate(1856.640625 0)"/>
     <use xlink:href="#DejaVuSerif-61" transform="translate(1896.826172 0)"/>
     <use xlink:href="#DejaVuSerif-73" transform="translate(1956.445312 0)"/>
     <use xlink:href="#DejaVuSerif-6b" transform="translate(2007.763672 0)"/>
     <use xlink:href="#DejaVuSerif-29" transform="translate(2068.359375 0)"/>
    </g>
   </g>
   <g id="text_18">
    <!-- smolvla_libero/libero_object (single-task) -->
    <g style="fill: #1a1a1a; opacity: 0.75" transform="translate(106.792146 77.155354) scale(0.05 -0.05)">
     <defs>
      <path id="DejaVuSerif-6a" d="M 641 4353 
Q 641 4497 745 4603 
Q 850 4709 997 4709 
Q 1141 4709 1245 4603 
Q 1350 4497 1350 4353 
Q 1350 4206 1248 4103 
Q 1147 4000 997 4000 
Q 850 4000 745 4103 
Q 641 4206 641 4353 
z
M 781 2988 
L 238 2988 
L 238 3322 
L 1356 3322 
L 1356 -325 
Q 1356 -838 1051 -1130 
Q 747 -1422 213 -1422 
Q -13 -1422 -217 -1370 
Q -422 -1319 -616 -1216 
L -616 -531 
L -319 -531 
Q -297 -831 -164 -972 
Q -31 -1113 225 -1113 
Q 509 -1113 645 -920 
Q 781 -728 781 -325 
L 781 2988 
z
" transform="scale(0.015625)"/>
     </defs>
     <use xlink:href="#DejaVuSerif-73"/>
     <use xlink:href="#DejaVuSerif-6d" transform="translate(51.318359 0)"/>
     <use xlink:href="#DejaVuSerif-6f" transform="translate(146.142578 0)"/>
     <use xlink:href="#DejaVuSerif-6c" transform="translate(206.347656 0)"/>
     <use xlink:href="#DejaVuSerif-76" transform="translate(238.330078 0)"/>
     <use xlink:href="#DejaVuSerif-6c" transform="translate(294.824219 0)"/>
     <use xlink:href="#DejaVuSerif-61" transform="translate(326.806641 0)"/>
     <use xlink:href="#DejaVuSerif-5f" transform="translate(386.425781 0)"/>
     <use xlink:href="#DejaVuSerif-6c" transform="translate(436.425781 0)"/>
     <use xlink:href="#DejaVuSerif-69" transform="translate(468.408203 0)"/>
     <use xlink:href="#DejaVuSerif-62" transform="translate(500.390625 0)"/>
     <use xlink:href="#DejaVuSerif-65" transform="translate(564.404297 0)"/>
     <use xlink:href="#DejaVuSerif-72" transform="translate(623.583984 0)"/>
     <use xlink:href="#DejaVuSerif-6f" transform="translate(671.386719 0)"/>
     <use xlink:href="#DejaVuSerif-2f" transform="translate(731.591797 0)"/>
     <use xlink:href="#DejaVuSerif-6c" transform="translate(765.283203 0)"/>
     <use xlink:href="#DejaVuSerif-69" transform="translate(797.265625 0)"/>
     <use xlink:href="#DejaVuSerif-62" transform="translate(829.248047 0)"/>
     <use xlink:href="#DejaVuSerif-65" transform="translate(893.261719 0)"/>
     <use xlink:href="#DejaVuSerif-72" transform="translate(952.441406 0)"/>
     <use xlink:href="#DejaVuSerif-6f" transform="translate(1000.244141 0)"/>
     <use xlink:href="#DejaVuSerif-5f" transform="translate(1060.449219 0)"/>
     <use xlink:href="#DejaVuSerif-6f" transform="translate(1110.449219 0)"/>
     <use xlink:href="#DejaVuSerif-62" transform="translate(1170.654297 0)"/>
     <use xlink:href="#DejaVuSerif-6a" transform="translate(1234.667969 0)"/>
     <use xlink:href="#DejaVuSerif-65" transform="translate(1265.673828 0)"/>
     <use xlink:href="#DejaVuSerif-63" transform="translate(1324.853516 0)"/>
     <use xlink:href="#DejaVuSerif-74" transform="translate(1380.859375 0)"/>
     <use xlink:href="#DejaVuSerif-20" transform="translate(1421.044922 0)"/>
     <use xlink:href="#DejaVuSerif-28" transform="translate(1452.832031 0)"/>
     <use xlink:href="#DejaVuSerif-73" transform="translate(1491.845703 0)"/>
     <use xlink:href="#DejaVuSerif-69" transform="translate(1543.164062 0)"/>
     <use xlink:href="#DejaVuSerif-6e" transform="translate(1575.146484 0)"/>
     <use xlink:href="#DejaVuSerif-67" transform="translate(1639.550781 0)"/>
     <use xlink:href="#DejaVuSerif-6c" transform="translate(1703.564453 0)"/>
     <use xlink:href="#DejaVuSerif-65" transform="translate(1735.546875 0)"/>
     <use xlink:href="#DejaVuSerif-2d" transform="translate(1794.726562 0)"/>
     <use xlink:href="#DejaVuSerif-74" transform="translate(1828.515625 0)"/>
     <use xlink:href="#DejaVuSerif-61" transform="translate(1868.701172 0)"/>
     <use xlink:href="#DejaVuSerif-73" transform="translate(1928.320312 0)"/>
     <use xlink:href="#DejaVuSerif-6b" transform="translate(1979.638672 0)"/>
     <use xlink:href="#DejaVuSerif-29" transform="translate(2040.234375 0)"/>
    </g>
   </g>
   <g id="text_19">
    <!-- smolvla_libero/libero_goal (single-task) -->
    <g style="fill: #1a1a1a; opacity: 0.75" transform="translate(104.343031 39.577784) scale(0.05 -0.05)">
     <use xlink:href="#DejaVuSerif-73"/>
     <use xlink:href="#DejaVuSerif-6d" transform="translate(51.318359 0)"/>
     <use xlink:href="#DejaVuSerif-6f" transform="translate(146.142578 0)"/>
     <use xlink:href="#DejaVuSerif-6c" transform="translate(206.347656 0)"/>
     <use xlink:href="#DejaVuSerif-76" transform="translate(238.330078 0)"/>
     <use xlink:href="#DejaVuSerif-6c" transform="translate(294.824219 0)"/>
     <use xlink:href="#DejaVuSerif-61" transform="translate(326.806641 0)"/>
     <use xlink:href="#DejaVuSerif-5f" transform="translate(386.425781 0)"/>
     <use xlink:href="#DejaVuSerif-6c" transform="translate(436.425781 0)"/>
     <use xlink:href="#DejaVuSerif-69" transform="translate(468.408203 0)"/>
     <use xlink:href="#DejaVuSerif-62" transform="translate(500.390625 0)"/>
     <use xlink:href="#DejaVuSerif-65" transform="translate(564.404297 0)"/>
     <use xlink:href="#DejaVuSerif-72" transform="translate(623.583984 0)"/>
     <use xlink:href="#DejaVuSerif-6f" transform="translate(671.386719 0)"/>
     <use xlink:href="#DejaVuSerif-2f" transform="translate(731.591797 0)"/>
     <use xlink:href="#DejaVuSerif-6c" transform="translate(765.283203 0)"/>
     <use xlink:href="#DejaVuSerif-69" transform="translate(797.265625 0)"/>
     <use xlink:href="#DejaVuSerif-62" transform="translate(829.248047 0)"/>
     <use xlink:href="#DejaVuSerif-65" transform="translate(893.261719 0)"/>
     <use xlink:href="#DejaVuSerif-72" transform="translate(952.441406 0)"/>
     <use xlink:href="#DejaVuSerif-6f" transform="translate(1000.244141 0)"/>
     <use xlink:href="#DejaVuSerif-5f" transform="translate(1060.449219 0)"/>
     <use xlink:href="#DejaVuSerif-67" transform="translate(1110.449219 0)"/>
     <use xlink:href="#DejaVuSerif-6f" transform="translate(1174.462891 0)"/>
     <use xlink:href="#DejaVuSerif-61" transform="translate(1234.667969 0)"/>
     <use xlink:href="#DejaVuSerif-6c" transform="translate(1294.287109 0)"/>
     <use xlink:href="#DejaVuSerif-20" transform="translate(1326.269531 0)"/>
     <use xlink:href="#DejaVuSerif-28" transform="translate(1358.056641 0)"/>
     <use xlink:href="#DejaVuSerif-73" transform="translate(1397.070312 0)"/>
     <use xlink:href="#DejaVuSerif-69" transform="translate(1448.388672 0)"/>
     <use xlink:href="#DejaVuSerif-6e" transform="translate(1480.371094 0)"/>
     <use xlink:href="#DejaVuSerif-67" transform="translate(1544.775391 0)"/>
     <use xlink:href="#DejaVuSerif-6c" transform="translate(1608.789062 0)"/>
     <use xlink:href="#DejaVuSerif-65" transform="translate(1640.771484 0)"/>
     <use xlink:href="#DejaVuSerif-2d" transform="translate(1699.951172 0)"/>
     <use xlink:href="#DejaVuSerif-74" transform="translate(1733.740234 0)"/>
     <use xlink:href="#DejaVuSerif-61" transform="translate(1773.925781 0)"/>
     <use xlink:href="#DejaVuSerif-73" transform="translate(1833.544922 0)"/>
     <use xlink:href="#DejaVuSerif-6b" transform="translate(1884.863281 0)"/>
     <use xlink:href="#DejaVuSerif-29" transform="translate(1945.458984 0)"/>
    </g>
   </g>
   <g id="text_20">
    <!-- smolvla_libero/libero_10 (single-task) -->
    <g style="fill: #1a1a1a; opacity: 0.75" transform="translate(71.038107 103.083877) scale(0.05 -0.05)">
     <use xlink:href="#DejaVuSerif-73"/>
     <use xlink:href="#DejaVuSerif-6d" transform="translate(51.318359 0)"/>
     <use xlink:href="#DejaVuSerif-6f" transform="translate(146.142578 0)"/>
     <use xlink:href="#DejaVuSerif-6c" transform="translate(206.347656 0)"/>
     <use xlink:href="#DejaVuSerif-76" transform="translate(238.330078 0)"/>
     <use xlink:href="#DejaVuSerif-6c" transform="translate(294.824219 0)"/>
     <use xlink:href="#DejaVuSerif-61" transform="translate(326.806641 0)"/>
     <use xlink:href="#DejaVuSerif-5f" transform="translate(386.425781 0)"/>
     <use xlink:href="#DejaVuSerif-6c" transform="translate(436.425781 0)"/>
     <use xlink:href="#DejaVuSerif-69" transform="translate(468.408203 0)"/>
     <use xlink:href="#DejaVuSerif-62" transform="translate(500.390625 0)"/>
     <use xlink:href="#DejaVuSerif-65" transform="translate(564.404297 0)"/>
     <use xlink:href="#DejaVuSerif-72" transform="translate(623.583984 0)"/>
     <use xlink:href="#DejaVuSerif-6f" transform="translate(671.386719 0)"/>
     <use xlink:href="#DejaVuSerif-2f" transform="translate(731.591797 0)"/>
     <use xlink:href="#DejaVuSerif-6c" transform="translate(765.283203 0)"/>
     <use xlink:href="#DejaVuSerif-69" transform="translate(797.265625 0)"/>
     <use xlink:href="#DejaVuSerif-62" transform="translate(829.248047 0)"/>
     <use xlink:href="#DejaVuSerif-65" transform="translate(893.261719 0)"/>
     <use xlink:href="#DejaVuSerif-72" transform="translate(952.441406 0)"/>
     <use xlink:href="#DejaVuSerif-6f" transform="translate(1000.244141 0)"/>
     <use xlink:href="#DejaVuSerif-5f" transform="translate(1060.449219 0)"/>
     <use xlink:href="#DejaVuSerif-31" transform="translate(1110.449219 0)"/>
     <use xlink:href="#DejaVuSerif-30" transform="translate(1174.072266 0)"/>
     <use xlink:href="#DejaVuSerif-20" transform="translate(1237.695312 0)"/>
     <use xlink:href="#DejaVuSerif-28" transform="translate(1269.482422 0)"/>
     <use xlink:href="#DejaVuSerif-73" transform="translate(1308.496094 0)"/>
     <use xlink:href="#DejaVuSerif-69" transform="translate(1359.814453 0)"/>
     <use xlink:href="#DejaVuSerif-6e" transform="translate(1391.796875 0)"/>
     <use xlink:href="#DejaVuSerif-67" transform="translate(1456.201172 0)"/>
     <use xlink:href="#DejaVuSerif-6c" transform="translate(1520.214844 0)"/>
     <use xlink:href="#DejaVuSerif-65" transform="translate(1552.197266 0)"/>
     <use xlink:href="#DejaVuSerif-2d" transform="translate(1611.376953 0)"/>
     <use xlink:href="#DejaVuSerif-74" transform="translate(1645.166016 0)"/>
     <use xlink:href="#DejaVuSerif-61" transform="translate(1685.351562 0)"/>
     <use xlink:href="#DejaVuSerif-73" transform="translate(1744.970703 0)"/>
     <use xlink:href="#DejaVuSerif-6b" transform="translate(1796.289062 0)"/>
     <use xlink:href="#DejaVuSerif-29" transform="translate(1856.884766 0)"/>
    </g>
   </g>
   <g id="text_21">
    <!-- act/aloha (paper settings) -->
    <g style="fill: #1a1a1a; opacity: 0.75" transform="translate(136.101152 54.984588) scale(0.05 -0.05)">
     <use xlink:href="#DejaVuSerif-61"/>
     <use xlink:href="#DejaVuSerif-63" transform="translate(59.619141 0)"/>
     <use xlink:href="#DejaVuSerif-74" transform="translate(115.625 0)"/>
     <use xlink:href="#DejaVuSerif-2f" transform="translate(155.810547 0)"/>
     <use xlink:href="#DejaVuSerif-61" transform="translate(189.501953 0)"/>
     <use xlink:href="#DejaVuSerif-6c" transform="translate(249.121094 0)"/>
     <use xlink:href="#DejaVuSerif-6f" transform="translate(281.103516 0)"/>
     <use xlink:href="#DejaVuSerif-68" transform="translate(341.308594 0)"/>
     <use xlink:href="#DejaVuSerif-61" transform="translate(405.712891 0)"/>
     <use xlink:href="#DejaVuSerif-20" transform="translate(465.332031 0)"/>
     <use xlink:href="#DejaVuSerif-28" transform="translate(497.119141 0)"/>
     <use xlink:href="#DejaVuSerif-70" transform="translate(536.132812 0)"/>
     <use xlink:href="#DejaVuSerif-61" transform="translate(600.146484 0)"/>
     <use xlink:href="#DejaVuSerif-70" transform="translate(659.765625 0)"/>
     <use xlink:href="#DejaVuSerif-65" transform="translate(723.779297 0)"/>
     <use xlink:href="#DejaVuSerif-72" transform="translate(782.958984 0)"/>
     <use xlink:href="#DejaVuSerif-20" transform="translate(830.761719 0)"/>
     <use xlink:href="#DejaVuSerif-73" transform="translate(862.548828 0)"/>
     <use xlink:href="#DejaVuSerif-65" transform="translate(913.867188 0)"/>
     <use xlink:href="#DejaVuSerif-74" transform="translate(973.046875 0)"/>
     <use xlink:href="#DejaVuSerif-74" transform="translate(1013.232422 0)"/>
     <use xlink:href="#DejaVuSerif-69" transform="translate(1053.417969 0)"/>
     <use xlink:href="#DejaVuSerif-6e" transform="translate(1085.400391 0)"/>
     <use xlink:href="#DejaVuSerif-67" transform="translate(1149.804688 0)"/>
     <use xlink:href="#DejaVuSerif-73" transform="translate(1213.818359 0)"/>
     <use xlink:href="#DejaVuSerif-29" transform="translate(1265.136719 0)"/>
    </g>
   </g>
   <g id="text_22">
    <!-- Paper-reported vs measured (N=250 each) -->
    <g style="fill: #1a1a1a" transform="translate(36.502363 14.038594) scale(0.09 -0.09)">
     <defs>
      <path id="DejaVuSerif-50" d="M 1581 2375 
L 2406 2375 
Q 2872 2375 3115 2626 
Q 3359 2878 3359 3353 
Q 3359 3831 3115 4081 
Q 2872 4331 2406 4331 
L 1581 4331 
L 1581 2375 
z
M 353 0 
L 353 331 
L 947 331 
L 947 4331 
L 353 4331 
L 353 4666 
L 2559 4666 
Q 3259 4666 3668 4311 
Q 4078 3956 4078 3353 
Q 4078 2753 3668 2397 
Q 3259 2041 2559 2041 
L 1581 2041 
L 1581 331 
L 2303 331 
L 2303 0 
L 353 0 
z
" transform="scale(0.015625)"/>
     </defs>
     <use xlink:href="#DejaVuSerif-50"/>
     <use xlink:href="#DejaVuSerif-61" transform="translate(62.785156 0)"/>
     <use xlink:href="#DejaVuSerif-70" transform="translate(122.404297 0)"/>
     <use xlink:href="#DejaVuSerif-65" transform="translate(186.417969 0)"/>
     <use xlink:href="#DejaVuSerif-72" transform="translate(245.597656 0)"/>
     <use xlink:href="#DejaVuSerif-2d" transform="translate(293.400391 0)"/>
     <use xlink:href="#DejaVuSerif-72" transform="translate(327.189453 0)"/>
     <use xlink:href="#DejaVuSerif-65" transform="translate(374.992188 0)"/>
     <use xlink:href="#DejaVuSerif-70" transform="translate(434.171875 0)"/>
     <use xlink:href="#DejaVuSerif-6f" transform="translate(498.185547 0)"/>
     <use xlink:href="#DejaVuSerif-72" transform="translate(558.390625 0)"/>
     <use xlink:href="#DejaVuSerif-74" transform="translate(606.193359 0)"/>
     <use xlink:href="#DejaVuSerif-65" transform="translate(646.378906 0)"/>
     <use xlink:href="#DejaVuSerif-64" transform="translate(705.558594 0)"/>
     <use xlink:href="#DejaVuSerif-20" transform="translate(769.572266 0)"/>
     <use xlink:href="#DejaVuSerif-76" transform="translate(801.359375 0)"/>
     <use xlink:href="#DejaVuSerif-73" transform="translate(857.853516 0)"/>
     <use xlink:href="#DejaVuSerif-20" transform="translate(909.171875 0)"/>
     <use xlink:href="#DejaVuSerif-6d" transform="translate(940.958984 0)"/>
     <use xlink:href="#DejaVuSerif-65" transform="translate(1035.783203 0)"/>
     <use xlink:href="#DejaVuSerif-61" transform="translate(1094.962891 0)"/>
     <use xlink:href="#DejaVuSerif-73" transform="translate(1154.582031 0)"/>
     <use xlink:href="#DejaVuSerif-75" transform="translate(1205.900391 0)"/>
     <use xlink:href="#DejaVuSerif-72" transform="translate(1270.304688 0)"/>
     <use xlink:href="#DejaVuSerif-65" transform="translate(1318.107422 0)"/>
     <use xlink:href="#DejaVuSerif-64" transform="translate(1377.287109 0)"/>
     <use xlink:href="#DejaVuSerif-20" transform="translate(1441.300781 0)"/>
     <use xlink:href="#DejaVuSerif-28" transform="translate(1473.087891 0)"/>
     <use xlink:href="#DejaVuSerif-4e" transform="translate(1512.101562 0)"/>
     <use xlink:href="#DejaVuSerif-3d" transform="translate(1599.601562 0)"/>
     <use xlink:href="#DejaVuSerif-32" transform="translate(1683.390625 0)"/>
     <use xlink:href="#DejaVuSerif-35" transform="translate(1747.013672 0)"/>
     <use xlink:href="#DejaVuSerif-30" transform="translate(1810.636719 0)"/>
     <use xlink:href="#DejaVuSerif-20" transform="translate(1874.259766 0)"/>
     <use xlink:href="#DejaVuSerif-65" transform="translate(1906.046875 0)"/>
     <use xlink:href="#DejaVuSerif-61" transform="translate(1965.226562 0)"/>
     <use xlink:href="#DejaVuSerif-63" transform="translate(2024.845703 0)"/>
     <use xlink:href="#DejaVuSerif-68" transform="translate(2080.851562 0)"/>
     <use xlink:href="#DejaVuSerif-29" transform="translate(2145.255859 0)"/>
    </g>
    <!-- grey = inside MDE band; hollow = ACT paper settings -->
    <g style="fill: #1a1a1a" transform="translate(10.03955 24.116625) scale(0.09 -0.09)">
     <defs>
      <path id="DejaVuSerif-4d" d="M 353 0 
L 353 331 
L 947 331 
L 947 4331 
L 319 4331 
L 319 4666 
L 1678 4666 
L 3316 1344 
L 4953 4666 
L 6228 4666 
L 6228 4331 
L 5606 4331 
L 5606 331 
L 6203 331 
L 6203 0 
L 4378 0 
L 4378 331 
L 4972 331 
L 4972 3938 
L 3372 684 
L 2931 684 
L 1331 3938 
L 1331 331 
L 1925 331 
L 1925 0 
L 353 0 
z
" transform="scale(0.015625)"/>
      <path id="DejaVuSerif-44" d="M 1581 331 
L 2163 331 
Q 3072 331 3558 850 
Q 4044 1369 4044 2338 
Q 4044 3306 3559 3818 
Q 3075 4331 2163 4331 
L 1581 4331 
L 1581 331 
z
M 353 0 
L 353 331 
L 947 331 
L 947 4331 
L 353 4331 
L 353 4666 
L 2209 4666 
Q 3416 4666 4089 4050 
Q 4763 3434 4763 2338 
Q 4763 1238 4088 619 
Q 3413 0 2209 0 
L 353 0 
z
" transform="scale(0.015625)"/>
      <path id="DejaVuSerif-45" d="M 353 0 
L 353 331 
L 947 331 
L 947 4331 
L 353 4331 
L 353 4666 
L 4109 4666 
L 4109 3628 
L 3725 3628 
L 3725 4281 
L 1581 4281 
L 1581 2719 
L 3109 2719 
L 3109 3303 
L 3494 3303 
L 3494 1753 
L 3109 1753 
L 3109 2338 
L 1581 2338 
L 1581 384 
L 3775 384 
L 3775 1038 
L 4159 1038 
L 4159 0 
L 353 0 
z
" transform="scale(0.015625)"/>
      <path id="DejaVuSerif-3b" d="M 231 -622 
Q 525 -406 662 -114 
Q 800 178 800 594 
L 800 709 
L 1416 709 
Q 1391 175 1164 -208 
Q 938 -591 481 -872 
L 231 -622 
z
M 678 2363 
Q 678 2538 798 2658 
Q 919 2778 1094 2778 
Q 1269 2778 1389 2656 
Q 1509 2534 1509 2363 
Q 1509 2188 1389 2067 
Q 1269 1947 1094 1947 
Q 919 1947 798 2067 
Q 678 2188 678 2363 
z
" transform="scale(0.015625)"/>
      <path id="DejaVuSerif-77" d="M 3072 3322 
L 3922 728 
L 4672 2988 
L 4191 2988 
L 4191 3322 
L 5394 3322 
L 5394 2988 
L 5025 2988 
L 4038 0 
L 3559 0 
L 2741 2484 
L 1919 0 
L 1459 0 
L 475 2988 
L 103 2988 
L 103 3322 
L 1606 3322 
L 1606 2988 
L 1069 2988 
L 1813 728 
L 2669 3322 
L 3072 3322 
z
" transform="scale(0.015625)"/>
      <path id="DejaVuSerif-41" d="M 1281 1691 
L 2994 1691 
L 2138 3909 
L 1281 1691 
z
M -38 0 
L -38 331 
L 372 331 
L 2034 4666 
L 2559 4666 
L 4225 331 
L 4684 331 
L 4684 0 
L 2988 0 
L 2988 331 
L 3506 331 
L 3116 1356 
L 1153 1356 
L 763 331 
L 1275 331 
L 1275 0 
L -38 0 
z
" transform="scale(0.015625)"/>
      <path id="DejaVuSerif-43" d="M 4513 1234 
Q 4306 581 3820 245 
Q 3334 -91 2591 -91 
Q 2134 -91 1743 65 
Q 1353 222 1050 525 
Q 700 875 529 1320 
Q 359 1766 359 2328 
Q 359 3416 987 4083 
Q 1616 4750 2644 4750 
Q 3025 4750 3456 4650 
Q 3888 4550 4384 4347 
L 4384 3272 
L 4031 3272 
Q 3916 3859 3567 4137 
Q 3219 4416 2591 4416 
Q 1844 4416 1459 3886 
Q 1075 3356 1075 2328 
Q 1075 1303 1459 773 
Q 1844 244 2591 244 
Q 3113 244 3450 492 
Q 3788 741 3938 1234 
L 4513 1234 
z
" transform="scale(0.015625)"/>
      <path id="DejaVuSerif-54" d="M 1222 0 
L 1222 331 
L 1819 331 
L 1819 4294 
L 447 4294 
L 447 3566 
L 63 3566 
L 63 4666 
L 4206 4666 
L 4206 3566 
L 3822 3566 
L 3822 4294 
L 2450 4294 
L 2450 331 
L 3047 331 
L 3047 0 
L 1222 0 
z
" transform="scale(0.015625)"/>
     </defs>
     <use xlink:href="#DejaVuSerif-67"/>
     <use xlink:href="#DejaVuSerif-72" transform="translate(64.013672 0)"/>
     <use xlink:href="#DejaVuSerif-65" transform="translate(111.816406 0)"/>
     <use xlink:href="#DejaVuSerif-79" transform="translate(170.996094 0)"/>
     <use xlink:href="#DejaVuSerif-20" transform="translate(227.490234 0)"/>
     <use xlink:href="#DejaVuSerif-3d" transform="translate(259.277344 0)"/>
     <use xlink:href="#DejaVuSerif-20" transform="translate(343.066406 0)"/>
     <use xlink:href="#DejaVuSerif-69" transform="translate(374.853516 0)"/>
     <use xlink:href="#DejaVuSerif-6e" transform="translate(406.835938 0)"/>
     <use xlink:href="#DejaVuSerif-73" transform="translate(471.240234 0)"/>
     <use xlink:href="#DejaVuSerif-69" transform="translate(522.558594 0)"/>
     <use xlink:href="#DejaVuSerif-64" transform="translate(554.541016 0)"/>
     <use xlink:href="#DejaVuSerif-65" transform="translate(618.554688 0)"/>
     <use xlink:href="#DejaVuSerif-20" transform="translate(677.734375 0)"/>
     <use xlink:href="#DejaVuSerif-4d" transform="translate(709.521484 0)"/>
     <use xlink:href="#DejaVuSerif-44" transform="translate(811.914062 0)"/>
     <use xlink:href="#DejaVuSerif-45" transform="translate(892.089844 0)"/>
     <use xlink:href="#DejaVuSerif-20" transform="translate(965.087891 0)"/>
     <use xlink:href="#DejaVuSerif-62" transform="translate(996.875 0)"/>
     <use xlink:href="#DejaVuSerif-61" transform="translate(1060.888672 0)"/>
     <use xlink:href="#DejaVuSerif-6e" transform="translate(1120.507812 0)"/>
     <use xlink:href="#DejaVuSerif-64" transform="translate(1184.912109 0)"/>
     <use xlink:href="#DejaVuSerif-3b" transform="translate(1248.925781 0)"/>
     <use xlink:href="#DejaVuSerif-20" transform="translate(1282.617188 0)"/>
     <use xlink:href="#DejaVuSerif-68" transform="translate(1314.404297 0)"/>
     <use xlink:href="#DejaVuSerif-6f" transform="translate(1378.808594 0)"/>
     <use xlink:href="#DejaVuSerif-6c" transform="translate(1439.013672 0)"/>
     <use xlink:href="#DejaVuSerif-6c" transform="translate(1470.996094 0)"/>
     <use xlink:href="#DejaVuSerif-6f" transform="translate(1502.978516 0)"/>
     <use xlink:href="#DejaVuSerif-77" transform="translate(1563.183594 0)"/>
     <use xlink:href="#DejaVuSerif-20" transform="translate(1648.779297 0)"/>
     <use xlink:href="#DejaVuSerif-3d" transform="translate(1680.566406 0)"/>
     <use xlink:href="#DejaVuSerif-20" transform="translate(1764.355469 0)"/>
     <use xlink:href="#DejaVuSerif-41" transform="translate(1796.142578 0)"/>
     <use xlink:href="#DejaVuSerif-43" transform="translate(1868.359375 0)"/>
     <use xlink:href="#DejaVuSerif-54" transform="translate(1944.873047 0)"/>
     <use xlink:href="#DejaVuSerif-20" transform="translate(2011.572266 0)"/>
     <use xlink:href="#DejaVuSerif-70" transform="translate(2043.359375 0)"/>
     <use xlink:href="#DejaVuSerif-61" transform="translate(2107.373047 0)"/>
     <use xlink:href="#DejaVuSerif-70" transform="translate(2166.992188 0)"/>
     <use xlink:href="#DejaVuSerif-65" transform="translate(2231.005859 0)"/>
     <use xlink:href="#DejaVuSerif-72" transform="translate(2290.185547 0)"/>
     <use xlink:href="#DejaVuSerif-20" transform="translate(2337.988281 0)"/>
     <use xlink:href="#DejaVuSerif-73" transform="translate(2369.775391 0)"/>
     <use xlink:href="#DejaVuSerif-65" transform="translate(2421.09375 0)"/>
     <use xlink:href="#DejaVuSerif-74" transform="translate(2480.273438 0)"/>
     <use xlink:href="#DejaVuSerif-74" transform="translate(2520.458984 0)"/>
     <use xlink:href="#DejaVuSerif-69" transform="translate(2560.644531 0)"/>
     <use xlink:href="#DejaVuSerif-6e" transform="translate(2592.626953 0)"/>
     <use xlink:href="#DejaVuSerif-67" transform="translate(2657.03125 0)"/>
     <use xlink:href="#DejaVuSerif-73" transform="translate(2721.044922 0)"/>
    </g>
   </g>
  </g>
 </g>
 <defs>
  <clipPath id="p6c57246a42">
   <rect x="38.665" y="32.116625" width="192.26285" height="100.52"/>
  </clipPath>
 </defs>
</svg>
