<?xml version="1.0" encoding="utf-8" standalone="no"?>
<!DOCTYPE svg PUBLIC "-//W3C//DTD SVG 1.1//EN"
  "http://www.w3.org/Graphics/SVG/1.1/DTD/svg11.dtd">
<svg xmlns:xlink="http://www.w3.org/1999/xlink" width="331.034062pt" height="177.843594pt" viewBox="0 0 331.034062 177.843594" xmlns="http://www.w3.org/2000/svg" version="1.1">
 <metadata>
  <rdf:RDF xmlns:dc="http://purl.org/dc/elements/1.1/" xmlns:cc="http://creativecommons.org/ns#" xmlns:rdf="http://www.w3.org/1999/02/22-rdf-syntax-ns#">
   <cc:Work>
    <dc:type rdf:resource="http://purl.org/dc/dcmitype/StillImage"/>
    <dc:date>2026-05-27T15:20:36.539797</dc:date>
    <dc:format>image/svg+xml</dc:format>
    <dc:creator>
     <cc:Agent>
      <dc:title>Matplotlib v3.10.8, https://matplotlib.org/</dc:title>
     </cc:Agent>
    </dc:creator>
   </cc:Work>
  </rdf:RDF>
 </metadata>
 <defs>
  <style type="text/css">*{stroke-linejoin: round; stroke-linecap: butt}</style>
 </defs>
 <g id="figure_1">
  <g id="patch_1">
   <path d="M 0 177.843594 
L 331.034062 177.843594 
L 331.034062 0 
L 0 0 
z
" style="fill: #ffffff"/>
  </g>
  <g id="axes_1">
   <g id="patch_2">
    <path d="M 93.41098 144.158594 
L 237.623083 144.158594 
L 237.623083 20.038594 
L 93.41098 20.038594 
z
" style="fill: #ffffff"/>
   </g>
   <g id="matplotlib.axis_1">
    <g id="xtick_1">
     <g id="line2d_1">
      <path d="M 96.106533 144.158594 
L 96.106533 20.038594 
" clip-path="url(#pd8329368c0)" style="fill: none; stroke-dasharray: 0.8,1.32; stroke-dashoffset: 0; stroke: #b0b0b0; stroke-opacity: 0.25; stroke-width: 0.8"/>
     </g>
     <g id="line2d_2">
      <defs>
       <path id="m3765da93c0" d="M 0 0 
L 0 3.5 
" style="stroke: #1a1a1a; stroke-width: 0.8"/>
      </defs>
      <g>
       <use xlink:href="#m3765da93c0" x="96.106533" y="144.158594" style="fill: #1a1a1a; stroke: #1a1a1a; stroke-width: 0.8"/>
      </g>
     </g>
     <g id="text_1">
      <!-- 0.0 -->
      <g style="fill: #1a1a1a" transform="translate(89.745283 157.237344) scale(0.08 -0.08)">
       <defs>
        <path id="DejaVuSerif-30" d="M 2034 219 
Q 2513 219 2750 744 
Q 2988 1269 2988 2328 
Q 2988 3391 2750 3916 
Q 2513 4441 2034 4441 
Q 1556 4441 1318 3916 
Q 1081 3391 1081 2328 
Q 1081 1269 1318 744 
Q 1556 219 2034 219 
z
M 2034 -91 
Q 1275 -91 848 546 
Q 422 1184 422 2328 
Q 422 3475 848 4112 
Q 1275 4750 2034 4750 
Q 2797 4750 3222 4112 
Q 3647 3475 3647 2328 
Q 3647 1184 3222 546 
Q 2797 -91 2034 -91 
z
" transform="scale(0.015625)"/>
        <path id="DejaVuSerif-2e" d="M 603 325 
Q 603 500 722 622 
Q 841 744 1019 744 
Q 1191 744 1312 622 
Q 1434 500 1434 325 
Q 1434 153 1312 31 
Q 1191 -91 1019 -91 
Q 841 -91 722 29 
Q 603 150 603 325 
z
" transform="scale(0.015625)"/>
       </defs>
       <use xlink:href="#DejaVuSerif-30"/>
       <use xlink:href="#DejaVuSerif-2e" transform="translate(63.623047 0)"/>
       <use xlink:href="#DejaVuSerif-30" transform="translate(95.410156 0)"/>
      </g>
     </g>
    </g>
    <g id="xtick_2">
     <g id="line2d_3">
      <path d="M 123.062066 144.158594 
L 123.062066 20.038594 
" clip-path="url(#pd8329368c0)" style="fill: none; stroke-dasharray: 0.8,1.32; stroke-dashoffset: 0; stroke: #b0b0b0; stroke-opacity: 0.25; stroke-width: 0.8"/>
     </g>
     <g id="line2d_4">
      <g>
       <use xlink:href="#m3765da93c0" x="123.062066" y="144.158594" style="fill: #1a1a1a; stroke: #1a1a1a; stroke-width: 0.8"/>
      </g>
     </g>
     <g id="text_2">
      <!-- 0.2 -->
      <g style="fill: #1a1a1a" transform="translate(116.700816 157.237344) scale(0.08 -0.08)">
       <defs>
        <path id="DejaVuSerif-32" d="M 819 3553 
L 469 3553 
L 469 4384 
Q 803 4563 1142 4656 
Q 1481 4750 1806 4750 
Q 2534 4750 2956 4397 
Q 3378 4044 3378 3438 
Q 3378 2753 2422 1800 
Q 2347 1728 2309 1691 
L 1131 513 
L 3078 513 
L 3078 1088 
L 3444 1088 
L 3444 0 
L 434 0 
L 434 341 
L 1850 1753 
Q 2319 2222 2519 2614 
Q 2719 3006 2719 3438 
Q 2719 3909 2473 4175 
Q 2228 4441 1797 4441 
Q 1350 4441 1106 4219 
Q 863 3997 819 3553 
z
" transform="scale(0.015625)"/>
       </defs>
       <use xlink:href="#DejaVuSerif-30"/>
       <use xlink:href="#DejaVuSerif-2e" transform="translate(63.623047 0)"/>
       <use xlink:href="#DejaVuSerif-32" transform="translate(95.410156 0)"/>
      </g>
     </g>
    </g>
    <g id="xtick_3">
     <g id="line2d_5">
      <path d="M 150.0176 144.158594 
L 150.0176 20.038594 
" clip-path="url(#pd8329368c0)" style="fill: none; stroke-dasharray: 0.8,1.32; stroke-dashoffset: 0; stroke: #b0b0b0; stroke-opacity: 0.25; stroke-width: 0.8"/>
     </g>
     <g id="line2d_6">
      <g>
       <use xlink:href="#m3765da93c0" x="150.0176" y="144.158594" style="fill: #1a1a1a; stroke: #1a1a1a; stroke-width: 0.8"/>
      </g>
     </g>
     <g id="text_3">
      <!-- 0.4 -->
      <g style="fill: #1a1a1a" transform="translate(143.65635 157.237344) scale(0.08 -0.08)">
       <defs>
        <path id="DejaVuSerif-34" d="M 2234 1581 
L 2234 4063 
L 641 1581 
L 2234 1581 
z
M 3609 0 
L 1484 0 
L 1484 331 
L 2234 331 
L 2234 1247 
L 197 1247 
L 197 1588 
L 2241 4750 
L 2859 4750 
L 2859 1581 
L 3750 1581 
L 3750 1247 
L 2859 1247 
L 2859 331 
L 3609 331 
L 3609 0 
z
" transform="scale(0.015625)"/>
       </defs>
       <use xlink:href="#DejaVuSerif-30"/>
       <use xlink:href="#DejaVuSerif-2e" transform="translate(63.623047 0)"/>
       <use xlink:href="#DejaVuSerif-34" transform="translate(95.410156 0)"/>
      </g>
     </g>
    </g>
    <g id="xtick_4">
     <g id="line2d_7">
      <path d="M 176.973133 144.158594 
L 176.973133 20.038594 
" clip-path="url(#pd8329368c0)" style="fill: none; stroke-dasharray: 0.8,1.32; stroke-dashoffset: 0; stroke: #b0b0b0; stroke-opacity: 0.25; stroke-width: 0.8"/>
     </g>
     <g id="line2d_8">
      <g>
       <use xlink:href="#m3765da93c0" x="176.973133" y="144.158594" style="fill: #1a1a1a; stroke: #1a1a1a; stroke-width: 0.8"/>
      </g>
     </g>
     <g id="text_4">
      <!-- 0.6 -->
      <g style="fill: #1a1a1a" transform="translate(170.611883 157.237344) scale(0.08 -0.08)">
       <defs>
        <path id="DejaVuSerif-36" d="M 2094 219 
Q 2534 219 2771 542 
Q 3009 866 3009 1472 
Q 3009 2078 2771 2401 
Q 2534 2725 2094 2725 
Q 1647 2725 1412 2412 
Q 1178 2100 1178 1509 
Q 1178 888 1415 553 
Q 1653 219 2094 219 
z
M 1075 2569 
Q 1288 2803 1556 2918 
Q 1825 3034 2163 3034 
Q 2859 3034 3264 2615 
Q 3669 2197 3669 1472 
Q 3669 763 3233 336 
Q 2797 -91 2069 -91 
Q 1278 -91 853 498 
Q 428 1088 428 2181 
Q 428 3406 931 4078 
Q 1434 4750 2350 4750 
Q 2597 4750 2869 4703 
Q 3141 4656 3425 4563 
L 3425 3794 
L 3072 3794 
Q 3034 4109 2831 4275 
Q 2628 4441 2284 4441 
Q 1678 4441 1381 3981 
Q 1084 3522 1075 2569 
z
" transform="scale(0.015625)"/>
       </defs>
       <use xlink:href="#DejaVuSerif-30"/>
       <use xlink:href="#DejaVuSerif-2e" transform="translate(63.623047 0)"/>
       <use xlink:href="#DejaVuSerif-36" transform="translate(95.410156 0)"/>
      </g>
     </g>
    </g>
    <g id="xtick_5">
     <g id="line2d_9">
      <path d="M 203.928666 144.158594 
L 203.928666 20.038594 
" clip-path="url(#pd8329368c0)" style="fill: none; stroke-dasharray: 0.8,1.32; stroke-dashoffset: 0; stroke: #b0b0b0; stroke-opacity: 0.25; stroke-width: 0.8"/>
     </g>
     <g id="line2d_10">
      <g>
       <use xlink:href="#m3765da93c0" x="203.928666" y="144.158594" style="fill: #1a1a1a; stroke: #1a1a1a; stroke-width: 0.8"/>
      </g>
     </g>
     <g id="text_5">
      <!-- 0.8 -->
      <g style="fill: #1a1a1a" transform="translate(197.567416 157.237344) scale(0.08 -0.08)">
       <defs>
        <path id="DejaVuSerif-38" d="M 2981 1275 
Q 2981 1775 2732 2051 
Q 2484 2328 2034 2328 
Q 1584 2328 1336 2051 
Q 1088 1775 1088 1275 
Q 1088 772 1336 495 
Q 1584 219 2034 219 
Q 2484 219 2732 495 
Q 2981 772 2981 1275 
z
M 2853 3541 
Q 2853 3966 2637 4203 
Q 2422 4441 2034 4441 
Q 1650 4441 1433 4203 
Q 1216 3966 1216 3541 
Q 1216 3113 1433 2875 
Q 1650 2638 2034 2638 
Q 2422 2638 2637 2875 
Q 2853 3113 2853 3541 
z
M 2516 2484 
Q 3047 2413 3344 2092 
Q 3641 1772 3641 1275 
Q 3641 619 3225 264 
Q 2809 -91 2034 -91 
Q 1263 -91 845 264 
Q 428 619 428 1275 
Q 428 1772 725 2092 
Q 1022 2413 1556 2484 
Q 1084 2569 832 2842 
Q 581 3116 581 3541 
Q 581 4103 968 4426 
Q 1356 4750 2034 4750 
Q 2713 4750 3100 4426 
Q 3488 4103 3488 3541 
Q 3488 3116 3236 2842 
Q 2984 2569 2516 2484 
z
" transform="scale(0.015625)"/>
       </defs>
       <use xlink:href="#DejaVuSerif-30"/>
       <use xlink:href="#DejaVuSerif-2e" transform="translate(63.623047 0)"/>
       <use xlink:href="#DejaVuSerif-38" transform="translate(95.410156 0)"/>
      </g>
     </g>
    </g>
    <g id="xtick_6">
     <g id="line2d_11">
      <path d="M 230.884199 144.158594 
L 230.884199 20.038594 
" clip-path="url(#pd8329368c0)" style="fill: none; stroke-dasharray: 0.8,1.32; stroke-dashoffset: 0; stroke: #b0b0b0; stroke-opacity: 0.25; stroke-width: 0.8"/>
     </g>
     <g id="line2d_12">
      <g>
       <use xlink:href="#m3765da93c0" x="230.884199" y="144.158594" style="fill: #1a1a1a; stroke: #1a1a1a; stroke-width: 0.8"/>
      </g>
     </g>
     <g id="text_6">
      <!-- 1.0 -->
      <g style="fill: #1a1a1a" transform="translate(224.522949 157.237344) scale(0.08 -0.08)">
       <defs>
        <path id="DejaVuSerif-31" d="M 909 0 
L 909 331 
L 1722 331 
L 1722 4213 
L 781 3603 
L 781 4013 
L 1919 4750 
L 2350 4750 
L 2350 331 
L 3163 331 
L 3163 0 
L 909 0 
z
" transform="scale(0.015625)"/>
       </defs>
       <use xlink:href="#DejaVuSerif-31"/>
       <use xlink:href="#DejaVuSerif-2e" transform="translate(63.623047 0)"/>
       <use xlink:href="#DejaVuSerif-30" transform="translate(95.410156 0)"/>
      </g>
     </g>
    </g>
    <g id="text_7">
     <!-- paper-reported success -->
     <g style="fill: #1a1a1a" transform="translate(117.831406 168.979844) scale(0.08 -0.08)">
      <defs>
       <path id="DejaVuSerif-70" d="M 1313 1825 
L 1313 1497 
Q 1313 897 1542 583 
Q 1772 269 2209 269 
Q 2650 269 2876 622 
Q 3103 975 3103 1663 
Q 3103 2353 2876 2703 
Q 2650 3053 2209 3053 
Q 1772 3053 1542 2737 
Q 1313 2422 1313 1825 
z
M 738 2988 
L 184 2988 
L 184 3322 
L 1313 3322 
L 1313 2803 
Q 1481 3116 1742 3264 
Q 2003 3413 2388 3413 
Q 3000 3413 3387 2928 
Q 3775 2444 3775 1663 
Q 3775 881 3387 395 
Q 3000 -91 2388 -91 
Q 2003 -91 1742 57 
Q 1481 206 1313 519 
L 1313 -997 
L 1856 -997 
L 1856 -1331 
L 184 -1331 
L 184 -997 
L 738 -997 
L 738 2988 
z
" transform="scale(0.015625)"/>
       <path id="DejaVuSerif-61" d="M 2547 1044 
L 2547 1747 
L 1806 1747 
Q 1378 1747 1168 1562 
Q 959 1378 959 997 
Q 959 650 1171 447 
Q 1384 244 1747 244 
Q 2106 244 2326 466 
Q 2547 688 2547 1044 
z
M 3122 2075 
L 3122 331 
L 3634 331 
L 3634 0 
L 2547 0 
L 2547 359 
Q 2356 128 2106 18 
Q 1856 -91 1522 -91 
Q 969 -91 644 203 
Q 319 497 319 997 
Q 319 1513 691 1797 
Q 1063 2081 1741 2081 
L 2547 2081 
L 2547 2309 
Q 2547 2688 2317 2895 
Q 2088 3103 1672 3103 
Q 1328 3103 1125 2947 
Q 922 2791 872 2484 
L 575 2484 
L 575 3156 
Q 875 3284 1158 3348 
Q 1441 3413 1709 3413 
Q 2400 3413 2761 3070 
Q 3122 2728 3122 2075 
z
" transform="scale(0.015625)"/>
       <path id="DejaVuSerif-65" d="M 3469 1600 
L 991 1600 
L 991 1575 
Q 991 903 1244 561 
Q 1497 219 1991 219 
Q 2369 219 2611 417 
Q 2853 616 2950 1006 
L 3413 1006 
Q 3275 459 2904 184 
Q 2534 -91 1931 -91 
Q 1203 -91 761 389 
Q 319 869 319 1663 
Q 319 2450 753 2931 
Q 1188 3413 1894 3413 
Q 2647 3413 3050 2948 
Q 3453 2484 3469 1600 
z
M 2791 1931 
Q 2772 2513 2545 2808 
Q 2319 3103 1894 3103 
Q 1497 3103 1269 2806 
Q 1041 2509 991 1931 
L 2791 1931 
z
" transform="scale(0.015625)"/>
       <path id="DejaVuSerif-72" d="M 3059 3328 
L 3059 2497 
L 2728 2497 
Q 2713 2744 2591 2866 
Q 2469 2988 2234 2988 
Q 1809 2988 1582 2694 
Q 1356 2400 1356 1850 
L 1356 331 
L 2022 331 
L 2022 0 
L 263 0 
L 263 331 
L 781 331 
L 781 2994 
L 231 2994 
L 231 3322 
L 1356 3322 
L 1356 2731 
Q 1525 3078 1790 3245 
Q 2056 3413 2438 3413 
Q 2578 3413 2733 3391 
Q 2888 3369 3059 3328 
z
" transform="scale(0.015625)"/>
       <path id="DejaVuSerif-2d" d="M 281 1959 
L 1881 1959 
L 1881 1472 
L 281 1472 
L 281 1959 
z
" transform="scale(0.015625)"/>
       <path id="DejaVuSerif-6f" d="M 1925 219 
Q 2388 219 2623 584 
Q 2859 950 2859 1663 
Q 2859 2375 2623 2739 
Q 2388 3103 1925 3103 
Q 1463 3103 1227 2739 
Q 991 2375 991 1663 
Q 991 950 1228 584 
Q 1466 219 1925 219 
z
M 1925 -91 
Q 1200 -91 759 389 
Q 319 869 319 1663 
Q 319 2456 758 2934 
Q 1197 3413 1925 3413 
Q 2653 3413 3092 2934 
Q 3531 2456 3531 1663 
Q 3531 869 3092 389 
Q 2653 -91 1925 -91 
z
" transform="scale(0.015625)"/>
       <path id="DejaVuSerif-74" d="M 691 2988 
L 184 2988 
L 184 3322 
L 691 3322 
L 691 4353 
L 1269 4353 
L 1269 3322 
L 2350 3322 
L 2350 2988 
L 1269 2988 
L 1269 878 
Q 1269 456 1350 337 
Q 1431 219 1650 219 
Q 1875 219 1978 351 
Q 2081 484 2088 781 
L 2522 781 
Q 2497 328 2275 118 
Q 2053 -91 1600 -91 
Q 1103 -91 897 129 
Q 691 350 691 878 
L 691 2988 
z
" transform="scale(0.015625)"/>
       <path id="DejaVuSerif-64" d="M 3359 331 
L 3909 331 
L 3909 0 
L 2784 0 
L 2784 519 
Q 2616 206 2355 57 
Q 2094 -91 1709 -91 
Q 1097 -91 708 395 
Q 319 881 319 1663 
Q 319 2444 706 2928 
Q 1094 3413 1709 3413 
Q 2094 3413 2355 3264 
Q 2616 3116 2784 2803 
L 2784 4531 
L 2241 4531 
L 2241 4863 
L 3359 4863 
L 3359 331 
z
M 2784 1497 
L 2784 1825 
Q 2784 2422 2554 2737 
Q 2325 3053 1888 3053 
Q 1444 3053 1217 2703 
Q 991 2353 991 1663 
Q 991 975 1217 622 
Q 1444 269 1888 269 
Q 2325 269 2554 583 
Q 2784 897 2784 1497 
z
" transform="scale(0.015625)"/>
       <path id="DejaVuSerif-20" transform="scale(0.015625)"/>
       <path id="DejaVuSerif-73" d="M 359 184 
L 359 959 
L 691 959 
Q 703 588 923 403 
Q 1144 219 1575 219 
Q 1963 219 2166 364 
Q 2369 509 2369 788 
Q 2369 1006 2220 1140 
Q 2072 1275 1594 1428 
L 1178 1569 
Q 750 1706 558 1912 
Q 366 2119 366 2438 
Q 366 2894 700 3153 
Q 1034 3413 1625 3413 
Q 1888 3413 2178 3344 
Q 2469 3275 2778 3144 
L 2778 2419 
L 2447 2419 
Q 2434 2741 2221 2922 
Q 2009 3103 1644 3103 
Q 1281 3103 1095 2975 
Q 909 2847 909 2591 
Q 909 2381 1050 2254 
Q 1191 2128 1613 1997 
L 2069 1856 
Q 2541 1709 2748 1489 
Q 2956 1269 2956 922 
Q 2956 450 2595 179 
Q 2234 -91 1600 -91 
Q 1278 -91 972 -22 
Q 666 47 359 184 
z
" transform="scale(0.015625)"/>
       <path id="DejaVuSerif-75" d="M 2266 3322 
L 3341 3322 
L 3341 331 
L 3884 331 
L 3884 0 
L 2766 0 
L 2766 588 
Q 2606 256 2353 82 
Q 2100 -91 1766 -91 
Q 1213 -91 952 223 
Q 691 538 691 1209 
L 691 2988 
L 172 2988 
L 172 3322 
L 1269 3322 
L 1269 1388 
Q 1269 781 1417 556 
Q 1566 331 1947 331 
Q 2347 331 2556 625 
Q 2766 919 2766 1478 
L 2766 2988 
L 2266 2988 
L 2266 3322 
z
" transform="scale(0.015625)"/>
       <path id="DejaVuSerif-63" d="M 3291 997 
Q 3169 466 2822 187 
Q 2475 -91 1925 -91 
Q 1200 -91 759 389 
Q 319 869 319 1663 
Q 319 2459 759 2936 
Q 1200 3413 1925 3413 
Q 2241 3413 2553 3339 
Q 2866 3266 3181 3116 
L 3181 2266 
L 2847 2266 
Q 2781 2703 2561 2903 
Q 2341 3103 1931 3103 
Q 1466 3103 1228 2742 
Q 991 2381 991 1663 
Q 991 944 1227 581 
Q 1463 219 1931 219 
Q 2303 219 2525 412 
Q 2747 606 2828 997 
L 3291 997 
z
" transform="scale(0.015625)"/>
      </defs>
      <use xlink:href="#DejaVuSerif-70"/>
      <use xlink:href="#DejaVuSerif-61" transform="translate(64.013672 0)"/>
      <use xlink:href="#DejaVuSerif-70" transform="translate(123.632812 0)"/>
      <use xlink:href="#DejaVuSerif-65" transform="translate(187.646484 0)"/>
      <use xlink:href="#DejaVuSerif-72" transform="translate(246.826172 0)"/>
      <use xlink:href="#DejaVuSerif-2d" transform="translate(294.628906 0)"/>
      <use xlink:href="#DejaVuSerif-72" transform="translate(328.417969 0)"/>
      <use xlink:href="#DejaVuSerif-65" transform="translate(376.220703 0)"/>
      <use xlink:href="#DejaVuSerif-70" transform="translate(435.400391 0)"/>
      <use xlink:href="#DejaVuSerif-6f" transform="translate(499.414062 0)"/>
      <use xlink:href="#DejaVuSerif-72" transform="translate(559.619141 0)"/>
      <use xlink:href="#DejaVuSerif-74" transform="translate(607.421875 0)"/>
      <use xlink:href="#DejaVuSerif-65" transform="translate(647.607422 0)"/>
      <use xlink:href="#DejaVuSerif-64" transform="translate(706.787109 0)"/>
      <use xlink:href="#DejaVuSerif-20" transform="translate(770.800781 0)"/>
      <use xlink:href="#DejaVuSerif-73" transform="translate(802.587891 0)"/>
      <use xlink:href="#DejaVuSerif-75" transform="translate(853.90625 0)"/>
      <use xlink:href="#DejaVuSerif-63" transform="translate(918.310547 0)"/>
      <use xlink:href="#DejaVuSerif-63" transform="translate(974.316406 0)"/>
      <use xlink:href="#DejaVuSerif-65" transform="translate(1030.322266 0)"/>
      <use xlink:href="#DejaVuSerif-73" transform="translate(1089.501953 0)"/>
      <use xlink:href="#DejaVuSerif-73" transform="translate(1140.820312 0)"/>
     </g>
    </g>
   </g>
   <g id="matplotlib.axis_2">
    <g id="ytick_1">
     <g id="line2d_13">
      <path d="M 93.41098 141.838594 
L 237.623083 141.838594 
" clip-path="url(#pd8329368c0)" style="fill: none; stroke-dasharray: 0.8,1.32; stroke-dashoffset: 0; stroke: #b0b0b0; stroke-opacity: 0.25; stroke-width: 0.8"/>
     </g>
     <g id="line2d_14">
      <defs>
       <path id="m40ada1f6e3" d="M 0 0 
L -3.5 0 
" style="stroke: #1a1a1a; stroke-width: 0.8"/>
      </defs>
      <g>
       <use xlink:href="#m40ada1f6e3" x="93.41098" y="141.838594" style="fill: #1a1a1a; stroke: #1a1a1a; stroke-width: 0.8"/>
      </g>
     </g>
     <g id="text_8">
      <!-- 0.0 -->
      <g style="fill: #1a1a1a" transform="translate(73.68848 144.877969) scale(0.08 -0.08)">
       <use xlink:href="#DejaVuSerif-30"/>
       <use xlink:href="#DejaVuSerif-2e" transform="translate(63.623047 0)"/>
       <use xlink:href="#DejaVuSerif-30" transform="translate(95.410156 0)"/>
      </g>
     </g>
    </g>
    <g id="ytick_2">
     <g id="line2d_15">
      <path d="M 93.41098 118.638594 
L 237.623083 118.638594 
" clip-path="url(#pd8329368c0)" style="fill: none; stroke-dasharray: 0.8,1.32; stroke-dashoffset: 0; stroke: #b0b0b0; stroke-opacity: 0.25; stroke-width: 0.8"/>
     </g>
     <g id="line2d_16">
      <g>
       <use xlink:href="#m40ada1f6e3" x="93.41098" y="118.638594" style="fill: #1a1a1a; stroke: #1a1a1a; stroke-width: 0.8"/>
      </g>
     </g>
     <g id="text_9">
      <!-- 0.2 -->
      <g style="fill: #1a1a1a" transform="translate(73.68848 121.677969) scale(0.08 -0.08)">
       <use xlink:href="#DejaVuSerif-30"/>
       <use xlink:href="#DejaVuSerif-2e" transform="translate(63.623047 0)"/>
       <use xlink:href="#DejaVuSerif-32" transform="translate(95.410156 0)"/>
      </g>
     </g>
    </g>
    <g id="ytick_3">
     <g id="line2d_17">
      <path d="M 93.41098 95.438594 
L 237.623083 95.438594 
" clip-path="url(#pd8329368c0)" style="fill: none; stroke-dasharray: 0.8,1.32; stroke-dashoffset: 0; stroke: #b0b0b0; stroke-opacity: 0.25; stroke-width: 0.8"/>
     </g>
     <g id="line2d_18">
      <g>
       <use xlink:href="#m40ada1f6e3" x="93.41098" y="95.438594" style="fill: #1a1a1a; stroke: #1a1a1a; stroke-width: 0.8"/>
      </g>
     </g>
     <g id="text_10">
      <!-- 0.4 -->
      <g style="fill: #1a1a1a" transform="translate(73.68848 98.477969) scale(0.08 -0.08)">
       <use xlink:href="#DejaVuSerif-30"/>
       <use xlink:href="#DejaVuSerif-2e" transform="translate(63.623047 0)"/>
       <use xlink:href="#DejaVuSerif-34" transform="translate(95.410156 0)"/>
      </g>
     </g>
    </g>
    <g id="ytick_4">
     <g id="line2d_19">
      <path d="M 93.41098 72.238594 
L 237.623083 72.238594 
" clip-path="url(#pd8329368c0)" style="fill: none; stroke-dasharray: 0.8,1.32; stroke-dashoffset: 0; stroke: #b0b0b0; stroke-opacity: 0.25; stroke-width: 0.8"/>
     </g>
     <g id="line2d_20">
      <g>
       <use xlink:href="#m40ada1f6e3" x="93.41098" y="72.238594" style="fill: #1a1a1a; stroke: #1a1a1a; stroke-width: 0.8"/>
      </g>
     </g>
     <g id="text_11">
      <!-- 0.6 -->
      <g style="fill: #1a1a1a" transform="translate(73.68848 75.277969) scale(0.08 -0.08)">
       <use xlink:href="#DejaVuSerif-30"/>
       <use xlink:href="#DejaVuSerif-2e" transform="translate(63.623047 0)"/>
       <use xlink:href="#DejaVuSerif-36" transform="translate(95.410156 0)"/>
      </g>
     </g>
    </g>
    <g id="ytick_5">
     <g id="line2d_21">
      <path d="M 93.41098 49.038594 
L 237.623083 49.038594 
" clip-path="url(#pd8329368c0)" style="fill: none; stroke-dasharray: 0.8,1.32; stroke-dashoffset: 0; stroke: #b0b0b0; stroke-opacity: 0.25; stroke-width: 0.8"/>
     </g>
     <g id="line2d_22">
      <g>
       <use xlink:href="#m40ada1f6e3" x="93.41098" y="49.038594" style="fill: #1a1a1a; stroke: #1a1a1a; stroke-width: 0.8"/>
      </g>
     </g>
     <g id="text_12">
      <!-- 0.8 -->
      <g style="fill: #1a1a1a" transform="translate(73.68848 52.077969) scale(0.08 -0.08)">
       <use xlink:href="#DejaVuSerif-30"/>
       <use xlink:href="#DejaVuSerif-2e" transform="translate(63.623047 0)"/>
       <use xlink:href="#DejaVuSerif-38" transform="translate(95.410156 0)"/>
      </g>
     </g>
    </g>
    <g id="ytick_6">
     <g id="line2d_23">
      <path d="M 93.41098 25.838594 
L 237.623083 25.838594 
" clip-path="url(#pd8329368c0)" style="fill: none; stroke-dasharray: 0.8,1.32; stroke-dashoffset: 0; stroke: #b0b0b0; stroke-opacity: 0.25; stroke-width: 0.8"/>
     </g>
     <g id="line2d_24">
      <g>
       <use xlink:href="#m40ada1f6e3" x="93.41098" y="25.838594" style="fill: #1a1a1a; stroke: #1a1a1a; stroke-width: 0.8"/>
      </g>
     </g>
     <g id="text_13">
      <!-- 1.0 -->
      <g style="fill: #1a1a1a" transform="translate(73.68848 28.877969) scale(0.08 -0.08)">
       <use xlink:href="#DejaVuSerif-31"/>
       <use xlink:href="#DejaVuSerif-2e" transform="translate(63.623047 0)"/>
       <use xlink:href="#DejaVuSerif-30" transform="translate(95.410156 0)"/>
      </g>
     </g>
    </g>
    <g id="text_14">
     <!-- measured success (N=250 per cell) -->
     <g style="fill: #1a1a1a" transform="translate(68.02473 154.393594) rotate(-90) scale(0.08 -0.08)">
      <defs>
       <path id="DejaVuSerif-6d" d="M 3316 2675 
Q 3481 3041 3739 3227 
Q 3997 3413 4341 3413 
Q 4863 3413 5119 3089 
Q 5375 2766 5375 2113 
L 5375 331 
L 5894 331 
L 5894 0 
L 4300 0 
L 4300 331 
L 4800 331 
L 4800 2047 
Q 4800 2556 4650 2772 
Q 4500 2988 4153 2988 
Q 3769 2988 3567 2697 
Q 3366 2406 3366 1850 
L 3366 331 
L 3866 331 
L 3866 0 
L 2291 0 
L 2291 331 
L 2791 331 
L 2791 2069 
Q 2791 2566 2641 2777 
Q 2491 2988 2144 2988 
Q 1759 2988 1557 2697 
Q 1356 2406 1356 1850 
L 1356 331 
L 1856 331 
L 1856 0 
L 263 0 
L 263 331 
L 781 331 
L 781 2994 
L 231 2994 
L 231 3322 
L 1356 3322 
L 1356 2731 
Q 1516 3063 1762 3238 
Q 2009 3413 2322 3413 
Q 2709 3413 2968 3220 
Q 3228 3028 3316 2675 
z
" transform="scale(0.015625)"/>
       <path id="DejaVuSerif-28" d="M 2041 -997 
Q 1281 -656 893 83 
Q 506 822 506 1931 
Q 506 3044 893 3783 
Q 1281 4522 2041 4863 
L 2041 4556 
Q 1559 4225 1350 3623 
Q 1141 3022 1141 1931 
Q 1141 844 1350 242 
Q 1559 -359 2041 -691 
L 2041 -997 
z
" transform="scale(0.015625)"/>
       <path id="DejaVuSerif-4e" d="M 313 0 
L 313 331 
L 941 331 
L 941 4331 
L 313 4331 
L 313 4666 
L 1509 4666 
L 4306 984 
L 4306 4331 
L 3681 4331 
L 3681 4666 
L 5319 4666 
L 5319 4331 
L 4691 4331 
L 4691 -91 
L 4313 -91 
L 1325 3841 
L 1325 331 
L 1953 331 
L 1953 0 
L 313 0 
z
" transform="scale(0.015625)"/>
       <path id="DejaVuSerif-3d" d="M 678 2894 
L 4684 2894 
L 4684 2394 
L 678 2394 
L 678 2894 
z
M 678 1619 
L 4684 1619 
L 4684 1119 
L 678 1119 
L 678 1619 
z
" transform="scale(0.015625)"/>
       <path id="DejaVuSerif-35" d="M 3219 4666 
L 3219 4153 
L 1081 4153 
L 1081 2816 
Q 1244 2928 1461 2984 
Q 1678 3041 1947 3041 
Q 2703 3041 3140 2622 
Q 3578 2203 3578 1478 
Q 3578 738 3136 323 
Q 2694 -91 1894 -91 
Q 1572 -91 1234 -12 
Q 897 66 544 225 
L 544 1131 
L 897 1131 
Q 925 688 1179 453 
Q 1434 219 1894 219 
Q 2388 219 2653 544 
Q 2919 869 2919 1478 
Q 2919 2084 2655 2407 
Q 2391 2731 1894 2731 
Q 1613 2731 1398 2631 
Q 1184 2531 1019 2322 
L 750 2322 
L 750 4666 
L 3219 4666 
z
" transform="scale(0.015625)"/>
       <path id="DejaVuSerif-6c" d="M 1313 331 
L 1856 331 
L 1856 0 
L 184 0 
L 184 331 
L 738 331 
L 738 4531 
L 184 4531 
L 184 4863 
L 1313 4863 
L 1313 331 
z
" transform="scale(0.015625)"/>
       <path id="DejaVuSerif-29" d="M 453 -997 
L 453 -691 
Q 934 -359 1145 242 
Q 1356 844 1356 1931 
Q 1356 3022 1145 3623 
Q 934 4225 453 4556 
L 453 4863 
Q 1216 4522 1603 3783 
Q 1991 3044 1991 1931 
Q 1991 822 1603 83 
Q 1216 -656 453 -997 
z
" transform="scale(0.015625)"/>
      </defs>
      <use xlink:href="#DejaVuSerif-6d"/>
      <use xlink:href="#DejaVuSerif-65" transform="translate(94.824219 0)"/>
      <use xlink:href="#DejaVuSerif-61" transform="translate(154.003906 0)"/>
      <use xlink:href="#DejaVuSerif-73" transform="translate(213.623047 0)"/>
      <use xlink:href="#DejaVuSerif-75" transform="translate(264.941406 0)"/>
      <use xlink:href="#DejaVuSerif-72" transform="translate(329.345703 0)"/>
      <use xlink:href="#DejaVuSerif-65" transform="translate(377.148438 0)"/>
      <use xlink:href="#DejaVuSerif-64" transform="translate(436.328125 0)"/>
      <use xlink:href="#DejaVuSerif-20" transform="translate(500.341797 0)"/>
      <use xlink:href="#DejaVuSerif-73" transform="translate(532.128906 0)"/>
      <use xlink:href="#DejaVuSerif-75" transform="translate(583.447266 0)"/>
      <use xlink:href="#DejaVuSerif-63" transform="translate(647.851562 0)"/>
      <use xlink:href="#DejaVuSerif-63" transform="translate(703.857422 0)"/>
      <use xlink:href="#DejaVuSerif-65" transform="translate(759.863281 0)"/>
      <use xlink:href="#DejaVuSerif-73" transform="translate(819.042969 0)"/>
      <use xlink:href="#DejaVuSerif-73" transform="translate(870.361328 0)"/>
      <use xlink:href="#DejaVuSerif-20" transform="translate(921.679688 0)"/>
      <use xlink:href="#DejaVuSerif-28" transform="translate(953.466797 0)"/>
      <use xlink:href="#DejaVuSerif-4e" transform="translate(992.480469 0)"/>
      <use xlink:href="#DejaVuSerif-3d" transform="translate(1079.980469 0)"/>
      <use xlink:href="#DejaVuSerif-32" transform="translate(1163.769531 0)"/>
      <use xlink:href="#DejaVuSerif-35" transform="translate(1227.392578 0)"/>
      <use xlink:href="#DejaVuSerif-30" transform="translate(1291.015625 0)"/>
      <use xlink:href="#DejaVuSerif-20" transform="translate(1354.638672 0)"/>
      <use xlink:href="#DejaVuSerif-70" transform="translate(1386.425781 0)"/>
      <use xlink:href="#DejaVuSerif-65" transform="translate(1450.439453 0)"/>
      <use xlink:href="#DejaVuSerif-72" transform="translate(1509.619141 0)"/>
      <use xlink:href="#DejaVuSerif-20" transform="translate(1557.421875 0)"/>
      <use xlink:href="#DejaVuSerif-63" transform="translate(1589.208984 0)"/>
      <use xlink:href="#DejaVuSerif-65" transform="translate(1645.214844 0)"/>
      <use xlink:href="#DejaVuSerif-6c" transform="translate(1704.394531 0)"/>
      <use xlink:href="#DejaVuSerif-6c" transform="translate(1736.376953 0)"/>
      <use xlink:href="#DejaVuSerif-29" transform="translate(1768.359375 0)"/>
     </g>
    </g>
   </g>
   <g id="line2d_25">
    <path d="M 96.106533 141.838594 
L 230.884199 25.838594 
" clip-path="url(#pd8329368c0)" style="fill: none; stroke-dasharray: 2.96,1.28; stroke-dashoffset: 0; stroke: #888888; stroke-width: 0.8"/>
   </g>
   <g id="LineCollection_1">
    <path d="M 184.251127 56.11334 
L 184.251127 40.437674 
" clip-path="url(#pd8329368c0)" style="fill: none; stroke: #7570b3; stroke-width: 0.8"/>
   </g>
   <g id="line2d_26">
    <defs>
     <path id="m126a93e541" d="M 3 0 
L -3 -0 
" style="stroke: #7570b3"/>
    </defs>
    <g clip-path="url(#pd8329368c0)">
     <use xlink:href="#m126a93e541" x="184.251127" y="56.11334" style="fill: #7570b3; stroke: #7570b3"/>
    </g>
   </g>
   <g id="line2d_27">
    <g clip-path="url(#pd8329368c0)">
     <use xlink:href="#m126a93e541" x="184.251127" y="40.437674" style="fill: #7570b3; stroke: #7570b3"/>
    </g>
   </g>
   <g id="LineCollection_2">
    <path d="M 163.495366 141.114844 
L 163.495366 137.151056 
" clip-path="url(#pd8329368c0)" style="fill: none; stroke: #1b9e77; stroke-width: 0.8"/>
   </g>
   <g id="line2d_28">
    <defs>
     <path id="m4d0b848498" d="M 3 0 
L -3 -0 
" style="stroke: #1b9e77"/>
    </defs>
    <g clip-path="url(#pd8329368c0)">
     <use xlink:href="#m4d0b848498" x="163.495366" y="141.114844" style="fill: #1b9e77; stroke: #1b9e77"/>
    </g>
   </g>
   <g id="line2d_29">
    <g clip-path="url(#pd8329368c0)">
     <use xlink:href="#m4d0b848498" x="163.495366" y="137.151056" style="fill: #1b9e77; stroke: #1b9e77"/>
    </g>
   </g>
   <g id="LineCollection_3">
    <path d="M 217.406433 58.276286 
L 217.406433 46.337917 
" clip-path="url(#pd8329368c0)" style="fill: none; stroke: #d95f02; stroke-width: 0.8"/>
   </g>
   <g id="line2d_30">
    <defs>
     <path id="m76de5359a3" d="M 3 0 
L -3 -0 
" style="stroke: #d95f02"/>
    </defs>
    <g clip-path="url(#pd8329368c0)">
     <use xlink:href="#m76de5359a3" x="217.406433" y="58.276286" style="fill: #d95f02; stroke: #d95f02"/>
    </g>
   </g>
   <g id="line2d_31">
    <g clip-path="url(#pd8329368c0)">
     <use xlink:href="#m76de5359a3" x="217.406433" y="46.337917" style="fill: #d95f02; stroke: #d95f02"/>
    </g>
   </g>
   <g id="LineCollection_4">
    <path d="M 225.493093 87.763733 
L 225.493093 73.51576 
" clip-path="url(#pd8329368c0)" style="fill: none; stroke: #d95f02; stroke-width: 0.8"/>
   </g>
   <g id="line2d_32">
    <g clip-path="url(#pd8329368c0)">
     <use xlink:href="#m76de5359a3" x="225.493093" y="87.763733" style="fill: #d95f02; stroke: #d95f02"/>
    </g>
   </g>
   <g id="line2d_33">
    <g clip-path="url(#pd8329368c0)">
     <use xlink:href="#m76de5359a3" x="225.493093" y="73.51576" style="fill: #d95f02; stroke: #d95f02"/>
    </g>
   </g>
   <g id="LineCollection_5">
    <path d="M 220.101986 38.706304 
L 220.101986 31.17756 
" clip-path="url(#pd8329368c0)" style="fill: none; stroke: #888888; stroke-width: 0.8"/>
   </g>
   <g id="line2d_34">
    <defs>
     <path id="m722e681ab4" d="M 3 0 
L -3 -0 
" style="stroke: #888888"/>
    </defs>
    <g clip-path="url(#pd8329368c0)">
     <use xlink:href="#m722e681ab4" x="220.101986" y="38.706304" style="fill: #888888; stroke: #888888"/>
    </g>
   </g>
   <g id="line2d_35">
    <g clip-path="url(#pd8329368c0)">
     <use xlink:href="#m722e681ab4" x="220.101986" y="31.17756" style="fill: #888888; stroke: #888888"/>
    </g>
   </g>
   <g id="LineCollection_6">
    <path d="M 191.798676 118.382009 
L 191.798676 105.960469 
" clip-path="url(#pd8329368c0)" style="fill: none; stroke: #d95f02; stroke-width: 0.8"/>
   </g>
   <g id="line2d_36">
    <g clip-path="url(#pd8329368c0)">
     <use xlink:href="#m76de5359a3" x="191.798676" y="118.382009" style="fill: #d95f02; stroke: #d95f02"/>
    </g>
   </g>
   <g id="line2d_37">
    <g clip-path="url(#pd8329368c0)">
     <use xlink:href="#m76de5359a3" x="191.798676" y="105.960469" style="fill: #d95f02; stroke: #d95f02"/>
    </g>
   </g>
   <g id="line2d_38">
    <defs>
     <path id="m3e40875efe" d="M 0 2.5 
C 0.663008 2.5 1.29895 2.236584 1.767767 1.767767 
C 2.236584 1.29895 2.5 0.663008 2.5 0 
C 2.5 -0.663008 2.236584 -1.29895 1.767767 -1.767767 
C 1.29895 -2.236584 0.663008 -2.5 0 -2.5 
C -0.663008 -2.5 -1.29895 -2.236584 -1.767767 -1.767767 
C -2.236584 -1.29895 -2.5 -0.663008 -2.5 0 
C -2.5 0.663008 -2.236584 1.29895 -1.767767 1.767767 
C -1.29895 2.236584 -0.663008 2.5 0 2.5 
z
" style="stroke: #7570b3"/>
    </defs>
    <g clip-path="url(#pd8329368c0)">
     <use xlink:href="#m3e40875efe" x="184.251127" y="47.182594" style="fill: #7570b3; stroke: #7570b3"/>
    </g>
   </g>
   <g id="line2d_39">
    <defs>
     <path id="m92c81fd7d0" d="M 0 2.5 
C 0.663008 2.5 1.29895 2.236584 1.767767 1.767767 
C 2.236584 1.29895 2.5 0.663008 2.5 0 
C 2.5 -0.663008 2.236584 -1.29895 1.767767 -1.767767 
C 1.29895 -2.236584 0.663008 -2.5 0 -2.5 
C -0.663008 -2.5 -1.29895 -2.236584 -1.767767 -1.767767 
C -2.236584 -1.29895 -2.5 -0.663008 -2.5 0 
C -2.5 0.663008 -2.236584 1.29895 -1.767767 1.767767 
C -1.29895 2.236584 -0.663008 2.5 0 2.5 
z
" style="stroke: #1b9e77"/>
    </defs>
    <g clip-path="url(#pd8329368c0)">
     <use xlink:href="#m92c81fd7d0" x="163.495366" y="139.982594" style="fill: #1b9e77; stroke: #1b9e77"/>
    </g>
   </g>
   <g id="line2d_40">
    <defs>
     <path id="m2bbb1c9a9d" d="M 0 2.5 
C 0.663008 2.5 1.29895 2.236584 1.767767 1.767767 
C 2.236584 1.29895 2.5 0.663008 2.5 0 
C 2.5 -0.663008 2.236584 -1.29895 1.767767 -1.767767 
C 1.29895 -2.236584 0.663008 -2.5 0 -2.5 
C -0.663008 -2.5 -1.29895 -2.236584 -1.767767 -1.767767 
C -2.236584 -1.29895 -2.5 -0.663008 -2.5 0 
C -2.5 0.663008 -2.236584 1.29895 -1.767767 1.767767 
C -1.29895 2.236584 -0.663008 2.5 0 2.5 
z
" style="stroke: #d95f02"/>
    </defs>
    <g clip-path="url(#pd8329368c0)">
     <use xlink:href="#m2bbb1c9a9d" x="217.406433" y="51.822594" style="fill: #d95f02; stroke: #d95f02"/>
    </g>
   </g>
   <g id="line2d_41">
    <g clip-path="url(#pd8329368c0)">
     <use xlink:href="#m2bbb1c9a9d" x="225.493093" y="80.590594" style="fill: #d95f02; stroke: #d95f02"/>
    </g>
   </g>
   <g id="line2d_42">
    <defs>
     <path id="m0d15ee403f" d="M 0 2.5 
C 0.663008 2.5 1.29895 2.236584 1.767767 1.767767 
C 2.236584 1.29895 2.5 0.663008 2.5 0 
C 2.5 -0.663008 2.236584 -1.29895 1.767767 -1.767767 
C 1.29895 -2.236584 0.663008 -2.5 0 -2.5 
C -0.663008 -2.5 -1.29895 -2.236584 -1.767767 -1.767767 
C -2.236584 -1.29895 -2.5 -0.663008 -2.5 0 
C -2.5 0.663008 -2.236584 1.29895 -1.767767 1.767767 
C -1.29895 2.236584 -0.663008 2.5 0 2.5 
z
" style="stroke: #888888"/>
    </defs>
    <g clip-path="url(#pd8329368c0)">
     <use xlink:href="#m0d15ee403f" x="220.101986" y="34.190594" style="fill: #888888; stroke: #888888"/>
    </g>
   </g>
   <g id="line2d_43">
    <g clip-path="url(#pd8329368c0)">
     <use xlink:href="#m2bbb1c9a9d" x="191.798676" y="112.606594" style="fill: #d95f02; stroke: #d95f02"/>
    </g>
   </g>
   <g id="patch_3">
    <path d="M 93.41098 144.158594 
L 93.41098 20.038594 
" style="fill: none; stroke: #1a1a1a; stroke-width: 0.8; stroke-linejoin: miter; stroke-linecap: square"/>
   </g>
   <g id="patch_4">
    <path d="M 93.41098 144.158594 
L 237.623083 144.158594 
" style="fill: none; stroke: #1a1a1a; stroke-width: 0.8; stroke-linejoin: miter; stroke-linecap: square"/>
   </g>
   <g id="text_15">
    <!-- diffusion_policy/pusht -->
    <g style="fill: #1a1a1a; opacity: 0.75" transform="translate(188.251127 43.182594) scale(0.05 -0.05)">
     <defs>
      <path id="DejaVuSerif-69" d="M 622 4353 
Q 622 4497 726 4603 
Q 831 4709 978 4709 
Q 1122 4709 1226 4603 
Q 1331 4497 1331 4353 
Q 1331 4206 1228 4103 
Q 1125 4000 978 4000 
Q 831 4000 726 4103 
Q 622 4206 622 4353 
z
M 1356 331 
L 1900 331 
L 1900 0 
L 231 0 
L 231 331 
L 781 331 
L 781 2988 
L 231 2988 
L 231 3322 
L 1356 3322 
L 1356 331 
z
" transform="scale(0.015625)"/>
      <path id="DejaVuSerif-66" d="M 2753 4078 
L 2450 4078 
Q 2447 4313 2317 4434 
Q 2188 4556 1941 4556 
Q 1619 4556 1487 4379 
Q 1356 4203 1356 3750 
L 1356 3322 
L 2284 3322 
L 2284 2988 
L 1356 2988 
L 1356 331 
L 2094 331 
L 2094 0 
L 231 0 
L 231 331 
L 781 331 
L 781 2988 
L 231 2988 
L 231 3322 
L 781 3322 
L 781 3738 
Q 781 4294 1070 4578 
Q 1359 4863 1919 4863 
Q 2128 4863 2337 4825 
Q 2547 4788 2753 4709 
L 2753 4078 
z
" transform="scale(0.015625)"/>
      <path id="DejaVuSerif-6e" d="M 263 0 
L 263 331 
L 781 331 
L 781 2988 
L 231 2988 
L 231 3322 
L 1356 3322 
L 1356 2731 
Q 1516 3069 1770 3241 
Q 2025 3413 2363 3413 
Q 2913 3413 3172 3097 
Q 3431 2781 3431 2113 
L 3431 331 
L 3944 331 
L 3944 0 
L 2356 0 
L 2356 331 
L 2853 331 
L 2853 1931 
Q 2853 2541 2703 2767 
Q 2553 2994 2175 2994 
Q 1775 2994 1565 2701 
Q 1356 2409 1356 1850 
L 1356 331 
L 1856 331 
L 1856 0 
L 263 0 
z
" transform="scale(0.015625)"/>
      <path id="DejaVuSerif-5f" d="M 3200 -1259 
L 3200 -1509 
L 0 -1509 
L 0 -1259 
L 3200 -1259 
z
" transform="scale(0.015625)"/>
      <path id="DejaVuSerif-79" d="M 1381 -609 
L 1600 -56 
L 359 2988 
L -19 2988 
L -19 3322 
L 1509 3322 
L 1509 2988 
L 978 2988 
L 1913 703 
L 2847 2988 
L 2350 2988 
L 2350 3322 
L 3597 3322 
L 3597 2988 
L 3225 2988 
L 1703 -750 
Q 1547 -1138 1356 -1280 
Q 1166 -1422 819 -1422 
Q 672 -1422 517 -1397 
Q 363 -1372 206 -1325 
L 206 -691 
L 500 -691 
Q 519 -903 608 -995 
Q 697 -1088 884 -1088 
Q 1056 -1088 1161 -992 
Q 1266 -897 1381 -609 
z
" transform="scale(0.015625)"/>
      <path id="DejaVuSerif-2f" d="M 1656 4666 
L 2156 4666 
L 500 -594 
L 0 -594 
L 1656 4666 
z
" transform="scale(0.015625)"/>
      <path id="DejaVuSerif-68" d="M 263 0 
L 263 331 
L 781 331 
L 781 4531 
L 231 4531 
L 231 4863 
L 1356 4863 
L 1356 2731 
Q 1516 3069 1770 3241 
Q 2025 3413 2363 3413 
Q 2913 3413 3172 3097 
Q 3431 2781 3431 2113 
L 3431 331 
L 3944 331 
L 3944 0 
L 2356 0 
L 2356 331 
L 2853 331 
L 2853 1931 
Q 2853 2541 2704 2764 
Q 2556 2988 2175 2988 
Q 1775 2988 1565 2697 
Q 1356 2406 1356 1850 
L 1356 331 
L 1856 331 
L 1856 0 
L 263 0 
z
" transform="scale(0.015625)"/>
     </defs>
     <use xlink:href="#DejaVuSerif-64"/>
     <use xlink:href="#DejaVuSerif-69" transform="translate(64.013672 0)"/>
     <use xlink:href="#DejaVuSerif-66" transform="translate(95.996094 0)"/>
     <use xlink:href="#DejaVuSerif-66" transform="translate(133.007812 0)"/>
     <use xlink:href="#DejaVuSerif-75" transform="translate(170.019531 0)"/>
     <use xlink:href="#DejaVuSerif-73" transform="translate(234.423828 0)"/>
     <use xlink:href="#DejaVuSerif-69" transform="translate(285.742188 0)"/>
     <use xlink:href="#DejaVuSerif-6f" transform="translate(317.724609 0)"/>
     <use xlink:href="#DejaVuSerif-6e" transform="translate(377.929688 0)"/>
     <use xlink:href="#DejaVuSerif-5f" transform="translate(442.333984 0)"/>
     <use xlink:href="#DejaVuSerif-70" transform="translate(492.333984 0)"/>
     <use xlink:href="#DejaVuSerif-6f" transform="translate(556.347656 0)"/>
     <use xlink:href="#DejaVuSerif-6c" transform="translate(616.552734 0)"/>
     <use xlink:href="#DejaVuSerif-69" transform="translate(648.535156 0)"/>
     <use xlink:href="#DejaVuSerif-63" transform="translate(680.517578 0)"/>
     <use xlink:href="#DejaVuSerif-79" transform="translate(736.523438 0)"/>
     <use xlink:href="#DejaVuSerif-2f" transform="translate(793.017578 0)"/>
     <use xlink:href="#DejaVuSerif-70" transform="translate(826.708984 0)"/>
     <use xlink:href="#DejaVuSerif-75" transform="translate(890.722656 0)"/>
     <use xlink:href="#DejaVuSerif-73" transform="translate(955.126953 0)"/>
     <use xlink:href="#DejaVuSerif-68" transform="translate(1006.445312 0)"/>
     <use xlink:href="#DejaVuSerif-74" transform="translate(1070.849609 0)"/>
    </g>
   </g>
   <g id="text_16">
    <!-- act/aloha_transfer_cube -->
    <g style="fill: #1a1a1a; opacity: 0.75" transform="translate(167.495366 135.982594) scale(0.05 -0.05)">
     <defs>
      <path id="DejaVuSerif-62" d="M 738 331 
L 738 4531 
L 184 4531 
L 184 4863 
L 1313 4863 
L 1313 2803 
Q 1481 3116 1742 3264 
Q 2003 3413 2388 3413 
Q 3000 3413 3387 2928 
Q 3775 2444 3775 1663 
Q 3775 881 3387 395 
Q 3000 -91 2388 -91 
Q 2003 -91 1742 57 
Q 1481 206 1313 519 
L 1313 0 
L 184 0 
L 184 331 
L 738 331 
z
M 1313 1497 
Q 1313 897 1542 583 
Q 1772 269 2209 269 
Q 2650 269 2876 622 
Q 3103 975 3103 1663 
Q 3103 2353 2876 2703 
Q 2650 3053 2209 3053 
Q 1772 3053 1542 2737 
Q 1313 2422 1313 1825 
L 1313 1497 
z
" transform="scale(0.015625)"/>
     </defs>
     <use xlink:href="#DejaVuSerif-61"/>
     <use xlink:href="#DejaVuSerif-63" transform="translate(59.619141 0)"/>
     <use xlink:href="#DejaVuSerif-74" transform="translate(115.625 0)"/>
     <use xlink:href="#DejaVuSerif-2f" transform="translate(155.810547 0)"/>
     <use xlink:href="#DejaVuSerif-61" transform="translate(189.501953 0)"/>
     <use xlink:href="#DejaVuSerif-6c" transform="translate(249.121094 0)"/>
     <use xlink:href="#DejaVuSerif-6f" transform="translate(281.103516 0)"/>
     <use xlink:href="#DejaVuSerif-68" transform="translate(341.308594 0)"/>
     <use xlink:href="#DejaVuSerif-61" transform="translate(405.712891 0)"/>
     <use xlink:href="#DejaVuSerif-5f" transform="translate(465.332031 0)"/>
     <use xlink:href="#DejaVuSerif-74" transform="translate(515.332031 0)"/>
     <use xlink:href="#DejaVuSerif-72" transform="translate(555.517578 0)"/>
     <use xlink:href="#DejaVuSerif-61" transform="translate(603.320312 0)"/>
     <use xlink:href="#DejaVuSerif-6e" transform="translate(662.939453 0)"/>
     <use xlink:href="#DejaVuSerif-73" transform="translate(727.34375 0)"/>
     <use xlink:href="#DejaVuSerif-66" transform="translate(778.662109 0)"/>
     <use xlink:href="#DejaVuSerif-65" transform="translate(815.673828 0)"/>
     <use xlink:href="#DejaVuSerif-72" transform="translate(874.853516 0)"/>
     <use xlink:href="#DejaVuSerif-5f" transform="translate(922.65625 0)"/>
     <use xlink:href="#DejaVuSerif-63" transform="translate(972.65625 0)"/>
     <use xlink:href="#DejaVuSerif-75" transform="translate(1028.662109 0)"/>
     <use xlink:href="#DejaVuSerif-62" transform="translate(1093.066406 0)"/>
     <use xlink:href="#DejaVuSerif-65" transform="translate(1157.080078 0)"/>
    </g>
   </g>
   <g id="text_17">
    <!-- smolvla_libero/libero_spatial -->
    <g style="fill: #1a1a1a; opacity: 0.75" transform="translate(221.406433 47.822594) scale(0.05 -0.05)">
     <defs>
      <path id="DejaVuSerif-76" d="M 1581 0 
L 359 2988 
L -19 2988 
L -19 3322 
L 1509 3322 
L 1509 2988 
L 978 2988 
L 1913 703 
L 2847 2988 
L 2350 2988 
L 2350 3322 
L 3597 3322 
L 3597 2988 
L 3225 2988 
L 2003 0 
L 1581 0 
z
" transform="scale(0.015625)"/>
     </defs>
     <use xlink:href="#DejaVuSerif-73"/>
     <use xlink:href="#DejaVuSerif-6d" transform="translate(51.318359 0)"/>
     <use xlink:href="#DejaVuSerif-6f" transform="translate(146.142578 0)"/>
     <use xlink:href="#DejaVuSerif-6c" transform="translate(206.347656 0)"/>
     <use xlink:href="#DejaVuSerif-76" transform="translate(238.330078 0)"/>
     <use xlink:href="#DejaVuSerif-6c" transform="translate(294.824219 0)"/>
     <use xlink:href="#DejaVuSerif-61" transform="translate(326.806641 0)"/>
     <use xlink:href="#DejaVuSerif-5f" transform="translate(386.425781 0)"/>
     <use xlink:href="#DejaVuSerif-6c" transform="translate(436.425781 0)"/>
     <use xlink:href="#DejaVuSerif-69" transform="translate(468.408203 0)"/>
     <use xlink:href="#DejaVuSerif-62" transform="translate(500.390625 0)"/>
     <use xlink:href="#DejaVuSerif-65" transform="translate(564.404297 0)"/>
     <use xlink:href="#DejaVuSerif-72" transform="translate(623.583984 0)"/>
     <use xlink:href="#DejaVuSerif-6f" transform="translate(671.386719 0)"/>
     <use xlink:href="#DejaVuSerif-2f" transform="translate(731.591797 0)"/>
     <use xlink:href="#DejaVuSerif-6c" transform="translate(765.283203 0)"/>
     <use xlink:href="#DejaVuSerif-69" transform="translate(797.265625 0)"/>
     <use xlink:href="#DejaVuSerif-62" transform="translate(829.248047 0)"/>
     <use xlink:href="#DejaVuSerif-65" transform="translate(893.261719 0)"/>
     <use xlink:href="#DejaVuSerif-72" transform="translate(952.441406 0)"/>
     <use xlink:href="#DejaVuSerif-6f" transform="translate(1000.244141 0)"/>
     <use xlink:href="#DejaVuSerif-5f" transform="translate(1060.449219 0)"/>
     <use xlink:href="#DejaVuSerif-73" transform="translate(1110.449219 0)"/>
     <use xlink:href="#DejaVuSerif-70" transform="translate(1161.767578 0)"/>
     <use xlink:href="#DejaVuSerif-61" transform="translate(1225.78125 0)"/>
     <use xlink:href="#DejaVuSerif-74" transform="translate(1285.400391 0)"/>
     <use xlink:href="#DejaVuSerif-69" transform="translate(1325.585938 0)"/>
     <use xlink:href="#DejaVuSerif-61" transform="translate(1357.568359 0)"/>
     <use xlink:href="#DejaVuSerif-6c" transform="translate(1417.1875 0)"/>
    </g>
   </g>
   <g id="text_18">
    <!-- smolvla_libero/libero_object -->
    <g style="fill: #1a1a1a; opacity: 0.75" transform="translate(229.493093 76.590594) scale(0.05 -0.05)">
     <defs>
      <path id="DejaVuSerif-6a" d="M 641 4353 
Q 641 4497 745 4603 
Q 850 4709 997 4709 
Q 1141 4709 1245 4603 
Q 1350 4497 1350 4353 
Q 1350 4206 1248 4103 
Q 1147 4000 997 4000 
Q 850 4000 745 4103 
Q 641 4206 641 4353 
z
M 781 2988 
L 238 2988 
L 238 3322 
L 1356 3322 
L 1356 -325 
Q 1356 -838 1051 -1130 
Q 747 -1422 213 -1422 
Q -13 -1422 -217 -1370 
Q -422 -1319 -616 -1216 
L -616 -531 
L -319 -531 
Q -297 -831 -164 -972 
Q -31 -1113 225 -1113 
Q 509 -1113 645 -920 
Q 781 -728 781 -325 
L 781 2988 
z
" transform="scale(0.015625)"/>
     </defs>
     <use xlink:href="#DejaVuSerif-73"/>
     <use xlink:href="#DejaVuSerif-6d" transform="translate(51.318359 0)"/>
     <use xlink:href="#DejaVuSerif-6f" transform="translate(146.142578 0)"/>
     <use xlink:href="#DejaVuSerif-6c" transform="translate(206.347656 0)"/>
     <use xlink:href="#DejaVuSerif-76" transform="translate(238.330078 0)"/>
     <use xlink:href="#DejaVuSerif-6c" transform="translate(294.824219 0)"/>
     <use xlink:href="#DejaVuSerif-61" transform="translate(326.806641 0)"/>
     <use xlink:href="#DejaVuSerif-5f" transform="translate(386.425781 0)"/>
     <use xlink:href="#DejaVuSerif-6c" transform="translate(436.425781 0)"/>
     <use xlink:href="#DejaVuSerif-69" transform="translate(468.408203 0)"/>
     <use xlink:href="#DejaVuSerif-62" transform="translate(500.390625 0)"/>
     <use xlink:href="#DejaVuSerif-65" transform="translate(564.404297 0)"/>
     <use xlink:href="#DejaVuSerif-72" transform="translate(623.583984 0)"/>
     <use xlink:href="#DejaVuSerif-6f" transform="translate(671.386719 0)"/>
     <use xlink:href="#DejaVuSerif-2f" transform="translate(731.591797 0)"/>
     <use xlink:href="#DejaVuSerif-6c" transform="translate(765.283203 0)"/>
     <use xlink:href="#DejaVuSerif-69" transform="translate(797.265625 0)"/>
     <use xlink:href="#DejaVuSerif-62" transform="translate(829.248047 0)"/>
     <use xlink:href="#DejaVuSerif-65" transform="translate(893.261719 0)"/>
     <use xlink:href="#DejaVuSerif-72" transform="translate(952.441406 0)"/>
     <use xlink:href="#DejaVuSerif-6f" transform="translate(1000.244141 0)"/>
     <use xlink:href="#DejaVuSerif-5f" transform="translate(1060.449219 0)"/>
     <use xlink:href="#DejaVuSerif-6f" transform="translate(1110.449219 0)"/>
     <use xlink:href="#DejaVuSerif-62" transform="translate(1170.654297 0)"/>
     <use xlink:href="#DejaVuSerif-6a" transform="translate(1234.667969 0)"/>
     <use xlink:href="#DejaVuSerif-65" transform="translate(1265.673828 0)"/>
     <use xlink:href="#DejaVuSerif-63" transform="translate(1324.853516 0)"/>
     <use xlink:href="#DejaVuSerif-74" transform="translate(1380.859375 0)"/>
    </g>
   </g>
   <g id="text_19">
    <!-- smolvla_libero/libero_goal -->
    <g style="fill: #1a1a1a; opacity: 0.75" transform="translate(224.101986 30.190594) scale(0.05 -0.05)">
     <defs>
      <path id="DejaVuSerif-67" d="M 3359 2988 
L 3359 72 
Q 3359 -644 2965 -1033 
Q 2572 -1422 1844 -1422 
Q 1516 -1422 1216 -1362 
Q 916 -1303 641 -1184 
L 641 -488 
L 941 -488 
Q 997 -813 1206 -963 
Q 1416 -1113 1806 -1113 
Q 2313 -1113 2548 -827 
Q 2784 -541 2784 72 
L 2784 519 
Q 2616 206 2355 57 
Q 2094 -91 1709 -91 
Q 1097 -91 708 395 
Q 319 881 319 1663 
Q 319 2444 706 2928 
Q 1094 3413 1709 3413 
Q 2094 3413 2355 3264 
Q 2616 3116 2784 2803 
L 2784 3322 
L 3909 3322 
L 3909 2988 
L 3359 2988 
z
M 2784 1825 
Q 2784 2422 2554 2737 
Q 2325 3053 1888 3053 
Q 1444 3053 1217 2703 
Q 991 2353 991 1663 
Q 991 975 1217 622 
Q 1444 269 1888 269 
Q 2325 269 2554 583 
Q 2784 897 2784 1497 
L 2784 1825 
z
" transform="scale(0.015625)"/>
     </defs>
     <use xlink:href="#DejaVuSerif-73"/>
     <use xlink:href="#DejaVuSerif-6d" transform="translate(51.318359 0)"/>
     <use xlink:href="#DejaVuSerif-6f" transform="translate(146.142578 0)"/>
     <use xlink:href="#DejaVuSerif-6c" transform="translate(206.347656 0)"/>
     <use xlink:href="#DejaVuSerif-76" transform="translate(238.330078 0)"/>
     <use xlink:href="#DejaVuSerif-6c" transform="translate(294.824219 0)"/>
     <use xlink:href="#DejaVuSerif-61" transform="translate(326.806641 0)"/>
     <use xlink:href="#DejaVuSerif-5f" transform="translate(386.425781 0)"/>
     <use xlink:href="#DejaVuSerif-6c" transform="translate(436.425781 0)"/>
     <use xlink:href="#DejaVuSerif-69" transform="translate(468.408203 0)"/>
     <use xlink:href="#DejaVuSerif-62" transform="translate(500.390625 0)"/>
     <use xlink:href="#DejaVuSerif-65" transform="translate(564.404297 0)"/>
     <use xlink:href="#DejaVuSerif-72" transform="translate(623.583984 0)"/>
     <use xlink:href="#DejaVuSerif-6f" transform="translate(671.386719 0)"/>
     <use xlink:href="#DejaVuSerif-2f" transform="translate(731.591797 0)"/>
     <use xlink:href="#DejaVuSerif-6c" transform="translate(765.283203 0)"/>
     <use xlink:href="#DejaVuSerif-69" transform="translate(797.265625 0)"/>
     <use xlink:href="#DejaVuSerif-62" transform="translate(829.248047 0)"/>
     <use xlink:href="#DejaVuSerif-65" transform="translate(893.261719 0)"/>
     <use xlink:href="#DejaVuSerif-72" transform="translate(952.441406 0)"/>
     <use xlink:href="#DejaVuSerif-6f" transform="translate(1000.244141 0)"/>
     <use xlink:href="#DejaVuSerif-5f" transform="translate(1060.449219 0)"/>
     <use xlink:href="#DejaVuSerif-67" transform="translate(1110.449219 0)"/>
     <use xlink:href="#DejaVuSerif-6f" transform="translate(1174.462891 0)"/>
     <use xlink:href="#DejaVuSerif-61" transform="translate(1234.667969 0)"/>
     <use xlink:href="#DejaVuSerif-6c" transform="translate(1294.287109 0)"/>
    </g>
   </g>
   <g id="text_20">
    <!-- smolvla_libero/libero_10 -->
    <g style="fill: #1a1a1a; opacity: 0.75" transform="translate(195.798676 108.606594) scale(0.05 -0.05)">
     <use xlink:href="#DejaVuSerif-73"/>
     <use xlink:href="#DejaVuSerif-6d" transform="translate(51.318359 0)"/>
     <use xlink:href="#DejaVuSerif-6f" transform="translate(146.142578 0)"/>
     <use xlink:href="#DejaVuSerif-6c" transform="translate(206.347656 0)"/>
     <use xlink:href="#DejaVuSerif-76" transform="translate(238.330078 0)"/>
     <use xlink:href="#DejaVuSerif-6c" transform="translate(294.824219 0)"/>
     <use xlink:href="#DejaVuSerif-61" transform="translate(326.806641 0)"/>
     <use xlink:href="#DejaVuSerif-5f" transform="translate(386.425781 0)"/>
     <use xlink:href="#DejaVuSerif-6c" transform="translate(436.425781 0)"/>
     <use xlink:href="#DejaVuSerif-69" transform="translate(468.408203 0)"/>
     <use xlink:href="#DejaVuSerif-62" transform="translate(500.390625 0)"/>
     <use xlink:href="#DejaVuSerif-65" transform="translate(564.404297 0)"/>
     <use xlink:href="#DejaVuSerif-72" transform="translate(623.583984 0)"/>
     <use xlink:href="#DejaVuSerif-6f" transform="translate(671.386719 0)"/>
     <use xlink:href="#DejaVuSerif-2f" transform="translate(731.591797 0)"/>
     <use xlink:href="#DejaVuSerif-6c" transform="translate(765.283203 0)"/>
     <use xlink:href="#DejaVuSerif-69" transform="translate(797.265625 0)"/>
     <use xlink:href="#DejaVuSerif-62" transform="translate(829.248047 0)"/>
     <use xlink:href="#DejaVuSerif-65" transform="translate(893.261719 0)"/>
     <use xlink:href="#DejaVuSerif-72" transform="translate(952.441406 0)"/>
     <use xlink:href="#DejaVuSerif-6f" transform="translate(1000.244141 0)"/>
     <use xlink:href="#DejaVuSerif-5f" transform="translate(1060.449219 0)"/>
     <use xlink:href="#DejaVuSerif-31" transform="translate(1110.449219 0)"/>
     <use xlink:href="#DejaVuSerif-30" transform="translate(1174.072266 0)"/>
    </g>
   </g>
   <g id="text_21">
    <!-- Paper-reported vs measured - N=250 each - grey = inside MDE band -->
    <g style="fill: #1a1a1a" transform="translate(7.2 14.038594) scale(0.09 -0.09)">
     <defs>
      <path id="DejaVuSerif-50" d="M 1581 2375 
L 2406 2375 
Q 2872 2375 3115 2626 
Q 3359 2878 3359 3353 
Q 3359 3831 3115 4081 
Q 2872 4331 2406 4331 
L 1581 4331 
L 1581 2375 
z
M 353 0 
L 353 331 
L 947 331 
L 947 4331 
L 353 4331 
L 353 4666 
L 2559 4666 
Q 3259 4666 3668 4311 
Q 4078 3956 4078 3353 
Q 4078 2753 3668 2397 
Q 3259 2041 2559 2041 
L 1581 2041 
L 1581 331 
L 2303 331 
L 2303 0 
L 353 0 
z
" transform="scale(0.015625)"/>
      <path id="DejaVuSerif-4d" d="M 353 0 
L 353 331 
L 947 331 
L 947 4331 
L 319 4331 
L 319 4666 
L 1678 4666 
L 3316 1344 
L 4953 4666 
L 6228 4666 
L 6228 4331 
L 5606 4331 
L 5606 331 
L 6203 331 
L 6203 0 
L 4378 0 
L 4378 331 
L 4972 331 
L 4972 3938 
L 3372 684 
L 2931 684 
L 1331 3938 
L 1331 331 
L 1925 331 
L 1925 0 
L 353 0 
z
" transform="scale(0.015625)"/>
      <path id="DejaVuSerif-44" d="M 1581 331 
L 2163 331 
Q 3072 331 3558 850 
Q 4044 1369 4044 2338 
Q 4044 3306 3559 3818 
Q 3075 4331 2163 4331 
L 1581 4331 
L 1581 331 
z
M 353 0 
L 353 331 
L 947 331 
L 947 4331 
L 353 4331 
L 353 4666 
L 2209 4666 
Q 3416 4666 4089 4050 
Q 4763 3434 4763 2338 
Q 4763 1238 4088 619 
Q 3413 0 2209 0 
L 353 0 
z
" transform="scale(0.015625)"/>
      <path id="DejaVuSerif-45" d="M 353 0 
L 353 331 
L 947 331 
L 947 4331 
L 353 4331 
L 353 4666 
L 4109 4666 
L 4109 3628 
L 3725 3628 
L 3725 4281 
L 1581 4281 
L 1581 2719 
L 3109 2719 
L 3109 3303 
L 3494 3303 
L 3494 1753 
L 3109 1753 
L 3109 2338 
L 1581 2338 
L 1581 384 
L 3775 384 
L 3775 1038 
L 4159 1038 
L 4159 0 
L 353 0 
z
" transform="scale(0.015625)"/>
     </defs>
     <use xlink:href="#DejaVuSerif-50"/>
     <use xlink:href="#DejaVuSerif-61" transform="translate(62.785156 0)"/>
     <use xlink:href="#DejaVuSerif-70" transform="translate(122.404297 0)"/>
     <use xlink:href="#DejaVuSerif-65" transform="translate(186.417969 0)"/>
     <use xlink:href="#DejaVuSerif-72" transform="translate(245.597656 0)"/>
     <use xlink:href="#DejaVuSerif-2d" transform="translate(293.400391 0)"/>
     <use xlink:href="#DejaVuSerif-72" transform="translate(327.189453 0)"/>
     <use xlink:href="#DejaVuSerif-65" transform="translate(374.992188 0)"/>
     <use xlink:href="#DejaVuSerif-70" transform="translate(434.171875 0)"/>
     <use xlink:href="#DejaVuSerif-6f" transform="translate(498.185547 0)"/>
     <use xlink:href="#DejaVuSerif-72" transform="translate(558.390625 0)"/>
     <use xlink:href="#DejaVuSerif-74" transform="translate(606.193359 0)"/>
     <use xlink:href="#DejaVuSerif-65" transform="translate(646.378906 0)"/>
     <use xlink:href="#DejaVuSerif-64" transform="translate(705.558594 0)"/>
     <use xlink:href="#DejaVuSerif-20" transform="translate(769.572266 0)"/>
     <use xlink:href="#DejaVuSerif-76" transform="translate(801.359375 0)"/>
     <use xlink:href="#DejaVuSerif-73" transform="translate(857.853516 0)"/>
     <use xlink:href="#DejaVuSerif-20" transform="translate(909.171875 0)"/>
     <use xlink:href="#DejaVuSerif-6d" transform="translate(940.958984 0)"/>
     <use xlink:href="#DejaVuSerif-65" transform="translate(1035.783203 0)"/>
     <use xlink:href="#DejaVuSerif-61" transform="translate(1094.962891 0)"/>
     <use xlink:href="#DejaVuSerif-73" transform="translate(1154.582031 0)"/>
     <use xlink:href="#DejaVuSerif-75" transform="translate(1205.900391 0)"/>
     <use xlink:href="#DejaVuSerif-72" transform="translate(1270.304688 0)"/>
     <use xlink:href="#DejaVuSerif-65" transform="translate(1318.107422 0)"/>
     <use xlink:href="#DejaVuSerif-64" transform="translate(1377.287109 0)"/>
     <use xlink:href="#DejaVuSerif-20" transform="translate(1441.300781 0)"/>
     <use xlink:href="#DejaVuSerif-2d" transform="translate(1473.087891 0)"/>
     <use xlink:href="#DejaVuSerif-20" transform="translate(1506.876953 0)"/>
     <use xlink:href="#DejaVuSerif-4e" transform="translate(1538.664062 0)"/>
     <use xlink:href="#DejaVuSerif-3d" transform="translate(1626.164062 0)"/>
     <use xlink:href="#DejaVuSerif-32" transform="translate(1709.953125 0)"/>
     <use xlink:href="#DejaVuSerif-35" transform="translate(1773.576172 0)"/>
     <use xlink:href="#DejaVuSerif-30" transform="translate(1837.199219 0)"/>
     <use xlink:href="#DejaVuSerif-20" transform="translate(1900.822266 0)"/>
     <use xlink:href="#DejaVuSerif-65" transform="translate(1932.609375 0)"/>
     <use xlink:href="#DejaVuSerif-61" transform="translate(1991.789062 0)"/>
     <use xlink:href="#DejaVuSerif-63" transform="translate(2051.408203 0)"/>
     <use xlink:href="#DejaVuSerif-68" transform="translate(2107.414062 0)"/>
     <use xlink:href="#DejaVuSerif-20" transform="translate(2171.818359 0)"/>
     <use xlink:href="#DejaVuSerif-2d" transform="translate(2203.605469 0)"/>
     <use xlink:href="#DejaVuSerif-20" transform="translate(2237.394531 0)"/>
     <use xlink:href="#DejaVuSerif-67" transform="translate(2269.181641 0)"/>
     <use xlink:href="#DejaVuSerif-72" transform="translate(2333.195312 0)"/>
     <use xlink:href="#DejaVuSerif-65" transform="translate(2380.998047 0)"/>
     <use xlink:href="#DejaVuSerif-79" transform="translate(2440.177734 0)"/>
     <use xlink:href="#DejaVuSerif-20" transform="translate(2496.671875 0)"/>
     <use xlink:href="#DejaVuSerif-3d" transform="translate(2528.458984 0)"/>
     <use xlink:href="#DejaVuSerif-20" transform="translate(2612.248047 0)"/>
     <use xlink:href="#DejaVuSerif-69" transform="translate(2644.035156 0)"/>
     <use xlink:href="#DejaVuSerif-6e" transform="translate(2676.017578 0)"/>
     <use xlink:href="#DejaVuSerif-73" transform="translate(2740.421875 0)"/>
     <use xlink:href="#DejaVuSerif-69" transform="translate(2791.740234 0)"/>
     <use xlink:href="#DejaVuSerif-64" transform="translate(2823.722656 0)"/>
     <use xlink:href="#DejaVuSerif-65" transform="translate(2887.736328 0)"/>
     <use xlink:href="#DejaVuSerif-20" transform="translate(2946.916016 0)"/>
     <use xlink:href="#DejaVuSerif-4d" transform="translate(2978.703125 0)"/>
     <use xlink:href="#DejaVuSerif-44" transform="translate(3081.095703 0)"/>
     <use xlink:href="#DejaVuSerif-45" transform="translate(3161.271484 0)"/>
     <use xlink:href="#DejaVuSerif-20" transform="translate(3234.269531 0)"/>
     <use xlink:href="#DejaVuSerif-62" transform="translate(3266.056641 0)"/>
     <use xlink:href="#DejaVuSerif-61" transform="translate(3330.070312 0)"/>
     <use xlink:href="#DejaVuSerif-6e" transform="translate(3389.689453 0)"/>
     <use xlink:href="#DejaVuSerif-64" transform="translate(3454.09375 0)"/>
    </g>
   </g>
  </g>
 </g>
 <defs>
  <clipPath id="pd8329368c0">
   <rect x="93.41098" y="20.038594" width="144.212103" height="124.12"/>
  </clipPath>
 </defs>
</svg>
