<?xml version="1.0" encoding="utf-8" standalone="no"?>
<!DOCTYPE svg PUBLIC "-//W3C//DTD SVG 1.1//EN"
  "http://www.w3.org/Graphics/SVG/1.1/DTD/svg11.dtd">
<svg xmlns:xlink="http://www.w3.org/1999/xlink" width="511.008125pt" height="275.586781pt" viewBox="0 0 511.008125 275.586781" xmlns="http://www.w3.org/2000/svg" version="1.1">
 <metadata>
  <rdf:RDF xmlns:dc="http://purl.org/dc/elements/1.1/" xmlns:cc="http://creativecommons.org/ns#" xmlns:rdf="http://www.w3.org/1999/02/22-rdf-syntax-ns#">
   <cc:Work>
    <dc:type rdf:resource="http://purl.org/dc/dcmitype/StillImage"/>
    <dc:date>2026-05-27T15:20:35.631453</dc:date>
    <dc:format>image/svg+xml</dc:format>
    <dc:creator>
     <cc:Agent>
      <dc:title>Matplotlib v3.10.8, https://matplotlib.org/</dc:title>
     </cc:Agent>
    </dc:creator>
   </cc:Work>
  </rdf:RDF>
 </metadata>
 <defs>
  <style type="text/css">*{stroke-linejoin: round; stroke-linecap: butt}</style>
 </defs>
 <g id="figure_1">
  <g id="patch_1">
   <path d="M 0 275.586781 
L 511.008125 275.586781 
L 511.008125 0 
L 0 0 
L 0 275.586781 
z
" style="fill: none; opacity: 0"/>
  </g>
  <g id="axes_1">
   <g id="patch_2">
    <path d="M 73.939063 240.232719 
L 437.069063 240.232719 
L 437.069063 23.077969 
L 73.939063 23.077969 
L 73.939063 240.232719 
z
" style="fill: none"/>
   </g>
   <g id="patch_3">
    <path d="M 102.60722 240.232719 
L 217.279852 240.232719 
L 217.279852 236.923694 
L 102.60722 236.923694 
z
" clip-path="url(#p42dd1a5645)" style="fill: #f87171; stroke: #1a1a1a; stroke-width: 1.2; stroke-linejoin: miter"/>
   </g>
   <g id="patch_4">
    <path d="M 293.728273 240.232719 
L 408.400905 240.232719 
L 408.400905 82.226786 
L 293.728273 82.226786 
z
" clip-path="url(#p42dd1a5645)" style="fill: #34d399; stroke: #1a1a1a; stroke-width: 1.2; stroke-linejoin: miter"/>
   </g>
   <g id="matplotlib.axis_1">
    <g id="xtick_1">
     <g id="line2d_1">
      <defs>
       <path id="m0924278f06" d="M 0 0 
L 0 3.5 
" style="stroke: #1a1a1a; stroke-width: 0.8"/>
      </defs>
      <g>
       <use xlink:href="#m0924278f06" x="159.943536" y="240.232719" style="fill: #1a1a1a; stroke: #1a1a1a; stroke-width: 0.8"/>
      </g>
     </g>
     <g id="text_1">
      <!-- v1.0.0 Hub default -->
      <g style="fill: #1a1a1a" transform="translate(113.388067 254.831156) scale(0.1 -0.1)">
       <defs>
        <path id="DejaVuSans-76" d="M 191 3500 
L 800 3500 
L 1894 563 
L 2988 3500 
L 3597 3500 
L 2284 0 
L 1503 0 
L 191 3500 
z
" transform="scale(0.015625)"/>
        <path id="DejaVuSans-31" d="M 794 531 
L 1825 531 
L 1825 4091 
L 703 3866 
L 703 4441 
L 1819 4666 
L 2450 4666 
L 2450 531 
L 3481 531 
L 3481 0 
L 794 0 
L 794 531 
z
" transform="scale(0.015625)"/>
        <path id="DejaVuSans-2e" d="M 684 794 
L 1344 794 
L 1344 0 
L 684 0 
L 684 794 
z
" transform="scale(0.015625)"/>
        <path id="DejaVuSans-30" d="M 2034 4250 
Q 1547 4250 1301 3770 
Q 1056 3291 1056 2328 
Q 1056 1369 1301 889 
Q 1547 409 2034 409 
Q 2525 409 2770 889 
Q 3016 1369 3016 2328 
Q 3016 3291 2770 3770 
Q 2525 4250 2034 4250 
z
M 2034 4750 
Q 2819 4750 3233 4129 
Q 3647 3509 3647 2328 
Q 3647 1150 3233 529 
Q 2819 -91 2034 -91 
Q 1250 -91 836 529 
Q 422 1150 422 2328 
Q 422 3509 836 4129 
Q 1250 4750 2034 4750 
z
" transform="scale(0.015625)"/>
        <path id="DejaVuSans-20" transform="scale(0.015625)"/>
        <path id="DejaVuSans-48" d="M 628 4666 
L 1259 4666 
L 1259 2753 
L 3553 2753 
L 3553 4666 
L 4184 4666 
L 4184 0 
L 3553 0 
L 3553 2222 
L 1259 2222 
L 1259 0 
L 628 0 
L 628 4666 
z
" transform="scale(0.015625)"/>
        <path id="DejaVuSans-75" d="M 544 1381 
L 544 3500 
L 1119 3500 
L 1119 1403 
Q 1119 906 1312 657 
Q 1506 409 1894 409 
Q 2359 409 2629 706 
Q 2900 1003 2900 1516 
L 2900 3500 
L 3475 3500 
L 3475 0 
L 2900 0 
L 2900 538 
Q 2691 219 2414 64 
Q 2138 -91 1772 -91 
Q 1169 -91 856 284 
Q 544 659 544 1381 
z
M 1991 3584 
L 1991 3584 
z
" transform="scale(0.015625)"/>
        <path id="DejaVuSans-62" d="M 3116 1747 
Q 3116 2381 2855 2742 
Q 2594 3103 2138 3103 
Q 1681 3103 1420 2742 
Q 1159 2381 1159 1747 
Q 1159 1113 1420 752 
Q 1681 391 2138 391 
Q 2594 391 2855 752 
Q 3116 1113 3116 1747 
z
M 1159 2969 
Q 1341 3281 1617 3432 
Q 1894 3584 2278 3584 
Q 2916 3584 3314 3078 
Q 3713 2572 3713 1747 
Q 3713 922 3314 415 
Q 2916 -91 2278 -91 
Q 1894 -91 1617 61 
Q 1341 213 1159 525 
L 1159 0 
L 581 0 
L 581 4863 
L 1159 4863 
L 1159 2969 
z
" transform="scale(0.015625)"/>
        <path id="DejaVuSans-64" d="M 2906 2969 
L 2906 4863 
L 3481 4863 
L 3481 0 
L 2906 0 
L 2906 525 
Q 2725 213 2448 61 
Q 2172 -91 1784 -91 
Q 1150 -91 751 415 
Q 353 922 353 1747 
Q 353 2572 751 3078 
Q 1150 3584 1784 3584 
Q 2172 3584 2448 3432 
Q 2725 3281 2906 2969 
z
M 947 1747 
Q 947 1113 1208 752 
Q 1469 391 1925 391 
Q 2381 391 2643 752 
Q 2906 1113 2906 1747 
Q 2906 2381 2643 2742 
Q 2381 3103 1925 3103 
Q 1469 3103 1208 2742 
Q 947 2381 947 1747 
z
" transform="scale(0.015625)"/>
        <path id="DejaVuSans-65" d="M 3597 1894 
L 3597 1613 
L 953 1613 
Q 991 1019 1311 708 
Q 1631 397 2203 397 
Q 2534 397 2845 478 
Q 3156 559 3463 722 
L 3463 178 
Q 3153 47 2828 -22 
Q 2503 -91 2169 -91 
Q 1331 -91 842 396 
Q 353 884 353 1716 
Q 353 2575 817 3079 
Q 1281 3584 2069 3584 
Q 2775 3584 3186 3129 
Q 3597 2675 3597 1894 
z
M 3022 2063 
Q 3016 2534 2758 2815 
Q 2500 3097 2075 3097 
Q 1594 3097 1305 2825 
Q 1016 2553 972 2059 
L 3022 2063 
z
" transform="scale(0.015625)"/>
        <path id="DejaVuSans-66" d="M 2375 4863 
L 2375 4384 
L 1825 4384 
Q 1516 4384 1395 4259 
Q 1275 4134 1275 3809 
L 1275 3500 
L 2222 3500 
L 2222 3053 
L 1275 3053 
L 1275 0 
L 697 0 
L 697 3053 
L 147 3053 
L 147 3500 
L 697 3500 
L 697 3744 
Q 697 4328 969 4595 
Q 1241 4863 1831 4863 
L 2375 4863 
z
" transform="scale(0.015625)"/>
        <path id="DejaVuSans-61" d="M 2194 1759 
Q 1497 1759 1228 1600 
Q 959 1441 959 1056 
Q 959 750 1161 570 
Q 1363 391 1709 391 
Q 2188 391 2477 730 
Q 2766 1069 2766 1631 
L 2766 1759 
L 2194 1759 
z
M 3341 1997 
L 3341 0 
L 2766 0 
L 2766 531 
Q 2569 213 2275 61 
Q 1981 -91 1556 -91 
Q 1019 -91 701 211 
Q 384 513 384 1019 
Q 384 1609 779 1909 
Q 1175 2209 1959 2209 
L 2766 2209 
L 2766 2266 
Q 2766 2663 2505 2880 
Q 2244 3097 1772 3097 
Q 1472 3097 1187 3025 
Q 903 2953 641 2809 
L 641 3341 
Q 956 3463 1253 3523 
Q 1550 3584 1831 3584 
Q 2591 3584 2966 3190 
Q 3341 2797 3341 1997 
z
" transform="scale(0.015625)"/>
        <path id="DejaVuSans-6c" d="M 603 4863 
L 1178 4863 
L 1178 0 
L 603 0 
L 603 4863 
z
" transform="scale(0.015625)"/>
        <path id="DejaVuSans-74" d="M 1172 4494 
L 1172 3500 
L 2356 3500 
L 2356 3053 
L 1172 3053 
L 1172 1153 
Q 1172 725 1289 603 
Q 1406 481 1766 481 
L 2356 481 
L 2356 0 
L 1766 0 
Q 1100 0 847 248 
Q 594 497 594 1153 
L 594 3053 
L 172 3053 
L 172 3500 
L 594 3500 
L 594 4494 
L 1172 4494 
z
" transform="scale(0.015625)"/>
       </defs>
       <use xlink:href="#DejaVuSans-76"/>
       <use xlink:href="#DejaVuSans-31" transform="translate(59.179688 0)"/>
       <use xlink:href="#DejaVuSans-2e" transform="translate(122.802734 0)"/>
       <use xlink:href="#DejaVuSans-30" transform="translate(154.589844 0)"/>
       <use xlink:href="#DejaVuSans-2e" transform="translate(218.212891 0)"/>
       <use xlink:href="#DejaVuSans-30" transform="translate(250 0)"/>
       <use xlink:href="#DejaVuSans-20" transform="translate(313.623047 0)"/>
       <use xlink:href="#DejaVuSans-48" transform="translate(345.410156 0)"/>
       <use xlink:href="#DejaVuSans-75" transform="translate(420.605469 0)"/>
       <use xlink:href="#DejaVuSans-62" transform="translate(483.984375 0)"/>
       <use xlink:href="#DejaVuSans-20" transform="translate(547.460938 0)"/>
       <use xlink:href="#DejaVuSans-64" transform="translate(579.248047 0)"/>
       <use xlink:href="#DejaVuSans-65" transform="translate(642.724609 0)"/>
       <use xlink:href="#DejaVuSans-66" transform="translate(704.248047 0)"/>
       <use xlink:href="#DejaVuSans-61" transform="translate(739.453125 0)"/>
       <use xlink:href="#DejaVuSans-75" transform="translate(800.732422 0)"/>
       <use xlink:href="#DejaVuSans-6c" transform="translate(864.111328 0)"/>
       <use xlink:href="#DejaVuSans-74" transform="translate(891.894531 0)"/>
      </g>
      <!-- n_action_steps=100 -->
      <g style="fill: #1a1a1a" transform="translate(109.230255 266.028969) scale(0.1 -0.1)">
       <defs>
        <path id="DejaVuSans-6e" d="M 3513 2113 
L 3513 0 
L 2938 0 
L 2938 2094 
Q 2938 2591 2744 2837 
Q 2550 3084 2163 3084 
Q 1697 3084 1428 2787 
Q 1159 2491 1159 1978 
L 1159 0 
L 581 0 
L 581 3500 
L 1159 3500 
L 1159 2956 
Q 1366 3272 1645 3428 
Q 1925 3584 2291 3584 
Q 2894 3584 3203 3211 
Q 3513 2838 3513 2113 
z
" transform="scale(0.015625)"/>
        <path id="DejaVuSans-5f" d="M 3263 -1063 
L 3263 -1509 
L -63 -1509 
L -63 -1063 
L 3263 -1063 
z
" transform="scale(0.015625)"/>
        <path id="DejaVuSans-63" d="M 3122 3366 
L 3122 2828 
Q 2878 2963 2633 3030 
Q 2388 3097 2138 3097 
Q 1578 3097 1268 2742 
Q 959 2388 959 1747 
Q 959 1106 1268 751 
Q 1578 397 2138 397 
Q 2388 397 2633 464 
Q 2878 531 3122 666 
L 3122 134 
Q 2881 22 2623 -34 
Q 2366 -91 2075 -91 
Q 1284 -91 818 406 
Q 353 903 353 1747 
Q 353 2603 823 3093 
Q 1294 3584 2113 3584 
Q 2378 3584 2631 3529 
Q 2884 3475 3122 3366 
z
" transform="scale(0.015625)"/>
        <path id="DejaVuSans-69" d="M 603 3500 
L 1178 3500 
L 1178 0 
L 603 0 
L 603 3500 
z
M 603 4863 
L 1178 4863 
L 1178 4134 
L 603 4134 
L 603 4863 
z
" transform="scale(0.015625)"/>
        <path id="DejaVuSans-6f" d="M 1959 3097 
Q 1497 3097 1228 2736 
Q 959 2375 959 1747 
Q 959 1119 1226 758 
Q 1494 397 1959 397 
Q 2419 397 2687 759 
Q 2956 1122 2956 1747 
Q 2956 2369 2687 2733 
Q 2419 3097 1959 3097 
z
M 1959 3584 
Q 2709 3584 3137 3096 
Q 3566 2609 3566 1747 
Q 3566 888 3137 398 
Q 2709 -91 1959 -91 
Q 1206 -91 779 398 
Q 353 888 353 1747 
Q 353 2609 779 3096 
Q 1206 3584 1959 3584 
z
" transform="scale(0.015625)"/>
        <path id="DejaVuSans-73" d="M 2834 3397 
L 2834 2853 
Q 2591 2978 2328 3040 
Q 2066 3103 1784 3103 
Q 1356 3103 1142 2972 
Q 928 2841 928 2578 
Q 928 2378 1081 2264 
Q 1234 2150 1697 2047 
L 1894 2003 
Q 2506 1872 2764 1633 
Q 3022 1394 3022 966 
Q 3022 478 2636 193 
Q 2250 -91 1575 -91 
Q 1294 -91 989 -36 
Q 684 19 347 128 
L 347 722 
Q 666 556 975 473 
Q 1284 391 1588 391 
Q 1994 391 2212 530 
Q 2431 669 2431 922 
Q 2431 1156 2273 1281 
Q 2116 1406 1581 1522 
L 1381 1569 
Q 847 1681 609 1914 
Q 372 2147 372 2553 
Q 372 3047 722 3315 
Q 1072 3584 1716 3584 
Q 2034 3584 2315 3537 
Q 2597 3491 2834 3397 
z
" transform="scale(0.015625)"/>
        <path id="DejaVuSans-70" d="M 1159 525 
L 1159 -1331 
L 581 -1331 
L 581 3500 
L 1159 3500 
L 1159 2969 
Q 1341 3281 1617 3432 
Q 1894 3584 2278 3584 
Q 2916 3584 3314 3078 
Q 3713 2572 3713 1747 
Q 3713 922 3314 415 
Q 2916 -91 2278 -91 
Q 1894 -91 1617 61 
Q 1341 213 1159 525 
z
M 3116 1747 
Q 3116 2381 2855 2742 
Q 2594 3103 2138 3103 
Q 1681 3103 1420 2742 
Q 1159 2381 1159 1747 
Q 1159 1113 1420 752 
Q 1681 391 2138 391 
Q 2594 391 2855 752 
Q 3116 1113 3116 1747 
z
" transform="scale(0.015625)"/>
        <path id="DejaVuSans-3d" d="M 678 2906 
L 4684 2906 
L 4684 2381 
L 678 2381 
L 678 2906 
z
M 678 1631 
L 4684 1631 
L 4684 1100 
L 678 1100 
L 678 1631 
z
" transform="scale(0.015625)"/>
       </defs>
       <use xlink:href="#DejaVuSans-6e"/>
       <use xlink:href="#DejaVuSans-5f" transform="translate(63.378906 0)"/>
       <use xlink:href="#DejaVuSans-61" transform="translate(113.378906 0)"/>
       <use xlink:href="#DejaVuSans-63" transform="translate(174.658203 0)"/>
       <use xlink:href="#DejaVuSans-74" transform="translate(229.638672 0)"/>
       <use xlink:href="#DejaVuSans-69" transform="translate(268.847656 0)"/>
       <use xlink:href="#DejaVuSans-6f" transform="translate(296.630859 0)"/>
       <use xlink:href="#DejaVuSans-6e" transform="translate(357.8125 0)"/>
       <use xlink:href="#DejaVuSans-5f" transform="translate(421.191406 0)"/>
       <use xlink:href="#DejaVuSans-73" transform="translate(471.191406 0)"/>
       <use xlink:href="#DejaVuSans-74" transform="translate(523.291016 0)"/>
       <use xlink:href="#DejaVuSans-65" transform="translate(562.5 0)"/>
       <use xlink:href="#DejaVuSans-70" transform="translate(624.023438 0)"/>
       <use xlink:href="#DejaVuSans-73" transform="translate(687.5 0)"/>
       <use xlink:href="#DejaVuSans-3d" transform="translate(739.599609 0)"/>
       <use xlink:href="#DejaVuSans-31" transform="translate(823.388672 0)"/>
       <use xlink:href="#DejaVuSans-30" transform="translate(887.011719 0)"/>
       <use xlink:href="#DejaVuSans-30" transform="translate(950.634766 0)"/>
      </g>
     </g>
    </g>
    <g id="xtick_2">
     <g id="line2d_2">
      <g>
       <use xlink:href="#m0924278f06" x="351.064589" y="240.232719" style="fill: #1a1a1a; stroke: #1a1a1a; stroke-width: 0.8"/>
      </g>
     </g>
     <g id="text_2">
      <!-- v1.0.2 paper -->
      <g style="fill: #1a1a1a" transform="translate(319.249745 254.831156) scale(0.1 -0.1)">
       <defs>
        <path id="DejaVuSans-32" d="M 1228 531 
L 3431 531 
L 3431 0 
L 469 0 
L 469 531 
Q 828 903 1448 1529 
Q 2069 2156 2228 2338 
Q 2531 2678 2651 2914 
Q 2772 3150 2772 3378 
Q 2772 3750 2511 3984 
Q 2250 4219 1831 4219 
Q 1534 4219 1204 4116 
Q 875 4013 500 3803 
L 500 4441 
Q 881 4594 1212 4672 
Q 1544 4750 1819 4750 
Q 2544 4750 2975 4387 
Q 3406 4025 3406 3419 
Q 3406 3131 3298 2873 
Q 3191 2616 2906 2266 
Q 2828 2175 2409 1742 
Q 1991 1309 1228 531 
z
" transform="scale(0.015625)"/>
        <path id="DejaVuSans-72" d="M 2631 2963 
Q 2534 3019 2420 3045 
Q 2306 3072 2169 3072 
Q 1681 3072 1420 2755 
Q 1159 2438 1159 1844 
L 1159 0 
L 581 0 
L 581 3500 
L 1159 3500 
L 1159 2956 
Q 1341 3275 1631 3429 
Q 1922 3584 2338 3584 
Q 2397 3584 2469 3576 
Q 2541 3569 2628 3553 
L 2631 2963 
z
" transform="scale(0.015625)"/>
       </defs>
       <use xlink:href="#DejaVuSans-76"/>
       <use xlink:href="#DejaVuSans-31" transform="translate(59.179688 0)"/>
       <use xlink:href="#DejaVuSans-2e" transform="translate(122.802734 0)"/>
       <use xlink:href="#DejaVuSans-30" transform="translate(154.589844 0)"/>
       <use xlink:href="#DejaVuSans-2e" transform="translate(218.212891 0)"/>
       <use xlink:href="#DejaVuSans-32" transform="translate(250 0)"/>
       <use xlink:href="#DejaVuSans-20" transform="translate(313.623047 0)"/>
       <use xlink:href="#DejaVuSans-70" transform="translate(345.410156 0)"/>
       <use xlink:href="#DejaVuSans-61" transform="translate(408.886719 0)"/>
       <use xlink:href="#DejaVuSans-70" transform="translate(470.166016 0)"/>
       <use xlink:href="#DejaVuSans-65" transform="translate(533.642578 0)"/>
       <use xlink:href="#DejaVuSans-72" transform="translate(595.166016 0)"/>
      </g>
      <!-- coeff=0.01, n_action_steps=1 -->
      <g style="fill: #1a1a1a" transform="translate(275.807558 266.028969) scale(0.1 -0.1)">
       <defs>
        <path id="DejaVuSans-2c" d="M 750 794 
L 1409 794 
L 1409 256 
L 897 -744 
L 494 -744 
L 750 256 
L 750 794 
z
" transform="scale(0.015625)"/>
       </defs>
       <use xlink:href="#DejaVuSans-63"/>
       <use xlink:href="#DejaVuSans-6f" transform="translate(54.980469 0)"/>
       <use xlink:href="#DejaVuSans-65" transform="translate(116.162109 0)"/>
       <use xlink:href="#DejaVuSans-66" transform="translate(177.685547 0)"/>
       <use xlink:href="#DejaVuSans-66" transform="translate(212.890625 0)"/>
       <use xlink:href="#DejaVuSans-3d" transform="translate(248.095703 0)"/>
       <use xlink:href="#DejaVuSans-30" transform="translate(331.884766 0)"/>
       <use xlink:href="#DejaVuSans-2e" transform="translate(395.507812 0)"/>
       <use xlink:href="#DejaVuSans-30" transform="translate(427.294922 0)"/>
       <use xlink:href="#DejaVuSans-31" transform="translate(490.917969 0)"/>
       <use xlink:href="#DejaVuSans-2c" transform="translate(554.541016 0)"/>
       <use xlink:href="#DejaVuSans-20" transform="translate(586.328125 0)"/>
       <use xlink:href="#DejaVuSans-6e" transform="translate(618.115234 0)"/>
       <use xlink:href="#DejaVuSans-5f" transform="translate(681.494141 0)"/>
       <use xlink:href="#DejaVuSans-61" transform="translate(731.494141 0)"/>
       <use xlink:href="#DejaVuSans-63" transform="translate(792.773438 0)"/>
       <use xlink:href="#DejaVuSans-74" transform="translate(847.753906 0)"/>
       <use xlink:href="#DejaVuSans-69" transform="translate(886.962891 0)"/>
       <use xlink:href="#DejaVuSans-6f" transform="translate(914.746094 0)"/>
       <use xlink:href="#DejaVuSans-6e" transform="translate(975.927734 0)"/>
       <use xlink:href="#DejaVuSans-5f" transform="translate(1039.306641 0)"/>
       <use xlink:href="#DejaVuSans-73" transform="translate(1089.306641 0)"/>
       <use xlink:href="#DejaVuSans-74" transform="translate(1141.40625 0)"/>
       <use xlink:href="#DejaVuSans-65" transform="translate(1180.615234 0)"/>
       <use xlink:href="#DejaVuSans-70" transform="translate(1242.138672 0)"/>
       <use xlink:href="#DejaVuSans-73" transform="translate(1305.615234 0)"/>
       <use xlink:href="#DejaVuSans-3d" transform="translate(1357.714844 0)"/>
       <use xlink:href="#DejaVuSans-31" transform="translate(1441.503906 0)"/>
      </g>
     </g>
    </g>
   </g>
   <g id="matplotlib.axis_2">
    <g id="ytick_1">
     <g id="line2d_3">
      <defs>
       <path id="m07a2fae473" d="M 0 0 
L -3.5 0 
" style="stroke: #1a1a1a; stroke-width: 0.8"/>
      </defs>
      <g>
       <use xlink:href="#m07a2fae473" x="73.939063" y="240.232719" style="fill: #1a1a1a; stroke: #1a1a1a; stroke-width: 0.8"/>
      </g>
     </g>
     <g id="text_3">
      <!-- 0.0 -->
      <g style="fill: #1a1a1a" transform="translate(47.855313 244.791781) scale(0.12 -0.12)">
       <use xlink:href="#DejaVuSans-30"/>
       <use xlink:href="#DejaVuSans-2e" transform="translate(63.623047 0)"/>
       <use xlink:href="#DejaVuSans-30" transform="translate(95.410156 0)"/>
      </g>
     </g>
    </g>
    <g id="ytick_2">
     <g id="line2d_4">
      <g>
       <use xlink:href="#m07a2fae473" x="73.939063" y="198.869909" style="fill: #1a1a1a; stroke: #1a1a1a; stroke-width: 0.8"/>
      </g>
     </g>
     <g id="text_4">
      <!-- 0.2 -->
      <g style="fill: #1a1a1a" transform="translate(47.855313 203.428972) scale(0.12 -0.12)">
       <use xlink:href="#DejaVuSans-30"/>
       <use xlink:href="#DejaVuSans-2e" transform="translate(63.623047 0)"/>
       <use xlink:href="#DejaVuSans-32" transform="translate(95.410156 0)"/>
      </g>
     </g>
    </g>
    <g id="ytick_3">
     <g id="line2d_5">
      <g>
       <use xlink:href="#m07a2fae473" x="73.939063" y="157.5071" style="fill: #1a1a1a; stroke: #1a1a1a; stroke-width: 0.8"/>
      </g>
     </g>
     <g id="text_5">
      <!-- 0.4 -->
      <g style="fill: #1a1a1a" transform="translate(47.855313 162.066162) scale(0.12 -0.12)">
       <defs>
        <path id="DejaVuSans-34" d="M 2419 4116 
L 825 1625 
L 2419 1625 
L 2419 4116 
z
M 2253 4666 
L 3047 4666 
L 3047 1625 
L 3713 1625 
L 3713 1100 
L 3047 1100 
L 3047 0 
L 2419 0 
L 2419 1100 
L 313 1100 
L 313 1709 
L 2253 4666 
z
" transform="scale(0.015625)"/>
       </defs>
       <use xlink:href="#DejaVuSans-30"/>
       <use xlink:href="#DejaVuSans-2e" transform="translate(63.623047 0)"/>
       <use xlink:href="#DejaVuSans-34" transform="translate(95.410156 0)"/>
      </g>
     </g>
    </g>
    <g id="ytick_4">
     <g id="line2d_6">
      <g>
       <use xlink:href="#m07a2fae473" x="73.939063" y="116.14429" style="fill: #1a1a1a; stroke: #1a1a1a; stroke-width: 0.8"/>
      </g>
     </g>
     <g id="text_6">
      <!-- 0.6 -->
      <g style="fill: #1a1a1a" transform="translate(47.855313 120.703353) scale(0.12 -0.12)">
       <defs>
        <path id="DejaVuSans-36" d="M 2113 2584 
Q 1688 2584 1439 2293 
Q 1191 2003 1191 1497 
Q 1191 994 1439 701 
Q 1688 409 2113 409 
Q 2538 409 2786 701 
Q 3034 994 3034 1497 
Q 3034 2003 2786 2293 
Q 2538 2584 2113 2584 
z
M 3366 4563 
L 3366 3988 
Q 3128 4100 2886 4159 
Q 2644 4219 2406 4219 
Q 1781 4219 1451 3797 
Q 1122 3375 1075 2522 
Q 1259 2794 1537 2939 
Q 1816 3084 2150 3084 
Q 2853 3084 3261 2657 
Q 3669 2231 3669 1497 
Q 3669 778 3244 343 
Q 2819 -91 2113 -91 
Q 1303 -91 875 529 
Q 447 1150 447 2328 
Q 447 3434 972 4092 
Q 1497 4750 2381 4750 
Q 2619 4750 2861 4703 
Q 3103 4656 3366 4563 
z
" transform="scale(0.015625)"/>
       </defs>
       <use xlink:href="#DejaVuSans-30"/>
       <use xlink:href="#DejaVuSans-2e" transform="translate(63.623047 0)"/>
       <use xlink:href="#DejaVuSans-36" transform="translate(95.410156 0)"/>
      </g>
     </g>
    </g>
    <g id="ytick_5">
     <g id="line2d_7">
      <g>
       <use xlink:href="#m07a2fae473" x="73.939063" y="74.781481" style="fill: #1a1a1a; stroke: #1a1a1a; stroke-width: 0.8"/>
      </g>
     </g>
     <g id="text_7">
      <!-- 0.8 -->
      <g style="fill: #1a1a1a" transform="translate(47.855313 79.340543) scale(0.12 -0.12)">
       <defs>
        <path id="DejaVuSans-38" d="M 2034 2216 
Q 1584 2216 1326 1975 
Q 1069 1734 1069 1313 
Q 1069 891 1326 650 
Q 1584 409 2034 409 
Q 2484 409 2743 651 
Q 3003 894 3003 1313 
Q 3003 1734 2745 1975 
Q 2488 2216 2034 2216 
z
M 1403 2484 
Q 997 2584 770 2862 
Q 544 3141 544 3541 
Q 544 4100 942 4425 
Q 1341 4750 2034 4750 
Q 2731 4750 3128 4425 
Q 3525 4100 3525 3541 
Q 3525 3141 3298 2862 
Q 3072 2584 2669 2484 
Q 3125 2378 3379 2068 
Q 3634 1759 3634 1313 
Q 3634 634 3220 271 
Q 2806 -91 2034 -91 
Q 1263 -91 848 271 
Q 434 634 434 1313 
Q 434 1759 690 2068 
Q 947 2378 1403 2484 
z
M 1172 3481 
Q 1172 3119 1398 2916 
Q 1625 2713 2034 2713 
Q 2441 2713 2670 2916 
Q 2900 3119 2900 3481 
Q 2900 3844 2670 4047 
Q 2441 4250 2034 4250 
Q 1625 4250 1398 4047 
Q 1172 3844 1172 3481 
z
" transform="scale(0.015625)"/>
       </defs>
       <use xlink:href="#DejaVuSans-30"/>
       <use xlink:href="#DejaVuSans-2e" transform="translate(63.623047 0)"/>
       <use xlink:href="#DejaVuSans-38" transform="translate(95.410156 0)"/>
      </g>
     </g>
    </g>
    <g id="ytick_6">
     <g id="line2d_8">
      <g>
       <use xlink:href="#m07a2fae473" x="73.939063" y="33.418671" style="fill: #1a1a1a; stroke: #1a1a1a; stroke-width: 0.8"/>
      </g>
     </g>
     <g id="text_8">
      <!-- 1.0 -->
      <g style="fill: #1a1a1a" transform="translate(47.855313 37.977734) scale(0.12 -0.12)">
       <use xlink:href="#DejaVuSans-31"/>
       <use xlink:href="#DejaVuSans-2e" transform="translate(63.623047 0)"/>
       <use xlink:href="#DejaVuSans-30" transform="translate(95.410156 0)"/>
      </g>
     </g>
    </g>
    <g id="text_9">
     <!-- success rate -->
     <g style="fill: #1a1a1a" transform="translate(41.359688 169.219094) rotate(-90) scale(0.12 -0.12)">
      <use xlink:href="#DejaVuSans-73"/>
      <use xlink:href="#DejaVuSans-75" transform="translate(52.099609 0)"/>
      <use xlink:href="#DejaVuSans-63" transform="translate(115.478516 0)"/>
      <use xlink:href="#DejaVuSans-63" transform="translate(170.458984 0)"/>
      <use xlink:href="#DejaVuSans-65" transform="translate(225.439453 0)"/>
      <use xlink:href="#DejaVuSans-73" transform="translate(286.962891 0)"/>
      <use xlink:href="#DejaVuSans-73" transform="translate(339.0625 0)"/>
      <use xlink:href="#DejaVuSans-20" transform="translate(391.162109 0)"/>
      <use xlink:href="#DejaVuSans-72" transform="translate(422.949219 0)"/>
      <use xlink:href="#DejaVuSans-61" transform="translate(464.0625 0)"/>
      <use xlink:href="#DejaVuSans-74" transform="translate(525.341797 0)"/>
      <use xlink:href="#DejaVuSans-65" transform="translate(564.550781 0)"/>
     </g>
    </g>
   </g>
   <g id="LineCollection_1">
    <path d="M 159.943536 238.991834 
L 159.943536 231.960157 
" clip-path="url(#p42dd1a5645)" style="fill: none; stroke: #1a1a1a; stroke-width: 1.2"/>
    <path d="M 351.064589 93.808373 
L 351.064589 72.299712 
" clip-path="url(#p42dd1a5645)" style="fill: none; stroke: #1a1a1a; stroke-width: 1.2"/>
   </g>
   <g id="line2d_9">
    <defs>
     <path id="m83cd534e04" d="M 4 0 
L -4 -0 
" style="stroke: #1a1a1a"/>
    </defs>
    <g clip-path="url(#p42dd1a5645)">
     <use xlink:href="#m83cd534e04" x="159.943536" y="238.991834" style="fill: #1f77b4; stroke: #1a1a1a"/>
     <use xlink:href="#m83cd534e04" x="351.064589" y="93.808373" style="fill: #1f77b4; stroke: #1a1a1a"/>
    </g>
   </g>
   <g id="line2d_10">
    <g clip-path="url(#p42dd1a5645)">
     <use xlink:href="#m83cd534e04" x="159.943536" y="231.960157" style="fill: #1f77b4; stroke: #1a1a1a"/>
     <use xlink:href="#m83cd534e04" x="351.064589" y="72.299712" style="fill: #1f77b4; stroke: #1a1a1a"/>
    </g>
   </g>
   <g id="line2d_11">
    <path d="M 73.939063 136.825695 
L 437.069063 136.825695 
" clip-path="url(#p42dd1a5645)" style="fill: none; stroke-dasharray: 1.2,1.98; stroke-dashoffset: 0; stroke: #a78bfa; stroke-width: 1.2"/>
   </g>
   <g id="patch_5">
    <path d="M 73.939063 240.232719 
L 73.939063 23.077969 
" style="fill: none; stroke: #1a1a1a; stroke-width: 1.2; stroke-linejoin: miter; stroke-linecap: square"/>
   </g>
   <g id="patch_6">
    <path d="M 73.939063 240.232719 
L 437.069063 240.232719 
" style="fill: none; stroke: #1a1a1a; stroke-width: 1.2; stroke-linejoin: miter; stroke-linecap: square"/>
   </g>
   <g id="text_10">
    <!-- paper (Zhao 2023): 0.50 -->
    <g style="fill: #a78bfa" transform="translate(102.60722 131.233633) scale(0.07 -0.07)">
     <defs>
      <path id="DejaVuSans-28" d="M 1984 4856 
Q 1566 4138 1362 3434 
Q 1159 2731 1159 2009 
Q 1159 1288 1364 580 
Q 1569 -128 1984 -844 
L 1484 -844 
Q 1016 -109 783 600 
Q 550 1309 550 2009 
Q 550 2706 781 3412 
Q 1013 4119 1484 4856 
L 1984 4856 
z
" transform="scale(0.015625)"/>
      <path id="DejaVuSans-5a" d="M 359 4666 
L 4025 4666 
L 4025 4184 
L 1075 531 
L 4097 531 
L 4097 0 
L 288 0 
L 288 481 
L 3238 4134 
L 359 4134 
L 359 4666 
z
" transform="scale(0.015625)"/>
      <path id="DejaVuSans-68" d="M 3513 2113 
L 3513 0 
L 2938 0 
L 2938 2094 
Q 2938 2591 2744 2837 
Q 2550 3084 2163 3084 
Q 1697 3084 1428 2787 
Q 1159 2491 1159 1978 
L 1159 0 
L 581 0 
L 581 4863 
L 1159 4863 
L 1159 2956 
Q 1366 3272 1645 3428 
Q 1925 3584 2291 3584 
Q 2894 3584 3203 3211 
Q 3513 2838 3513 2113 
z
" transform="scale(0.015625)"/>
      <path id="DejaVuSans-33" d="M 2597 2516 
Q 3050 2419 3304 2112 
Q 3559 1806 3559 1356 
Q 3559 666 3084 287 
Q 2609 -91 1734 -91 
Q 1441 -91 1130 -33 
Q 819 25 488 141 
L 488 750 
Q 750 597 1062 519 
Q 1375 441 1716 441 
Q 2309 441 2620 675 
Q 2931 909 2931 1356 
Q 2931 1769 2642 2001 
Q 2353 2234 1838 2234 
L 1294 2234 
L 1294 2753 
L 1863 2753 
Q 2328 2753 2575 2939 
Q 2822 3125 2822 3475 
Q 2822 3834 2567 4026 
Q 2313 4219 1838 4219 
Q 1578 4219 1281 4162 
Q 984 4106 628 3988 
L 628 4550 
Q 988 4650 1302 4700 
Q 1616 4750 1894 4750 
Q 2613 4750 3031 4423 
Q 3450 4097 3450 3541 
Q 3450 3153 3228 2886 
Q 3006 2619 2597 2516 
z
" transform="scale(0.015625)"/>
      <path id="DejaVuSans-29" d="M 513 4856 
L 1013 4856 
Q 1481 4119 1714 3412 
Q 1947 2706 1947 2009 
Q 1947 1309 1714 600 
Q 1481 -109 1013 -844 
L 513 -844 
Q 928 -128 1133 580 
Q 1338 1288 1338 2009 
Q 1338 2731 1133 3434 
Q 928 4138 513 4856 
z
" transform="scale(0.015625)"/>
      <path id="DejaVuSans-3a" d="M 750 794 
L 1409 794 
L 1409 0 
L 750 0 
L 750 794 
z
M 750 3309 
L 1409 3309 
L 1409 2516 
L 750 2516 
L 750 3309 
z
" transform="scale(0.015625)"/>
      <path id="DejaVuSans-35" d="M 691 4666 
L 3169 4666 
L 3169 4134 
L 1269 4134 
L 1269 2991 
Q 1406 3038 1543 3061 
Q 1681 3084 1819 3084 
Q 2600 3084 3056 2656 
Q 3513 2228 3513 1497 
Q 3513 744 3044 326 
Q 2575 -91 1722 -91 
Q 1428 -91 1123 -41 
Q 819 9 494 109 
L 494 744 
Q 775 591 1075 516 
Q 1375 441 1709 441 
Q 2250 441 2565 725 
Q 2881 1009 2881 1497 
Q 2881 1984 2565 2268 
Q 2250 2553 1709 2553 
Q 1456 2553 1204 2497 
Q 953 2441 691 2322 
L 691 4666 
z
" transform="scale(0.015625)"/>
     </defs>
     <use xlink:href="#DejaVuSans-70"/>
     <use xlink:href="#DejaVuSans-61" transform="translate(63.476562 0)"/>
     <use xlink:href="#DejaVuSans-70" transform="translate(124.755859 0)"/>
     <use xlink:href="#DejaVuSans-65" transform="translate(188.232422 0)"/>
     <use xlink:href="#DejaVuSans-72" transform="translate(249.755859 0)"/>
     <use xlink:href="#DejaVuSans-20" transform="translate(290.869141 0)"/>
     <use xlink:href="#DejaVuSans-28" transform="translate(322.65625 0)"/>
     <use xlink:href="#DejaVuSans-5a" transform="translate(361.669922 0)"/>
     <use xlink:href="#DejaVuSans-68" transform="translate(430.175781 0)"/>
     <use xlink:href="#DejaVuSans-61" transform="translate(493.554688 0)"/>
     <use xlink:href="#DejaVuSans-6f" transform="translate(554.833984 0)"/>
     <use xlink:href="#DejaVuSans-20" transform="translate(616.015625 0)"/>
     <use xlink:href="#DejaVuSans-32" transform="translate(647.802734 0)"/>
     <use xlink:href="#DejaVuSans-30" transform="translate(711.425781 0)"/>
     <use xlink:href="#DejaVuSans-32" transform="translate(775.048828 0)"/>
     <use xlink:href="#DejaVuSans-33" transform="translate(838.671875 0)"/>
     <use xlink:href="#DejaVuSans-29" transform="translate(902.294922 0)"/>
     <use xlink:href="#DejaVuSans-3a" transform="translate(941.308594 0)"/>
     <use xlink:href="#DejaVuSans-20" transform="translate(975 0)"/>
     <use xlink:href="#DejaVuSans-30" transform="translate(1006.787109 0)"/>
     <use xlink:href="#DejaVuSans-2e" transform="translate(1070.410156 0)"/>
     <use xlink:href="#DejaVuSans-35" transform="translate(1102.197266 0)"/>
     <use xlink:href="#DejaVuSans-30" transform="translate(1165.820312 0)"/>
    </g>
   </g>
   <g id="text_11">
    <!-- +74.8 pp -->
    <g style="fill: #34d399" transform="translate(224.995 71.886084) scale(0.12 -0.12)">
     <defs>
      <path id="DejaVuSans-Bold-2b" d="M 3053 4013 
L 3053 2375 
L 4684 2375 
L 4684 1638 
L 3053 1638 
L 3053 0 
L 2309 0 
L 2309 1638 
L 678 1638 
L 678 2375 
L 2309 2375 
L 2309 4013 
L 3053 4013 
z
" transform="scale(0.015625)"/>
      <path id="DejaVuSans-Bold-37" d="M 428 4666 
L 3944 4666 
L 3944 3988 
L 2125 0 
L 953 0 
L 2675 3781 
L 428 3781 
L 428 4666 
z
" transform="scale(0.015625)"/>
      <path id="DejaVuSans-Bold-34" d="M 2356 3675 
L 1038 1722 
L 2356 1722 
L 2356 3675 
z
M 2156 4666 
L 3494 4666 
L 3494 1722 
L 4159 1722 
L 4159 850 
L 3494 850 
L 3494 0 
L 2356 0 
L 2356 850 
L 288 850 
L 288 1881 
L 2156 4666 
z
" transform="scale(0.015625)"/>
      <path id="DejaVuSans-Bold-2e" d="M 653 1209 
L 1778 1209 
L 1778 0 
L 653 0 
L 653 1209 
z
" transform="scale(0.015625)"/>
      <path id="DejaVuSans-Bold-38" d="M 2228 2088 
Q 1891 2088 1709 1903 
Q 1528 1719 1528 1375 
Q 1528 1031 1709 848 
Q 1891 666 2228 666 
Q 2563 666 2741 848 
Q 2919 1031 2919 1375 
Q 2919 1722 2741 1905 
Q 2563 2088 2228 2088 
z
M 1350 2484 
Q 925 2613 709 2878 
Q 494 3144 494 3541 
Q 494 4131 934 4440 
Q 1375 4750 2228 4750 
Q 3075 4750 3515 4442 
Q 3956 4134 3956 3541 
Q 3956 3144 3739 2878 
Q 3522 2613 3097 2484 
Q 3572 2353 3814 2058 
Q 4056 1763 4056 1313 
Q 4056 619 3595 264 
Q 3134 -91 2228 -91 
Q 1319 -91 855 264 
Q 391 619 391 1313 
Q 391 1763 633 2058 
Q 875 2353 1350 2484 
z
M 1631 3419 
Q 1631 3141 1786 2991 
Q 1941 2841 2228 2841 
Q 2509 2841 2662 2991 
Q 2816 3141 2816 3419 
Q 2816 3697 2662 3845 
Q 2509 3994 2228 3994 
Q 1941 3994 1786 3844 
Q 1631 3694 1631 3419 
z
" transform="scale(0.015625)"/>
      <path id="DejaVuSans-Bold-20" transform="scale(0.015625)"/>
      <path id="DejaVuSans-Bold-70" d="M 1656 506 
L 1656 -1331 
L 538 -1331 
L 538 3500 
L 1656 3500 
L 1656 2988 
Q 1888 3294 2169 3439 
Q 2450 3584 2816 3584 
Q 3463 3584 3878 3070 
Q 4294 2556 4294 1747 
Q 4294 938 3878 423 
Q 3463 -91 2816 -91 
Q 2450 -91 2169 54 
Q 1888 200 1656 506 
z
M 2400 2772 
Q 2041 2772 1848 2508 
Q 1656 2244 1656 1747 
Q 1656 1250 1848 986 
Q 2041 722 2400 722 
Q 2759 722 2948 984 
Q 3138 1247 3138 1747 
Q 3138 2247 2948 2509 
Q 2759 2772 2400 2772 
z
" transform="scale(0.015625)"/>
     </defs>
     <use xlink:href="#DejaVuSans-Bold-2b"/>
     <use xlink:href="#DejaVuSans-Bold-37" transform="translate(83.789062 0)"/>
     <use xlink:href="#DejaVuSans-Bold-34" transform="translate(153.369141 0)"/>
     <use xlink:href="#DejaVuSans-Bold-2e" transform="translate(222.949219 0)"/>
     <use xlink:href="#DejaVuSans-Bold-38" transform="translate(260.9375 0)"/>
     <use xlink:href="#DejaVuSans-Bold-20" transform="translate(330.517578 0)"/>
     <use xlink:href="#DejaVuSans-Bold-70" transform="translate(365.332031 0)"/>
     <use xlink:href="#DejaVuSans-Bold-70" transform="translate(436.914062 0)"/>
    </g>
   </g>
   <g id="text_12">
    <!-- ACT x aloha_transfer_cube - inference settings are the load-bearing variable -->
    <g style="fill: #1a1a1a" transform="translate(7.2 17.077969) scale(0.13 -0.13)">
     <defs>
      <path id="DejaVuSans-41" d="M 2188 4044 
L 1331 1722 
L 3047 1722 
L 2188 4044 
z
M 1831 4666 
L 2547 4666 
L 4325 0 
L 3669 0 
L 3244 1197 
L 1141 1197 
L 716 0 
L 50 0 
L 1831 4666 
z
" transform="scale(0.015625)"/>
      <path id="DejaVuSans-43" d="M 4122 4306 
L 4122 3641 
Q 3803 3938 3442 4084 
Q 3081 4231 2675 4231 
Q 1875 4231 1450 3742 
Q 1025 3253 1025 2328 
Q 1025 1406 1450 917 
Q 1875 428 2675 428 
Q 3081 428 3442 575 
Q 3803 722 4122 1019 
L 4122 359 
Q 3791 134 3420 21 
Q 3050 -91 2638 -91 
Q 1578 -91 968 557 
Q 359 1206 359 2328 
Q 359 3453 968 4101 
Q 1578 4750 2638 4750 
Q 3056 4750 3426 4639 
Q 3797 4528 4122 4306 
z
" transform="scale(0.015625)"/>
      <path id="DejaVuSans-54" d="M -19 4666 
L 3928 4666 
L 3928 4134 
L 2272 4134 
L 2272 0 
L 1638 0 
L 1638 4134 
L -19 4134 
L -19 4666 
z
" transform="scale(0.015625)"/>
      <path id="DejaVuSans-78" d="M 3513 3500 
L 2247 1797 
L 3578 0 
L 2900 0 
L 1881 1375 
L 863 0 
L 184 0 
L 1544 1831 
L 300 3500 
L 978 3500 
L 1906 2253 
L 2834 3500 
L 3513 3500 
z
" transform="scale(0.015625)"/>
      <path id="DejaVuSans-2d" d="M 313 2009 
L 1997 2009 
L 1997 1497 
L 313 1497 
L 313 2009 
z
" transform="scale(0.015625)"/>
      <path id="DejaVuSans-67" d="M 2906 1791 
Q 2906 2416 2648 2759 
Q 2391 3103 1925 3103 
Q 1463 3103 1205 2759 
Q 947 2416 947 1791 
Q 947 1169 1205 825 
Q 1463 481 1925 481 
Q 2391 481 2648 825 
Q 2906 1169 2906 1791 
z
M 3481 434 
Q 3481 -459 3084 -895 
Q 2688 -1331 1869 -1331 
Q 1566 -1331 1297 -1286 
Q 1028 -1241 775 -1147 
L 775 -588 
Q 1028 -725 1275 -790 
Q 1522 -856 1778 -856 
Q 2344 -856 2625 -561 
Q 2906 -266 2906 331 
L 2906 616 
Q 2728 306 2450 153 
Q 2172 0 1784 0 
Q 1141 0 747 490 
Q 353 981 353 1791 
Q 353 2603 747 3093 
Q 1141 3584 1784 3584 
Q 2172 3584 2450 3431 
Q 2728 3278 2906 2969 
L 2906 3500 
L 3481 3500 
L 3481 434 
z
" transform="scale(0.015625)"/>
     </defs>
     <use xlink:href="#DejaVuSans-41"/>
     <use xlink:href="#DejaVuSans-43" transform="translate(66.658203 0)"/>
     <use xlink:href="#DejaVuSans-54" transform="translate(136.482422 0)"/>
     <use xlink:href="#DejaVuSans-20" transform="translate(197.566406 0)"/>
     <use xlink:href="#DejaVuSans-78" transform="translate(229.353516 0)"/>
     <use xlink:href="#DejaVuSans-20" transform="translate(288.533203 0)"/>
     <use xlink:href="#DejaVuSans-61" transform="translate(320.320312 0)"/>
     <use xlink:href="#DejaVuSans-6c" transform="translate(381.599609 0)"/>
     <use xlink:href="#DejaVuSans-6f" transform="translate(409.382812 0)"/>
     <use xlink:href="#DejaVuSans-68" transform="translate(470.564453 0)"/>
     <use xlink:href="#DejaVuSans-61" transform="translate(533.943359 0)"/>
     <use xlink:href="#DejaVuSans-5f" transform="translate(595.222656 0)"/>
     <use xlink:href="#DejaVuSans-74" transform="translate(645.222656 0)"/>
     <use xlink:href="#DejaVuSans-72" transform="translate(684.431641 0)"/>
     <use xlink:href="#DejaVuSans-61" transform="translate(725.544922 0)"/>
     <use xlink:href="#DejaVuSans-6e" transform="translate(786.824219 0)"/>
     <use xlink:href="#DejaVuSans-73" transform="translate(850.203125 0)"/>
     <use xlink:href="#DejaVuSans-66" transform="translate(902.302734 0)"/>
     <use xlink:href="#DejaVuSans-65" transform="translate(937.507812 0)"/>
     <use xlink:href="#DejaVuSans-72" transform="translate(999.03125 0)"/>
     <use xlink:href="#DejaVuSans-5f" transform="translate(1040.144531 0)"/>
     <use xlink:href="#DejaVuSans-63" transform="translate(1090.144531 0)"/>
     <use xlink:href="#DejaVuSans-75" transform="translate(1145.125 0)"/>
     <use xlink:href="#DejaVuSans-62" transform="translate(1208.503906 0)"/>
     <use xlink:href="#DejaVuSans-65" transform="translate(1271.980469 0)"/>
     <use xlink:href="#DejaVuSans-20" transform="translate(1333.503906 0)"/>
     <use xlink:href="#DejaVuSans-2d" transform="translate(1365.291016 0)"/>
     <use xlink:href="#DejaVuSans-20" transform="translate(1401.375 0)"/>
     <use xlink:href="#DejaVuSans-69" transform="translate(1433.162109 0)"/>
     <use xlink:href="#DejaVuSans-6e" transform="translate(1460.945312 0)"/>
     <use xlink:href="#DejaVuSans-66" transform="translate(1524.324219 0)"/>
     <use xlink:href="#DejaVuSans-65" transform="translate(1559.529297 0)"/>
     <use xlink:href="#DejaVuSans-72" transform="translate(1621.052734 0)"/>
     <use xlink:href="#DejaVuSans-65" transform="translate(1659.916016 0)"/>
     <use xlink:href="#DejaVuSans-6e" transform="translate(1721.439453 0)"/>
     <use xlink:href="#DejaVuSans-63" transform="translate(1784.818359 0)"/>
     <use xlink:href="#DejaVuSans-65" transform="translate(1839.798828 0)"/>
     <use xlink:href="#DejaVuSans-20" transform="translate(1901.322266 0)"/>
     <use xlink:href="#DejaVuSans-73" transform="translate(1933.109375 0)"/>
     <use xlink:href="#DejaVuSans-65" transform="translate(1985.208984 0)"/>
     <use xlink:href="#DejaVuSans-74" transform="translate(2046.732422 0)"/>
     <use xlink:href="#DejaVuSans-74" transform="translate(2085.941406 0)"/>
     <use xlink:href="#DejaVuSans-69" transform="translate(2125.150391 0)"/>
     <use xlink:href="#DejaVuSans-6e" transform="translate(2152.933594 0)"/>
     <use xlink:href="#DejaVuSans-67" transform="translate(2216.3125 0)"/>
     <use xlink:href="#DejaVuSans-73" transform="translate(2279.789062 0)"/>
     <use xlink:href="#DejaVuSans-20" transform="translate(2331.888672 0)"/>
     <use xlink:href="#DejaVuSans-61" transform="translate(2363.675781 0)"/>
     <use xlink:href="#DejaVuSans-72" transform="translate(2424.955078 0)"/>
     <use xlink:href="#DejaVuSans-65" transform="translate(2463.818359 0)"/>
     <use xlink:href="#DejaVuSans-20" transform="translate(2525.341797 0)"/>
     <use xlink:href="#DejaVuSans-74" transform="translate(2557.128906 0)"/>
     <use xlink:href="#DejaVuSans-68" transform="translate(2596.337891 0)"/>
     <use xlink:href="#DejaVuSans-65" transform="translate(2659.716797 0)"/>
     <use xlink:href="#DejaVuSans-20" transform="translate(2721.240234 0)"/>
     <use xlink:href="#DejaVuSans-6c" transform="translate(2753.027344 0)"/>
     <use xlink:href="#DejaVuSans-6f" transform="translate(2780.810547 0)"/>
     <use xlink:href="#DejaVuSans-61" transform="translate(2841.992188 0)"/>
     <use xlink:href="#DejaVuSans-64" transform="translate(2903.271484 0)"/>
     <use xlink:href="#DejaVuSans-2d" transform="translate(2966.748047 0)"/>
     <use xlink:href="#DejaVuSans-62" transform="translate(3002.832031 0)"/>
     <use xlink:href="#DejaVuSans-65" transform="translate(3066.308594 0)"/>
     <use xlink:href="#DejaVuSans-61" transform="translate(3127.832031 0)"/>
     <use xlink:href="#DejaVuSans-72" transform="translate(3189.111328 0)"/>
     <use xlink:href="#DejaVuSans-69" transform="translate(3230.224609 0)"/>
     <use xlink:href="#DejaVuSans-6e" transform="translate(3258.007812 0)"/>
     <use xlink:href="#DejaVuSans-67" transform="translate(3321.386719 0)"/>
     <use xlink:href="#DejaVuSans-20" transform="translate(3384.863281 0)"/>
     <use xlink:href="#DejaVuSans-76" transform="translate(3416.650391 0)"/>
     <use xlink:href="#DejaVuSans-61" transform="translate(3475.830078 0)"/>
     <use xlink:href="#DejaVuSans-72" transform="translate(3537.109375 0)"/>
     <use xlink:href="#DejaVuSans-69" transform="translate(3578.222656 0)"/>
     <use xlink:href="#DejaVuSans-61" transform="translate(3606.005859 0)"/>
     <use xlink:href="#DejaVuSans-62" transform="translate(3667.285156 0)"/>
     <use xlink:href="#DejaVuSans-6c" transform="translate(3730.761719 0)"/>
     <use xlink:href="#DejaVuSans-65" transform="translate(3758.544922 0)"/>
    </g>
   </g>
   <g id="PathCollection_1">
    <defs>
     <path id="mdfef65f293" d="M 0 2.12132 
C 0.562581 2.12132 1.102195 1.897805 1.5 1.5 
C 1.897805 1.102195 2.12132 0.562581 2.12132 0 
C 2.12132 -0.562581 1.897805 -1.102195 1.5 -1.5 
C 1.102195 -1.897805 0.562581 -2.12132 0 -2.12132 
C -0.562581 -2.12132 -1.102195 -1.897805 -1.5 -1.5 
C -1.897805 -1.102195 -2.12132 -0.562581 -2.12132 0 
C -2.12132 0.562581 -1.897805 1.102195 -1.5 1.5 
C -1.102195 1.897805 -0.562581 2.12132 0 2.12132 
z
" style="stroke: #ffffff; stroke-opacity: 0.85; stroke-width: 0.5"/>
    </defs>
    <g clip-path="url(#p42dd1a5645)">
     <use xlink:href="#mdfef65f293" x="166.225839" y="236.096438" style="fill: #1a1a1a; fill-opacity: 0.85; stroke: #ffffff; stroke-opacity: 0.85; stroke-width: 0.5"/>
     <use xlink:href="#mdfef65f293" x="149.383871" y="231.960157" style="fill: #1a1a1a; fill-opacity: 0.85; stroke: #ffffff; stroke-opacity: 0.85; stroke-width: 0.5"/>
     <use xlink:href="#mdfef65f293" x="138.888427" y="240.232719" style="fill: #1a1a1a; fill-opacity: 0.85; stroke: #ffffff; stroke-opacity: 0.85; stroke-width: 0.5"/>
     <use xlink:href="#mdfef65f293" x="137.767117" y="236.096438" style="fill: #1a1a1a; fill-opacity: 0.85; stroke: #ffffff; stroke-opacity: 0.85; stroke-width: 0.5"/>
     <use xlink:href="#mdfef65f293" x="174.312945" y="240.232719" style="fill: #1a1a1a; fill-opacity: 0.85; stroke: #ffffff; stroke-opacity: 0.85; stroke-width: 0.5"/>
    </g>
   </g>
   <g id="PathCollection_2">
    <g clip-path="url(#p42dd1a5645)">
     <use xlink:href="#mdfef65f293" x="369.997296" y="49.963795" style="fill: #1a1a1a; fill-opacity: 0.85; stroke: #ffffff; stroke-opacity: 0.85; stroke-width: 0.5"/>
     <use xlink:href="#mdfef65f293" x="355.955871" y="74.781481" style="fill: #1a1a1a; fill-opacity: 0.85; stroke: #ffffff; stroke-opacity: 0.85; stroke-width: 0.5"/>
     <use xlink:href="#mdfef65f293" x="361.591379" y="83.054043" style="fill: #1a1a1a; fill-opacity: 0.85; stroke: #ffffff; stroke-opacity: 0.85; stroke-width: 0.5"/>
     <use xlink:href="#mdfef65f293" x="353.065626" y="103.735447" style="fill: #1a1a1a; fill-opacity: 0.85; stroke: #ffffff; stroke-opacity: 0.85; stroke-width: 0.5"/>
     <use xlink:href="#mdfef65f293" x="371.020949" y="99.599166" style="fill: #1a1a1a; fill-opacity: 0.85; stroke: #ffffff; stroke-opacity: 0.85; stroke-width: 0.5"/>
    </g>
   </g>
  </g>
 </g>
 <defs>
  <clipPath id="p42dd1a5645">
   <rect x="73.939063" y="23.077969" width="363.13" height="217.15475"/>
  </clipPath>
 </defs>
</svg>
