<?xml version="1.0" encoding="utf-8" standalone="no"?>
<!DOCTYPE svg PUBLIC "-//W3C//DTD SVG 1.1//EN"
  "http://www.w3.org/Graphics/SVG/1.1/DTD/svg11.dtd">
<svg xmlns:xlink="http://www.w3.org/1999/xlink" width="516.84725pt" height="258.986141pt" viewBox="0 0 516.84725 258.986141" xmlns="http://www.w3.org/2000/svg" version="1.1">
 <metadata>
  <rdf:RDF xmlns:dc="http://purl.org/dc/elements/1.1/" xmlns:cc="http://creativecommons.org/ns#" xmlns:rdf="http://www.w3.org/1999/02/22-rdf-syntax-ns#">
   <cc:Work>
    <dc:type rdf:resource="http://purl.org/dc/dcmitype/StillImage"/>
    <dc:date>2026-06-08T05:26:35.609903</dc:date>
    <dc:format>image/svg+xml</dc:format>
    <dc:creator>
     <cc:Agent>
      <dc:title>Matplotlib v3.10.8, https://matplotlib.org/</dc:title>
     </cc:Agent>
    </dc:creator>
   </cc:Work>
  </rdf:RDF>
 </metadata>
 <defs>
  <style type="text/css">*{stroke-linejoin: round; stroke-linecap: butt}</style>
 </defs>
 <g id="figure_1">
  <g id="patch_1">
   <path d="M 0 258.986141 
L 516.84725 258.986141 
L 516.84725 -0 
L 0 -0 
z
" style="fill: #ffffff"/>
  </g>
  <g id="axes_1">
   <g id="patch_2">
    <path d="M 140.596 198.578359 
L 506.466 198.578359 
L 506.466 23.178359 
L 140.596 23.178359 
z
" style="fill: #ffffff"/>
   </g>
   <g id="matplotlib.axis_1">
    <g id="xtick_1">
     <g id="line2d_1">
      <path d="M 140.596 198.578359 
L 140.596 23.178359 
" clip-path="url(#p9f98db36c2)" style="fill: none; stroke: #dddddd; stroke-width: 0.6; stroke-linecap: square"/>
     </g>
     <g id="line2d_2">
      <defs>
       <path id="md3f24d9687" d="M 0 0 
L 0 3.5 
" style="stroke: #000000; stroke-width: 0.8"/>
      </defs>
      <g>
       <use xlink:href="#md3f24d9687" x="140.596" y="198.578359" style="stroke: #000000; stroke-width: 0.8"/>
      </g>
     </g>
     <g id="text_1">
      <!-- 0 -->
      <g transform="translate(137.41475 213.176797) scale(0.1 -0.1)">
       <defs>
        <path id="DejaVuSans-30" d="M 2034 4250 
Q 1547 4250 1301 3770 
Q 1056 3291 1056 2328 
Q 1056 1369 1301 889 
Q 1547 409 2034 409 
Q 2525 409 2770 889 
Q 3016 1369 3016 2328 
Q 3016 3291 2770 3770 
Q 2525 4250 2034 4250 
z
M 2034 4750 
Q 2819 4750 3233 4129 
Q 3647 3509 3647 2328 
Q 3647 1150 3233 529 
Q 2819 -91 2034 -91 
Q 1250 -91 836 529 
Q 422 1150 422 2328 
Q 422 3509 836 4129 
Q 1250 4750 2034 4750 
z
" transform="scale(0.015625)"/>
       </defs>
       <use xlink:href="#DejaVuSans-30"/>
      </g>
     </g>
    </g>
    <g id="xtick_2">
     <g id="line2d_3">
      <path d="M 262.552667 198.578359 
L 262.552667 23.178359 
" clip-path="url(#p9f98db36c2)" style="fill: none; stroke: #dddddd; stroke-width: 0.6; stroke-linecap: square"/>
     </g>
     <g id="line2d_4">
      <g>
       <use xlink:href="#md3f24d9687" x="262.552667" y="198.578359" style="stroke: #000000; stroke-width: 0.8"/>
      </g>
     </g>
     <g id="text_2">
      <!-- 1 -->
      <g transform="translate(259.371417 213.176797) scale(0.1 -0.1)">
       <defs>
        <path id="DejaVuSans-31" d="M 794 531 
L 1825 531 
L 1825 4091 
L 703 3866 
L 703 4441 
L 1819 4666 
L 2450 4666 
L 2450 531 
L 3481 531 
L 3481 0 
L 794 0 
L 794 531 
z
" transform="scale(0.015625)"/>
       </defs>
       <use xlink:href="#DejaVuSans-31"/>
      </g>
     </g>
    </g>
    <g id="xtick_3">
     <g id="line2d_5">
      <path d="M 384.509333 198.578359 
L 384.509333 23.178359 
" clip-path="url(#p9f98db36c2)" style="fill: none; stroke: #dddddd; stroke-width: 0.6; stroke-linecap: square"/>
     </g>
     <g id="line2d_6">
      <g>
       <use xlink:href="#md3f24d9687" x="384.509333" y="198.578359" style="stroke: #000000; stroke-width: 0.8"/>
      </g>
     </g>
     <g id="text_3">
      <!-- 2 -->
      <g transform="translate(381.328083 213.176797) scale(0.1 -0.1)">
       <defs>
        <path id="DejaVuSans-32" d="M 1228 531 
L 3431 531 
L 3431 0 
L 469 0 
L 469 531 
Q 828 903 1448 1529 
Q 2069 2156 2228 2338 
Q 2531 2678 2651 2914 
Q 2772 3150 2772 3378 
Q 2772 3750 2511 3984 
Q 2250 4219 1831 4219 
Q 1534 4219 1204 4116 
Q 875 4013 500 3803 
L 500 4441 
Q 881 4594 1212 4672 
Q 1544 4750 1819 4750 
Q 2544 4750 2975 4387 
Q 3406 4025 3406 3419 
Q 3406 3131 3298 2873 
Q 3191 2616 2906 2266 
Q 2828 2175 2409 1742 
Q 1991 1309 1228 531 
z
" transform="scale(0.015625)"/>
       </defs>
       <use xlink:href="#DejaVuSans-32"/>
      </g>
     </g>
    </g>
    <g id="xtick_4">
     <g id="line2d_7">
      <path d="M 506.466 198.578359 
L 506.466 23.178359 
" clip-path="url(#p9f98db36c2)" style="fill: none; stroke: #dddddd; stroke-width: 0.6; stroke-linecap: square"/>
     </g>
     <g id="line2d_8">
      <g>
       <use xlink:href="#md3f24d9687" x="506.466" y="198.578359" style="stroke: #000000; stroke-width: 0.8"/>
      </g>
     </g>
     <g id="text_4">
      <!-- 3 -->
      <g transform="translate(503.28475 213.176797) scale(0.1 -0.1)">
       <defs>
        <path id="DejaVuSans-33" d="M 2597 2516 
Q 3050 2419 3304 2112 
Q 3559 1806 3559 1356 
Q 3559 666 3084 287 
Q 2609 -91 1734 -91 
Q 1441 -91 1130 -33 
Q 819 25 488 141 
L 488 750 
Q 750 597 1062 519 
Q 1375 441 1716 441 
Q 2309 441 2620 675 
Q 2931 909 2931 1356 
Q 2931 1769 2642 2001 
Q 2353 2234 1838 2234 
L 1294 2234 
L 1294 2753 
L 1863 2753 
Q 2328 2753 2575 2939 
Q 2822 3125 2822 3475 
Q 2822 3834 2567 4026 
Q 2313 4219 1838 4219 
Q 1578 4219 1281 4162 
Q 984 4106 628 3988 
L 628 4550 
Q 988 4650 1302 4700 
Q 1616 4750 1894 4750 
Q 2613 4750 3031 4423 
Q 3450 4097 3450 3541 
Q 3450 3153 3228 2886 
Q 3006 2619 2597 2516 
z
" transform="scale(0.015625)"/>
       </defs>
       <use xlink:href="#DejaVuSans-33"/>
      </g>
     </g>
    </g>
    <g id="text_5">
     <!-- Labeled rollout artifacts (N = 6) -->
     <g transform="translate(244.256 226.854922) scale(0.1 -0.1)">
      <defs>
       <path id="DejaVuSans-4c" d="M 628 4666 
L 1259 4666 
L 1259 531 
L 3531 531 
L 3531 0 
L 628 0 
L 628 4666 
z
" transform="scale(0.015625)"/>
       <path id="DejaVuSans-61" d="M 2194 1759 
Q 1497 1759 1228 1600 
Q 959 1441 959 1056 
Q 959 750 1161 570 
Q 1363 391 1709 391 
Q 2188 391 2477 730 
Q 2766 1069 2766 1631 
L 2766 1759 
L 2194 1759 
z
M 3341 1997 
L 3341 0 
L 2766 0 
L 2766 531 
Q 2569 213 2275 61 
Q 1981 -91 1556 -91 
Q 1019 -91 701 211 
Q 384 513 384 1019 
Q 384 1609 779 1909 
Q 1175 2209 1959 2209 
L 2766 2209 
L 2766 2266 
Q 2766 2663 2505 2880 
Q 2244 3097 1772 3097 
Q 1472 3097 1187 3025 
Q 903 2953 641 2809 
L 641 3341 
Q 956 3463 1253 3523 
Q 1550 3584 1831 3584 
Q 2591 3584 2966 3190 
Q 3341 2797 3341 1997 
z
" transform="scale(0.015625)"/>
       <path id="DejaVuSans-62" d="M 3116 1747 
Q 3116 2381 2855 2742 
Q 2594 3103 2138 3103 
Q 1681 3103 1420 2742 
Q 1159 2381 1159 1747 
Q 1159 1113 1420 752 
Q 1681 391 2138 391 
Q 2594 391 2855 752 
Q 3116 1113 3116 1747 
z
M 1159 2969 
Q 1341 3281 1617 3432 
Q 1894 3584 2278 3584 
Q 2916 3584 3314 3078 
Q 3713 2572 3713 1747 
Q 3713 922 3314 415 
Q 2916 -91 2278 -91 
Q 1894 -91 1617 61 
Q 1341 213 1159 525 
L 1159 0 
L 581 0 
L 581 4863 
L 1159 4863 
L 1159 2969 
z
" transform="scale(0.015625)"/>
       <path id="DejaVuSans-65" d="M 3597 1894 
L 3597 1613 
L 953 1613 
Q 991 1019 1311 708 
Q 1631 397 2203 397 
Q 2534 397 2845 478 
Q 3156 559 3463 722 
L 3463 178 
Q 3153 47 2828 -22 
Q 2503 -91 2169 -91 
Q 1331 -91 842 396 
Q 353 884 353 1716 
Q 353 2575 817 3079 
Q 1281 3584 2069 3584 
Q 2775 3584 3186 3129 
Q 3597 2675 3597 1894 
z
M 3022 2063 
Q 3016 2534 2758 2815 
Q 2500 3097 2075 3097 
Q 1594 3097 1305 2825 
Q 1016 2553 972 2059 
L 3022 2063 
z
" transform="scale(0.015625)"/>
       <path id="DejaVuSans-6c" d="M 603 4863 
L 1178 4863 
L 1178 0 
L 603 0 
L 603 4863 
z
" transform="scale(0.015625)"/>
       <path id="DejaVuSans-64" d="M 2906 2969 
L 2906 4863 
L 3481 4863 
L 3481 0 
L 2906 0 
L 2906 525 
Q 2725 213 2448 61 
Q 2172 -91 1784 -91 
Q 1150 -91 751 415 
Q 353 922 353 1747 
Q 353 2572 751 3078 
Q 1150 3584 1784 3584 
Q 2172 3584 2448 3432 
Q 2725 3281 2906 2969 
z
M 947 1747 
Q 947 1113 1208 752 
Q 1469 391 1925 391 
Q 2381 391 2643 752 
Q 2906 1113 2906 1747 
Q 2906 2381 2643 2742 
Q 2381 3103 1925 3103 
Q 1469 3103 1208 2742 
Q 947 2381 947 1747 
z
" transform="scale(0.015625)"/>
       <path id="DejaVuSans-20" transform="scale(0.015625)"/>
       <path id="DejaVuSans-72" d="M 2631 2963 
Q 2534 3019 2420 3045 
Q 2306 3072 2169 3072 
Q 1681 3072 1420 2755 
Q 1159 2438 1159 1844 
L 1159 0 
L 581 0 
L 581 3500 
L 1159 3500 
L 1159 2956 
Q 1341 3275 1631 3429 
Q 1922 3584 2338 3584 
Q 2397 3584 2469 3576 
Q 2541 3569 2628 3553 
L 2631 2963 
z
" transform="scale(0.015625)"/>
       <path id="DejaVuSans-6f" d="M 1959 3097 
Q 1497 3097 1228 2736 
Q 959 2375 959 1747 
Q 959 1119 1226 758 
Q 1494 397 1959 397 
Q 2419 397 2687 759 
Q 2956 1122 2956 1747 
Q 2956 2369 2687 2733 
Q 2419 3097 1959 3097 
z
M 1959 3584 
Q 2709 3584 3137 3096 
Q 3566 2609 3566 1747 
Q 3566 888 3137 398 
Q 2709 -91 1959 -91 
Q 1206 -91 779 398 
Q 353 888 353 1747 
Q 353 2609 779 3096 
Q 1206 3584 1959 3584 
z
" transform="scale(0.015625)"/>
       <path id="DejaVuSans-75" d="M 544 1381 
L 544 3500 
L 1119 3500 
L 1119 1403 
Q 1119 906 1312 657 
Q 1506 409 1894 409 
Q 2359 409 2629 706 
Q 2900 1003 2900 1516 
L 2900 3500 
L 3475 3500 
L 3475 0 
L 2900 0 
L 2900 538 
Q 2691 219 2414 64 
Q 2138 -91 1772 -91 
Q 1169 -91 856 284 
Q 544 659 544 1381 
z
M 1991 3584 
L 1991 3584 
z
" transform="scale(0.015625)"/>
       <path id="DejaVuSans-74" d="M 1172 4494 
L 1172 3500 
L 2356 3500 
L 2356 3053 
L 1172 3053 
L 1172 1153 
Q 1172 725 1289 603 
Q 1406 481 1766 481 
L 2356 481 
L 2356 0 
L 1766 0 
Q 1100 0 847 248 
Q 594 497 594 1153 
L 594 3053 
L 172 3053 
L 172 3500 
L 594 3500 
L 594 4494 
L 1172 4494 
z
" transform="scale(0.015625)"/>
       <path id="DejaVuSans-69" d="M 603 3500 
L 1178 3500 
L 1178 0 
L 603 0 
L 603 3500 
z
M 603 4863 
L 1178 4863 
L 1178 4134 
L 603 4134 
L 603 4863 
z
" transform="scale(0.015625)"/>
       <path id="DejaVuSans-66" d="M 2375 4863 
L 2375 4384 
L 1825 4384 
Q 1516 4384 1395 4259 
Q 1275 4134 1275 3809 
L 1275 3500 
L 2222 3500 
L 2222 3053 
L 1275 3053 
L 1275 0 
L 697 0 
L 697 3053 
L 147 3053 
L 147 3500 
L 697 3500 
L 697 3744 
Q 697 4328 969 4595 
Q 1241 4863 1831 4863 
L 2375 4863 
z
" transform="scale(0.015625)"/>
       <path id="DejaVuSans-63" d="M 3122 3366 
L 3122 2828 
Q 2878 2963 2633 3030 
Q 2388 3097 2138 3097 
Q 1578 3097 1268 2742 
Q 959 2388 959 1747 
Q 959 1106 1268 751 
Q 1578 397 2138 397 
Q 2388 397 2633 464 
Q 2878 531 3122 666 
L 3122 134 
Q 2881 22 2623 -34 
Q 2366 -91 2075 -91 
Q 1284 -91 818 406 
Q 353 903 353 1747 
Q 353 2603 823 3093 
Q 1294 3584 2113 3584 
Q 2378 3584 2631 3529 
Q 2884 3475 3122 3366 
z
" transform="scale(0.015625)"/>
       <path id="DejaVuSans-73" d="M 2834 3397 
L 2834 2853 
Q 2591 2978 2328 3040 
Q 2066 3103 1784 3103 
Q 1356 3103 1142 2972 
Q 928 2841 928 2578 
Q 928 2378 1081 2264 
Q 1234 2150 1697 2047 
L 1894 2003 
Q 2506 1872 2764 1633 
Q 3022 1394 3022 966 
Q 3022 478 2636 193 
Q 2250 -91 1575 -91 
Q 1294 -91 989 -36 
Q 684 19 347 128 
L 347 722 
Q 666 556 975 473 
Q 1284 391 1588 391 
Q 1994 391 2212 530 
Q 2431 669 2431 922 
Q 2431 1156 2273 1281 
Q 2116 1406 1581 1522 
L 1381 1569 
Q 847 1681 609 1914 
Q 372 2147 372 2553 
Q 372 3047 722 3315 
Q 1072 3584 1716 3584 
Q 2034 3584 2315 3537 
Q 2597 3491 2834 3397 
z
" transform="scale(0.015625)"/>
       <path id="DejaVuSans-28" d="M 1984 4856 
Q 1566 4138 1362 3434 
Q 1159 2731 1159 2009 
Q 1159 1288 1364 580 
Q 1569 -128 1984 -844 
L 1484 -844 
Q 1016 -109 783 600 
Q 550 1309 550 2009 
Q 550 2706 781 3412 
Q 1013 4119 1484 4856 
L 1984 4856 
z
" transform="scale(0.015625)"/>
       <path id="DejaVuSans-4e" d="M 628 4666 
L 1478 4666 
L 3547 763 
L 3547 4666 
L 4159 4666 
L 4159 0 
L 3309 0 
L 1241 3903 
L 1241 0 
L 628 0 
L 628 4666 
z
" transform="scale(0.015625)"/>
       <path id="DejaVuSans-3d" d="M 678 2906 
L 4684 2906 
L 4684 2381 
L 678 2381 
L 678 2906 
z
M 678 1631 
L 4684 1631 
L 4684 1100 
L 678 1100 
L 678 1631 
z
" transform="scale(0.015625)"/>
       <path id="DejaVuSans-36" d="M 2113 2584 
Q 1688 2584 1439 2293 
Q 1191 2003 1191 1497 
Q 1191 994 1439 701 
Q 1688 409 2113 409 
Q 2538 409 2786 701 
Q 3034 994 3034 1497 
Q 3034 2003 2786 2293 
Q 2538 2584 2113 2584 
z
M 3366 4563 
L 3366 3988 
Q 3128 4100 2886 4159 
Q 2644 4219 2406 4219 
Q 1781 4219 1451 3797 
Q 1122 3375 1075 2522 
Q 1259 2794 1537 2939 
Q 1816 3084 2150 3084 
Q 2853 3084 3261 2657 
Q 3669 2231 3669 1497 
Q 3669 778 3244 343 
Q 2819 -91 2113 -91 
Q 1303 -91 875 529 
Q 447 1150 447 2328 
Q 447 3434 972 4092 
Q 1497 4750 2381 4750 
Q 2619 4750 2861 4703 
Q 3103 4656 3366 4563 
z
" transform="scale(0.015625)"/>
       <path id="DejaVuSans-29" d="M 513 4856 
L 1013 4856 
Q 1481 4119 1714 3412 
Q 1947 2706 1947 2009 
Q 1947 1309 1714 600 
Q 1481 -109 1013 -844 
L 513 -844 
Q 928 -128 1133 580 
Q 1338 1288 1338 2009 
Q 1338 2731 1133 3434 
Q 928 4138 513 4856 
z
" transform="scale(0.015625)"/>
      </defs>
      <use xlink:href="#DejaVuSans-4c"/>
      <use xlink:href="#DejaVuSans-61" transform="translate(55.712891 0)"/>
      <use xlink:href="#DejaVuSans-62" transform="translate(116.992188 0)"/>
      <use xlink:href="#DejaVuSans-65" transform="translate(180.46875 0)"/>
      <use xlink:href="#DejaVuSans-6c" transform="translate(241.992188 0)"/>
      <use xlink:href="#DejaVuSans-65" transform="translate(269.775391 0)"/>
      <use xlink:href="#DejaVuSans-64" transform="translate(331.298828 0)"/>
      <use xlink:href="#DejaVuSans-20" transform="translate(394.775391 0)"/>
      <use xlink:href="#DejaVuSans-72" transform="translate(426.5625 0)"/>
      <use xlink:href="#DejaVuSans-6f" transform="translate(465.425781 0)"/>
      <use xlink:href="#DejaVuSans-6c" transform="translate(526.607422 0)"/>
      <use xlink:href="#DejaVuSans-6c" transform="translate(554.390625 0)"/>
      <use xlink:href="#DejaVuSans-6f" transform="translate(582.173828 0)"/>
      <use xlink:href="#DejaVuSans-75" transform="translate(643.355469 0)"/>
      <use xlink:href="#DejaVuSans-74" transform="translate(706.734375 0)"/>
      <use xlink:href="#DejaVuSans-20" transform="translate(745.943359 0)"/>
      <use xlink:href="#DejaVuSans-61" transform="translate(777.730469 0)"/>
      <use xlink:href="#DejaVuSans-72" transform="translate(839.009766 0)"/>
      <use xlink:href="#DejaVuSans-74" transform="translate(880.123047 0)"/>
      <use xlink:href="#DejaVuSans-69" transform="translate(919.332031 0)"/>
      <use xlink:href="#DejaVuSans-66" transform="translate(947.115234 0)"/>
      <use xlink:href="#DejaVuSans-61" transform="translate(982.320312 0)"/>
      <use xlink:href="#DejaVuSans-63" transform="translate(1043.599609 0)"/>
      <use xlink:href="#DejaVuSans-74" transform="translate(1098.580078 0)"/>
      <use xlink:href="#DejaVuSans-73" transform="translate(1137.789062 0)"/>
      <use xlink:href="#DejaVuSans-20" transform="translate(1189.888672 0)"/>
      <use xlink:href="#DejaVuSans-28" transform="translate(1221.675781 0)"/>
      <use xlink:href="#DejaVuSans-4e" transform="translate(1260.689453 0)"/>
      <use xlink:href="#DejaVuSans-20" transform="translate(1335.494141 0)"/>
      <use xlink:href="#DejaVuSans-3d" transform="translate(1367.28125 0)"/>
      <use xlink:href="#DejaVuSans-20" transform="translate(1451.070312 0)"/>
      <use xlink:href="#DejaVuSans-36" transform="translate(1482.857422 0)"/>
      <use xlink:href="#DejaVuSans-29" transform="translate(1546.480469 0)"/>
     </g>
    </g>
   </g>
   <g id="matplotlib.axis_2">
    <g id="ytick_1">
     <g id="line2d_9">
      <defs>
       <path id="mab9fccbe21" d="M 0 0 
L -3.5 0 
" style="stroke: #000000; stroke-width: 0.8"/>
      </defs>
      <g>
       <use xlink:href="#mab9fccbe21" x="140.596" y="44.806034" style="stroke: #000000; stroke-width: 0.8"/>
      </g>
     </g>
     <g id="text_6">
      <!-- Never contacts object -->
      <g transform="translate(34.936313 43.870175) scale(0.09 -0.09)">
       <defs>
        <path id="DejaVuSans-76" d="M 191 3500 
L 800 3500 
L 1894 563 
L 2988 3500 
L 3597 3500 
L 2284 0 
L 1503 0 
L 191 3500 
z
" transform="scale(0.015625)"/>
        <path id="DejaVuSans-6e" d="M 3513 2113 
L 3513 0 
L 2938 0 
L 2938 2094 
Q 2938 2591 2744 2837 
Q 2550 3084 2163 3084 
Q 1697 3084 1428 2787 
Q 1159 2491 1159 1978 
L 1159 0 
L 581 0 
L 581 3500 
L 1159 3500 
L 1159 2956 
Q 1366 3272 1645 3428 
Q 1925 3584 2291 3584 
Q 2894 3584 3203 3211 
Q 3513 2838 3513 2113 
z
" transform="scale(0.015625)"/>
        <path id="DejaVuSans-6a" d="M 603 3500 
L 1178 3500 
L 1178 -63 
Q 1178 -731 923 -1031 
Q 669 -1331 103 -1331 
L -116 -1331 
L -116 -844 
L 38 -844 
Q 366 -844 484 -692 
Q 603 -541 603 -63 
L 603 3500 
z
M 603 4863 
L 1178 4863 
L 1178 4134 
L 603 4134 
L 603 4863 
z
" transform="scale(0.015625)"/>
       </defs>
       <use xlink:href="#DejaVuSans-4e"/>
       <use xlink:href="#DejaVuSans-65" transform="translate(74.804688 0)"/>
       <use xlink:href="#DejaVuSans-76" transform="translate(136.328125 0)"/>
       <use xlink:href="#DejaVuSans-65" transform="translate(195.507812 0)"/>
       <use xlink:href="#DejaVuSans-72" transform="translate(257.03125 0)"/>
       <use xlink:href="#DejaVuSans-20" transform="translate(298.144531 0)"/>
       <use xlink:href="#DejaVuSans-63" transform="translate(329.931641 0)"/>
       <use xlink:href="#DejaVuSans-6f" transform="translate(384.912109 0)"/>
       <use xlink:href="#DejaVuSans-6e" transform="translate(446.09375 0)"/>
       <use xlink:href="#DejaVuSans-74" transform="translate(509.472656 0)"/>
       <use xlink:href="#DejaVuSans-61" transform="translate(548.681641 0)"/>
       <use xlink:href="#DejaVuSans-63" transform="translate(609.960938 0)"/>
       <use xlink:href="#DejaVuSans-74" transform="translate(664.941406 0)"/>
       <use xlink:href="#DejaVuSans-73" transform="translate(704.150391 0)"/>
       <use xlink:href="#DejaVuSans-20" transform="translate(756.25 0)"/>
       <use xlink:href="#DejaVuSans-6f" transform="translate(788.037109 0)"/>
       <use xlink:href="#DejaVuSans-62" transform="translate(849.21875 0)"/>
       <use xlink:href="#DejaVuSans-6a" transform="translate(912.695312 0)"/>
       <use xlink:href="#DejaVuSans-65" transform="translate(940.478516 0)"/>
       <use xlink:href="#DejaVuSans-63" transform="translate(1002.001953 0)"/>
       <use xlink:href="#DejaVuSans-74" transform="translate(1056.982422 0)"/>
      </g>
      <!-- (random baseline) -->
      <g transform="translate(51.109594 53.948206) scale(0.09 -0.09)">
       <defs>
        <path id="DejaVuSans-6d" d="M 3328 2828 
Q 3544 3216 3844 3400 
Q 4144 3584 4550 3584 
Q 5097 3584 5394 3201 
Q 5691 2819 5691 2113 
L 5691 0 
L 5113 0 
L 5113 2094 
Q 5113 2597 4934 2840 
Q 4756 3084 4391 3084 
Q 3944 3084 3684 2787 
Q 3425 2491 3425 1978 
L 3425 0 
L 2847 0 
L 2847 2094 
Q 2847 2600 2669 2842 
Q 2491 3084 2119 3084 
Q 1678 3084 1418 2786 
Q 1159 2488 1159 1978 
L 1159 0 
L 581 0 
L 581 3500 
L 1159 3500 
L 1159 2956 
Q 1356 3278 1631 3431 
Q 1906 3584 2284 3584 
Q 2666 3584 2933 3390 
Q 3200 3197 3328 2828 
z
" transform="scale(0.015625)"/>
       </defs>
       <use xlink:href="#DejaVuSans-28"/>
       <use xlink:href="#DejaVuSans-72" transform="translate(39.013672 0)"/>
       <use xlink:href="#DejaVuSans-61" transform="translate(80.126953 0)"/>
       <use xlink:href="#DejaVuSans-6e" transform="translate(141.40625 0)"/>
       <use xlink:href="#DejaVuSans-64" transform="translate(204.785156 0)"/>
       <use xlink:href="#DejaVuSans-6f" transform="translate(268.261719 0)"/>
       <use xlink:href="#DejaVuSans-6d" transform="translate(329.443359 0)"/>
       <use xlink:href="#DejaVuSans-20" transform="translate(426.855469 0)"/>
       <use xlink:href="#DejaVuSans-62" transform="translate(458.642578 0)"/>
       <use xlink:href="#DejaVuSans-61" transform="translate(522.119141 0)"/>
       <use xlink:href="#DejaVuSans-73" transform="translate(583.398438 0)"/>
       <use xlink:href="#DejaVuSans-65" transform="translate(635.498047 0)"/>
       <use xlink:href="#DejaVuSans-6c" transform="translate(697.021484 0)"/>
       <use xlink:href="#DejaVuSans-69" transform="translate(724.804688 0)"/>
       <use xlink:href="#DejaVuSans-6e" transform="translate(752.587891 0)"/>
       <use xlink:href="#DejaVuSans-65" transform="translate(815.966797 0)"/>
       <use xlink:href="#DejaVuSans-29" transform="translate(877.490234 0)"/>
      </g>
     </g>
    </g>
    <g id="ytick_2">
     <g id="line2d_10">
      <g>
       <use xlink:href="#mab9fccbe21" x="140.596" y="88.854251" style="stroke: #000000; stroke-width: 0.8"/>
      </g>
     </g>
     <g id="text_7">
      <!-- Grasp miss -->
      <g transform="translate(83.501156 87.918392) scale(0.09 -0.09)">
       <defs>
        <path id="DejaVuSans-47" d="M 3809 666 
L 3809 1919 
L 2778 1919 
L 2778 2438 
L 4434 2438 
L 4434 434 
Q 4069 175 3628 42 
Q 3188 -91 2688 -91 
Q 1594 -91 976 548 
Q 359 1188 359 2328 
Q 359 3472 976 4111 
Q 1594 4750 2688 4750 
Q 3144 4750 3555 4637 
Q 3966 4525 4313 4306 
L 4313 3634 
Q 3963 3931 3569 4081 
Q 3175 4231 2741 4231 
Q 1884 4231 1454 3753 
Q 1025 3275 1025 2328 
Q 1025 1384 1454 906 
Q 1884 428 2741 428 
Q 3075 428 3337 486 
Q 3600 544 3809 666 
z
" transform="scale(0.015625)"/>
        <path id="DejaVuSans-70" d="M 1159 525 
L 1159 -1331 
L 581 -1331 
L 581 3500 
L 1159 3500 
L 1159 2969 
Q 1341 3281 1617 3432 
Q 1894 3584 2278 3584 
Q 2916 3584 3314 3078 
Q 3713 2572 3713 1747 
Q 3713 922 3314 415 
Q 2916 -91 2278 -91 
Q 1894 -91 1617 61 
Q 1341 213 1159 525 
z
M 3116 1747 
Q 3116 2381 2855 2742 
Q 2594 3103 2138 3103 
Q 1681 3103 1420 2742 
Q 1159 2381 1159 1747 
Q 1159 1113 1420 752 
Q 1681 391 2138 391 
Q 2594 391 2855 752 
Q 3116 1113 3116 1747 
z
" transform="scale(0.015625)"/>
       </defs>
       <use xlink:href="#DejaVuSans-47"/>
       <use xlink:href="#DejaVuSans-72" transform="translate(77.490234 0)"/>
       <use xlink:href="#DejaVuSans-61" transform="translate(118.603516 0)"/>
       <use xlink:href="#DejaVuSans-73" transform="translate(179.882812 0)"/>
       <use xlink:href="#DejaVuSans-70" transform="translate(231.982422 0)"/>
       <use xlink:href="#DejaVuSans-20" transform="translate(295.458984 0)"/>
       <use xlink:href="#DejaVuSans-6d" transform="translate(327.246094 0)"/>
       <use xlink:href="#DejaVuSans-69" transform="translate(424.658203 0)"/>
       <use xlink:href="#DejaVuSans-73" transform="translate(452.441406 0)"/>
       <use xlink:href="#DejaVuSans-73" transform="translate(504.541016 0)"/>
      </g>
      <!-- (reaches, no secure grasp) -->
      <g transform="translate(13.247719 97.996423) scale(0.09 -0.09)">
       <defs>
        <path id="DejaVuSans-68" d="M 3513 2113 
L 3513 0 
L 2938 0 
L 2938 2094 
Q 2938 2591 2744 2837 
Q 2550 3084 2163 3084 
Q 1697 3084 1428 2787 
Q 1159 2491 1159 1978 
L 1159 0 
L 581 0 
L 581 4863 
L 1159 4863 
L 1159 2956 
Q 1366 3272 1645 3428 
Q 1925 3584 2291 3584 
Q 2894 3584 3203 3211 
Q 3513 2838 3513 2113 
z
" transform="scale(0.015625)"/>
        <path id="DejaVuSans-2c" d="M 750 794 
L 1409 794 
L 1409 256 
L 897 -744 
L 494 -744 
L 750 256 
L 750 794 
z
" transform="scale(0.015625)"/>
        <path id="DejaVuSans-67" d="M 2906 1791 
Q 2906 2416 2648 2759 
Q 2391 3103 1925 3103 
Q 1463 3103 1205 2759 
Q 947 2416 947 1791 
Q 947 1169 1205 825 
Q 1463 481 1925 481 
Q 2391 481 2648 825 
Q 2906 1169 2906 1791 
z
M 3481 434 
Q 3481 -459 3084 -895 
Q 2688 -1331 1869 -1331 
Q 1566 -1331 1297 -1286 
Q 1028 -1241 775 -1147 
L 775 -588 
Q 1028 -725 1275 -790 
Q 1522 -856 1778 -856 
Q 2344 -856 2625 -561 
Q 2906 -266 2906 331 
L 2906 616 
Q 2728 306 2450 153 
Q 2172 0 1784 0 
Q 1141 0 747 490 
Q 353 981 353 1791 
Q 353 2603 747 3093 
Q 1141 3584 1784 3584 
Q 2172 3584 2450 3431 
Q 2728 3278 2906 2969 
L 2906 3500 
L 3481 3500 
L 3481 434 
z
" transform="scale(0.015625)"/>
       </defs>
       <use xlink:href="#DejaVuSans-28"/>
       <use xlink:href="#DejaVuSans-72" transform="translate(39.013672 0)"/>
       <use xlink:href="#DejaVuSans-65" transform="translate(77.876953 0)"/>
       <use xlink:href="#DejaVuSans-61" transform="translate(139.400391 0)"/>
       <use xlink:href="#DejaVuSans-63" transform="translate(200.679688 0)"/>
       <use xlink:href="#DejaVuSans-68" transform="translate(255.660156 0)"/>
       <use xlink:href="#DejaVuSans-65" transform="translate(319.039062 0)"/>
       <use xlink:href="#DejaVuSans-73" transform="translate(380.5625 0)"/>
       <use xlink:href="#DejaVuSans-2c" transform="translate(432.662109 0)"/>
       <use xlink:href="#DejaVuSans-20" transform="translate(464.449219 0)"/>
       <use xlink:href="#DejaVuSans-6e" transform="translate(496.236328 0)"/>
       <use xlink:href="#DejaVuSans-6f" transform="translate(559.615234 0)"/>
       <use xlink:href="#DejaVuSans-20" transform="translate(620.796875 0)"/>
       <use xlink:href="#DejaVuSans-73" transform="translate(652.583984 0)"/>
       <use xlink:href="#DejaVuSans-65" transform="translate(704.683594 0)"/>
       <use xlink:href="#DejaVuSans-63" transform="translate(766.207031 0)"/>
       <use xlink:href="#DejaVuSans-75" transform="translate(821.1875 0)"/>
       <use xlink:href="#DejaVuSans-72" transform="translate(884.566406 0)"/>
       <use xlink:href="#DejaVuSans-65" transform="translate(923.429688 0)"/>
       <use xlink:href="#DejaVuSans-20" transform="translate(984.953125 0)"/>
       <use xlink:href="#DejaVuSans-67" transform="translate(1016.740234 0)"/>
       <use xlink:href="#DejaVuSans-72" transform="translate(1080.216797 0)"/>
       <use xlink:href="#DejaVuSans-61" transform="translate(1121.330078 0)"/>
       <use xlink:href="#DejaVuSans-73" transform="translate(1182.609375 0)"/>
       <use xlink:href="#DejaVuSans-70" transform="translate(1234.708984 0)"/>
       <use xlink:href="#DejaVuSans-29" transform="translate(1298.185547 0)"/>
      </g>
     </g>
    </g>
    <g id="ytick_3">
     <g id="line2d_11">
      <g>
       <use xlink:href="#mab9fccbe21" x="140.596" y="132.902468" style="stroke: #000000; stroke-width: 0.8"/>
      </g>
     </g>
     <g id="text_8">
      <!-- No decisive progress -->
      <g transform="translate(40.038188 131.966608) scale(0.09 -0.09)">
       <use xlink:href="#DejaVuSans-4e"/>
       <use xlink:href="#DejaVuSans-6f" transform="translate(74.804688 0)"/>
       <use xlink:href="#DejaVuSans-20" transform="translate(135.986328 0)"/>
       <use xlink:href="#DejaVuSans-64" transform="translate(167.773438 0)"/>
       <use xlink:href="#DejaVuSans-65" transform="translate(231.25 0)"/>
       <use xlink:href="#DejaVuSans-63" transform="translate(292.773438 0)"/>
       <use xlink:href="#DejaVuSans-69" transform="translate(347.753906 0)"/>
       <use xlink:href="#DejaVuSans-73" transform="translate(375.537109 0)"/>
       <use xlink:href="#DejaVuSans-69" transform="translate(427.636719 0)"/>
       <use xlink:href="#DejaVuSans-76" transform="translate(455.419922 0)"/>
       <use xlink:href="#DejaVuSans-65" transform="translate(514.599609 0)"/>
       <use xlink:href="#DejaVuSans-20" transform="translate(576.123047 0)"/>
       <use xlink:href="#DejaVuSans-70" transform="translate(607.910156 0)"/>
       <use xlink:href="#DejaVuSans-72" transform="translate(671.386719 0)"/>
       <use xlink:href="#DejaVuSans-6f" transform="translate(710.25 0)"/>
       <use xlink:href="#DejaVuSans-67" transform="translate(771.431641 0)"/>
       <use xlink:href="#DejaVuSans-72" transform="translate(834.908203 0)"/>
       <use xlink:href="#DejaVuSans-65" transform="translate(873.771484 0)"/>
       <use xlink:href="#DejaVuSans-73" transform="translate(935.294922 0)"/>
       <use xlink:href="#DejaVuSans-73" transform="translate(987.394531 0)"/>
      </g>
      <!-- (long-horizon stall) -->
      <g transform="translate(48.963656 142.04464) scale(0.09 -0.09)">
       <defs>
        <path id="DejaVuSans-2d" d="M 313 2009 
L 1997 2009 
L 1997 1497 
L 313 1497 
L 313 2009 
z
" transform="scale(0.015625)"/>
        <path id="DejaVuSans-7a" d="M 353 3500 
L 3084 3500 
L 3084 2975 
L 922 459 
L 3084 459 
L 3084 0 
L 275 0 
L 275 525 
L 2438 3041 
L 353 3041 
L 353 3500 
z
" transform="scale(0.015625)"/>
       </defs>
       <use xlink:href="#DejaVuSans-28"/>
       <use xlink:href="#DejaVuSans-6c" transform="translate(39.013672 0)"/>
       <use xlink:href="#DejaVuSans-6f" transform="translate(66.796875 0)"/>
       <use xlink:href="#DejaVuSans-6e" transform="translate(127.978516 0)"/>
       <use xlink:href="#DejaVuSans-67" transform="translate(191.357422 0)"/>
       <use xlink:href="#DejaVuSans-2d" transform="translate(254.833984 0)"/>
       <use xlink:href="#DejaVuSans-68" transform="translate(290.917969 0)"/>
       <use xlink:href="#DejaVuSans-6f" transform="translate(354.296875 0)"/>
       <use xlink:href="#DejaVuSans-72" transform="translate(415.478516 0)"/>
       <use xlink:href="#DejaVuSans-69" transform="translate(456.591797 0)"/>
       <use xlink:href="#DejaVuSans-7a" transform="translate(484.375 0)"/>
       <use xlink:href="#DejaVuSans-6f" transform="translate(536.865234 0)"/>
       <use xlink:href="#DejaVuSans-6e" transform="translate(598.046875 0)"/>
       <use xlink:href="#DejaVuSans-20" transform="translate(661.425781 0)"/>
       <use xlink:href="#DejaVuSans-73" transform="translate(693.212891 0)"/>
       <use xlink:href="#DejaVuSans-74" transform="translate(745.3125 0)"/>
       <use xlink:href="#DejaVuSans-61" transform="translate(784.521484 0)"/>
       <use xlink:href="#DejaVuSans-6c" transform="translate(845.800781 0)"/>
       <use xlink:href="#DejaVuSans-6c" transform="translate(873.583984 0)"/>
       <use xlink:href="#DejaVuSans-29" transform="translate(901.367188 0)"/>
      </g>
     </g>
    </g>
    <g id="ytick_4">
     <g id="line2d_12">
      <g>
       <use xlink:href="#mab9fccbe21" x="140.596" y="176.950685" style="stroke: #000000; stroke-width: 0.8"/>
      </g>
     </g>
     <g id="text_9">
      <!-- Wrong final pose -->
      <g transform="translate(58.125375 176.014825) scale(0.09 -0.09)">
       <defs>
        <path id="DejaVuSans-57" d="M 213 4666 
L 850 4666 
L 1831 722 
L 2809 4666 
L 3519 4666 
L 4500 722 
L 5478 4666 
L 6119 4666 
L 4947 0 
L 4153 0 
L 3169 4050 
L 2175 0 
L 1381 0 
L 213 4666 
z
" transform="scale(0.015625)"/>
       </defs>
       <use xlink:href="#DejaVuSans-57"/>
       <use xlink:href="#DejaVuSans-72" transform="translate(94.376953 0)"/>
       <use xlink:href="#DejaVuSans-6f" transform="translate(133.240234 0)"/>
       <use xlink:href="#DejaVuSans-6e" transform="translate(194.421875 0)"/>
       <use xlink:href="#DejaVuSans-67" transform="translate(257.800781 0)"/>
       <use xlink:href="#DejaVuSans-20" transform="translate(321.277344 0)"/>
       <use xlink:href="#DejaVuSans-66" transform="translate(353.064453 0)"/>
       <use xlink:href="#DejaVuSans-69" transform="translate(388.269531 0)"/>
       <use xlink:href="#DejaVuSans-6e" transform="translate(416.052734 0)"/>
       <use xlink:href="#DejaVuSans-61" transform="translate(479.431641 0)"/>
       <use xlink:href="#DejaVuSans-6c" transform="translate(540.710938 0)"/>
       <use xlink:href="#DejaVuSans-20" transform="translate(568.494141 0)"/>
       <use xlink:href="#DejaVuSans-70" transform="translate(600.28125 0)"/>
       <use xlink:href="#DejaVuSans-6f" transform="translate(663.757812 0)"/>
       <use xlink:href="#DejaVuSans-73" transform="translate(724.939453 0)"/>
       <use xlink:href="#DejaVuSans-65" transform="translate(777.039062 0)"/>
      </g>
      <!-- (pushed, mis-oriented) -->
      <g transform="translate(30.69225 186.092857) scale(0.09 -0.09)">
       <use xlink:href="#DejaVuSans-28"/>
       <use xlink:href="#DejaVuSans-70" transform="translate(39.013672 0)"/>
       <use xlink:href="#DejaVuSans-75" transform="translate(102.490234 0)"/>
       <use xlink:href="#DejaVuSans-73" transform="translate(165.869141 0)"/>
       <use xlink:href="#DejaVuSans-68" transform="translate(217.96875 0)"/>
       <use xlink:href="#DejaVuSans-65" transform="translate(281.347656 0)"/>
       <use xlink:href="#DejaVuSans-64" transform="translate(342.871094 0)"/>
       <use xlink:href="#DejaVuSans-2c" transform="translate(406.347656 0)"/>
       <use xlink:href="#DejaVuSans-20" transform="translate(438.134766 0)"/>
       <use xlink:href="#DejaVuSans-6d" transform="translate(469.921875 0)"/>
       <use xlink:href="#DejaVuSans-69" transform="translate(567.333984 0)"/>
       <use xlink:href="#DejaVuSans-73" transform="translate(595.117188 0)"/>
       <use xlink:href="#DejaVuSans-2d" transform="translate(647.216797 0)"/>
       <use xlink:href="#DejaVuSans-6f" transform="translate(685.175781 0)"/>
       <use xlink:href="#DejaVuSans-72" transform="translate(746.357422 0)"/>
       <use xlink:href="#DejaVuSans-69" transform="translate(787.470703 0)"/>
       <use xlink:href="#DejaVuSans-65" transform="translate(815.253906 0)"/>
       <use xlink:href="#DejaVuSans-6e" transform="translate(876.777344 0)"/>
       <use xlink:href="#DejaVuSans-74" transform="translate(940.15625 0)"/>
       <use xlink:href="#DejaVuSans-65" transform="translate(979.365234 0)"/>
       <use xlink:href="#DejaVuSans-64" transform="translate(1040.888672 0)"/>
       <use xlink:href="#DejaVuSans-29" transform="translate(1104.365234 0)"/>
      </g>
     </g>
    </g>
   </g>
   <g id="patch_3">
    <path d="M 140.596 31.151087 
L 262.552667 31.151087 
L 262.552667 58.460981 
L 140.596 58.460981 
z
" clip-path="url(#p9f98db36c2)" style="fill: #9e9e9e; stroke: #333333; stroke-linejoin: miter"/>
   </g>
   <g id="patch_4">
    <path d="M 140.596 75.199304 
L 384.509333 75.199304 
L 384.509333 102.509198 
L 140.596 102.509198 
z
" clip-path="url(#p9f98db36c2)" style="fill: #d9534f; stroke: #333333; stroke-linejoin: miter"/>
   </g>
   <g id="patch_5">
    <path d="M 140.596 119.247521 
L 384.509333 119.247521 
L 384.509333 146.557415 
L 140.596 146.557415 
z
" clip-path="url(#p9f98db36c2)" style="fill: #f0ad4e; stroke: #333333; stroke-linejoin: miter"/>
   </g>
   <g id="patch_6">
    <path d="M 140.596 163.295738 
L 262.552667 163.295738 
L 262.552667 190.605632 
L 140.596 190.605632 
z
" clip-path="url(#p9f98db36c2)" style="fill: #5bc0de; stroke: #333333; stroke-linejoin: miter"/>
   </g>
   <g id="patch_7">
    <path d="M 140.596 198.578359 
L 140.596 23.178359 
" style="fill: none; stroke: #000000; stroke-width: 0.8; stroke-linejoin: miter; stroke-linecap: square"/>
   </g>
   <g id="patch_8">
    <path d="M 140.596 198.578359 
L 506.466 198.578359 
" style="fill: none; stroke: #000000; stroke-width: 0.8; stroke-linejoin: miter; stroke-linecap: square"/>
   </g>
   <g id="text_10">
    <!-- 1 -->
    <g style="fill: #222222" transform="translate(268.6505 47.289471) scale(0.09 -0.09)">
     <use xlink:href="#DejaVuSans-31"/>
    </g>
   </g>
   <g id="text_11">
    <!-- 2 -->
    <g style="fill: #222222" transform="translate(390.607167 91.337688) scale(0.09 -0.09)">
     <use xlink:href="#DejaVuSans-32"/>
    </g>
   </g>
   <g id="text_12">
    <!-- 2 -->
    <g style="fill: #222222" transform="translate(390.607167 135.385905) scale(0.09 -0.09)">
     <use xlink:href="#DejaVuSans-32"/>
    </g>
   </g>
   <g id="text_13">
    <!-- 1 -->
    <g style="fill: #222222" transform="translate(268.6505 179.434122) scale(0.09 -0.09)">
     <use xlink:href="#DejaVuSans-31"/>
    </g>
   </g>
   <g id="text_14">
    <!-- Observed failure modes in shipped rollouts (hand-labeled, N=6) -->
    <g transform="translate(155.55725 15.178359) scale(0.105 -0.105)">
     <defs>
      <path id="DejaVuSans-4f" d="M 2522 4238 
Q 1834 4238 1429 3725 
Q 1025 3213 1025 2328 
Q 1025 1447 1429 934 
Q 1834 422 2522 422 
Q 3209 422 3611 934 
Q 4013 1447 4013 2328 
Q 4013 3213 3611 3725 
Q 3209 4238 2522 4238 
z
M 2522 4750 
Q 3503 4750 4090 4092 
Q 4678 3434 4678 2328 
Q 4678 1225 4090 567 
Q 3503 -91 2522 -91 
Q 1538 -91 948 565 
Q 359 1222 359 2328 
Q 359 3434 948 4092 
Q 1538 4750 2522 4750 
z
" transform="scale(0.015625)"/>
     </defs>
     <use xlink:href="#DejaVuSans-4f"/>
     <use xlink:href="#DejaVuSans-62" transform="translate(78.710938 0)"/>
     <use xlink:href="#DejaVuSans-73" transform="translate(142.1875 0)"/>
     <use xlink:href="#DejaVuSans-65" transform="translate(194.287109 0)"/>
     <use xlink:href="#DejaVuSans-72" transform="translate(255.810547 0)"/>
     <use xlink:href="#DejaVuSans-76" transform="translate(296.923828 0)"/>
     <use xlink:href="#DejaVuSans-65" transform="translate(356.103516 0)"/>
     <use xlink:href="#DejaVuSans-64" transform="translate(417.626953 0)"/>
     <use xlink:href="#DejaVuSans-20" transform="translate(481.103516 0)"/>
     <use xlink:href="#DejaVuSans-66" transform="translate(512.890625 0)"/>
     <use xlink:href="#DejaVuSans-61" transform="translate(548.095703 0)"/>
     <use xlink:href="#DejaVuSans-69" transform="translate(609.375 0)"/>
     <use xlink:href="#DejaVuSans-6c" transform="translate(637.158203 0)"/>
     <use xlink:href="#DejaVuSans-75" transform="translate(664.941406 0)"/>
     <use xlink:href="#DejaVuSans-72" transform="translate(728.320312 0)"/>
     <use xlink:href="#DejaVuSans-65" transform="translate(767.183594 0)"/>
     <use xlink:href="#DejaVuSans-20" transform="translate(828.707031 0)"/>
     <use xlink:href="#DejaVuSans-6d" transform="translate(860.494141 0)"/>
     <use xlink:href="#DejaVuSans-6f" transform="translate(957.90625 0)"/>
     <use xlink:href="#DejaVuSans-64" transform="translate(1019.087891 0)"/>
     <use xlink:href="#DejaVuSans-65" transform="translate(1082.564453 0)"/>
     <use xlink:href="#DejaVuSans-73" transform="translate(1144.087891 0)"/>
     <use xlink:href="#DejaVuSans-20" transform="translate(1196.1875 0)"/>
     <use xlink:href="#DejaVuSans-69" transform="translate(1227.974609 0)"/>
     <use xlink:href="#DejaVuSans-6e" transform="translate(1255.757812 0)"/>
     <use xlink:href="#DejaVuSans-20" transform="translate(1319.136719 0)"/>
     <use xlink:href="#DejaVuSans-73" transform="translate(1350.923828 0)"/>
     <use xlink:href="#DejaVuSans-68" transform="translate(1403.023438 0)"/>
     <use xlink:href="#DejaVuSans-69" transform="translate(1466.402344 0)"/>
     <use xlink:href="#DejaVuSans-70" transform="translate(1494.185547 0)"/>
     <use xlink:href="#DejaVuSans-70" transform="translate(1557.662109 0)"/>
     <use xlink:href="#DejaVuSans-65" transform="translate(1621.138672 0)"/>
     <use xlink:href="#DejaVuSans-64" transform="translate(1682.662109 0)"/>
     <use xlink:href="#DejaVuSans-20" transform="translate(1746.138672 0)"/>
     <use xlink:href="#DejaVuSans-72" transform="translate(1777.925781 0)"/>
     <use xlink:href="#DejaVuSans-6f" transform="translate(1816.789062 0)"/>
     <use xlink:href="#DejaVuSans-6c" transform="translate(1877.970703 0)"/>
     <use xlink:href="#DejaVuSans-6c" transform="translate(1905.753906 0)"/>
     <use xlink:href="#DejaVuSans-6f" transform="translate(1933.537109 0)"/>
     <use xlink:href="#DejaVuSans-75" transform="translate(1994.71875 0)"/>
     <use xlink:href="#DejaVuSans-74" transform="translate(2058.097656 0)"/>
     <use xlink:href="#DejaVuSans-73" transform="translate(2097.306641 0)"/>
     <use xlink:href="#DejaVuSans-20" transform="translate(2149.40625 0)"/>
     <use xlink:href="#DejaVuSans-28" transform="translate(2181.193359 0)"/>
     <use xlink:href="#DejaVuSans-68" transform="translate(2220.207031 0)"/>
     <use xlink:href="#DejaVuSans-61" transform="translate(2283.585938 0)"/>
     <use xlink:href="#DejaVuSans-6e" transform="translate(2344.865234 0)"/>
     <use xlink:href="#DejaVuSans-64" transform="translate(2408.244141 0)"/>
     <use xlink:href="#DejaVuSans-2d" transform="translate(2471.720703 0)"/>
     <use xlink:href="#DejaVuSans-6c" transform="translate(2507.804688 0)"/>
     <use xlink:href="#DejaVuSans-61" transform="translate(2535.587891 0)"/>
     <use xlink:href="#DejaVuSans-62" transform="translate(2596.867188 0)"/>
     <use xlink:href="#DejaVuSans-65" transform="translate(2660.34375 0)"/>
     <use xlink:href="#DejaVuSans-6c" transform="translate(2721.867188 0)"/>
     <use xlink:href="#DejaVuSans-65" transform="translate(2749.650391 0)"/>
     <use xlink:href="#DejaVuSans-64" transform="translate(2811.173828 0)"/>
     <use xlink:href="#DejaVuSans-2c" transform="translate(2874.650391 0)"/>
     <use xlink:href="#DejaVuSans-20" transform="translate(2906.4375 0)"/>
     <use xlink:href="#DejaVuSans-4e" transform="translate(2938.224609 0)"/>
     <use xlink:href="#DejaVuSans-3d" transform="translate(3013.029297 0)"/>
     <use xlink:href="#DejaVuSans-36" transform="translate(3096.818359 0)"/>
     <use xlink:href="#DejaVuSans-29" transform="translate(3160.441406 0)"/>
    </g>
   </g>
  </g>
  <g id="text_15">
   <!-- Counts are over curated showcase artifacts, not a random sample of all failures; xvla excluded (wiring bug, not a policy mode). -->
   <g style="fill: #666666" transform="translate(7.2 250.330359) scale(0.07 -0.07)">
    <defs>
     <path id="DejaVuSans-43" d="M 4122 4306 
L 4122 3641 
Q 3803 3938 3442 4084 
Q 3081 4231 2675 4231 
Q 1875 4231 1450 3742 
Q 1025 3253 1025 2328 
Q 1025 1406 1450 917 
Q 1875 428 2675 428 
Q 3081 428 3442 575 
Q 3803 722 4122 1019 
L 4122 359 
Q 3791 134 3420 21 
Q 3050 -91 2638 -91 
Q 1578 -91 968 557 
Q 359 1206 359 2328 
Q 359 3453 968 4101 
Q 1578 4750 2638 4750 
Q 3056 4750 3426 4639 
Q 3797 4528 4122 4306 
z
" transform="scale(0.015625)"/>
     <path id="DejaVuSans-77" d="M 269 3500 
L 844 3500 
L 1563 769 
L 2278 3500 
L 2956 3500 
L 3675 769 
L 4391 3500 
L 4966 3500 
L 4050 0 
L 3372 0 
L 2619 2869 
L 1863 0 
L 1184 0 
L 269 3500 
z
" transform="scale(0.015625)"/>
     <path id="DejaVuSans-3b" d="M 750 3309 
L 1409 3309 
L 1409 2516 
L 750 2516 
L 750 3309 
z
M 750 794 
L 1409 794 
L 1409 256 
L 897 -744 
L 494 -744 
L 750 256 
L 750 794 
z
" transform="scale(0.015625)"/>
     <path id="DejaVuSans-78" d="M 3513 3500 
L 2247 1797 
L 3578 0 
L 2900 0 
L 1881 1375 
L 863 0 
L 184 0 
L 1544 1831 
L 300 3500 
L 978 3500 
L 1906 2253 
L 2834 3500 
L 3513 3500 
z
" transform="scale(0.015625)"/>
     <path id="DejaVuSans-79" d="M 2059 -325 
Q 1816 -950 1584 -1140 
Q 1353 -1331 966 -1331 
L 506 -1331 
L 506 -850 
L 844 -850 
Q 1081 -850 1212 -737 
Q 1344 -625 1503 -206 
L 1606 56 
L 191 3500 
L 800 3500 
L 1894 763 
L 2988 3500 
L 3597 3500 
L 2059 -325 
z
" transform="scale(0.015625)"/>
     <path id="DejaVuSans-2e" d="M 684 794 
L 1344 794 
L 1344 0 
L 684 0 
L 684 794 
z
" transform="scale(0.015625)"/>
    </defs>
    <use xlink:href="#DejaVuSans-43"/>
    <use xlink:href="#DejaVuSans-6f" transform="translate(69.824219 0)"/>
    <use xlink:href="#DejaVuSans-75" transform="translate(131.005859 0)"/>
    <use xlink:href="#DejaVuSans-6e" transform="translate(194.384766 0)"/>
    <use xlink:href="#DejaVuSans-74" transform="translate(257.763672 0)"/>
    <use xlink:href="#DejaVuSans-73" transform="translate(296.972656 0)"/>
    <use xlink:href="#DejaVuSans-20" transform="translate(349.072266 0)"/>
    <use xlink:href="#DejaVuSans-61" transform="translate(380.859375 0)"/>
    <use xlink:href="#DejaVuSans-72" transform="translate(442.138672 0)"/>
    <use xlink:href="#DejaVuSans-65" transform="translate(481.001953 0)"/>
    <use xlink:href="#DejaVuSans-20" transform="translate(542.525391 0)"/>
    <use xlink:href="#DejaVuSans-6f" transform="translate(574.3125 0)"/>
    <use xlink:href="#DejaVuSans-76" transform="translate(635.494141 0)"/>
    <use xlink:href="#DejaVuSans-65" transform="translate(694.673828 0)"/>
    <use xlink:href="#DejaVuSans-72" transform="translate(756.197266 0)"/>
    <use xlink:href="#DejaVuSans-20" transform="translate(797.310547 0)"/>
    <use xlink:href="#DejaVuSans-63" transform="translate(829.097656 0)"/>
    <use xlink:href="#DejaVuSans-75" transform="translate(884.078125 0)"/>
    <use xlink:href="#DejaVuSans-72" transform="translate(947.457031 0)"/>
    <use xlink:href="#DejaVuSans-61" transform="translate(988.570312 0)"/>
    <use xlink:href="#DejaVuSans-74" transform="translate(1049.849609 0)"/>
    <use xlink:href="#DejaVuSans-65" transform="translate(1089.058594 0)"/>
    <use xlink:href="#DejaVuSans-64" transform="translate(1150.582031 0)"/>
    <use xlink:href="#DejaVuSans-20" transform="translate(1214.058594 0)"/>
    <use xlink:href="#DejaVuSans-73" transform="translate(1245.845703 0)"/>
    <use xlink:href="#DejaVuSans-68" transform="translate(1297.945312 0)"/>
    <use xlink:href="#DejaVuSans-6f" transform="translate(1361.324219 0)"/>
    <use xlink:href="#DejaVuSans-77" transform="translate(1422.505859 0)"/>
    <use xlink:href="#DejaVuSans-63" transform="translate(1504.292969 0)"/>
    <use xlink:href="#DejaVuSans-61" transform="translate(1559.273438 0)"/>
    <use xlink:href="#DejaVuSans-73" transform="translate(1620.552734 0)"/>
    <use xlink:href="#DejaVuSans-65" transform="translate(1672.652344 0)"/>
    <use xlink:href="#DejaVuSans-20" transform="translate(1734.175781 0)"/>
    <use xlink:href="#DejaVuSans-61" transform="translate(1765.962891 0)"/>
    <use xlink:href="#DejaVuSans-72" transform="translate(1827.242188 0)"/>
    <use xlink:href="#DejaVuSans-74" transform="translate(1868.355469 0)"/>
    <use xlink:href="#DejaVuSans-69" transform="translate(1907.564453 0)"/>
    <use xlink:href="#DejaVuSans-66" transform="translate(1935.347656 0)"/>
    <use xlink:href="#DejaVuSans-61" transform="translate(1970.552734 0)"/>
    <use xlink:href="#DejaVuSans-63" transform="translate(2031.832031 0)"/>
    <use xlink:href="#DejaVuSans-74" transform="translate(2086.8125 0)"/>
    <use xlink:href="#DejaVuSans-73" transform="translate(2126.021484 0)"/>
    <use xlink:href="#DejaVuSans-2c" transform="translate(2178.121094 0)"/>
    <use xlink:href="#DejaVuSans-20" transform="translate(2209.908203 0)"/>
    <use xlink:href="#DejaVuSans-6e" transform="translate(2241.695312 0)"/>
    <use xlink:href="#DejaVuSans-6f" transform="translate(2305.074219 0)"/>
    <use xlink:href="#DejaVuSans-74" transform="translate(2366.255859 0)"/>
    <use xlink:href="#DejaVuSans-20" transform="translate(2405.464844 0)"/>
    <use xlink:href="#DejaVuSans-61" transform="translate(2437.251953 0)"/>
    <use xlink:href="#DejaVuSans-20" transform="translate(2498.53125 0)"/>
    <use xlink:href="#DejaVuSans-72" transform="translate(2530.318359 0)"/>
    <use xlink:href="#DejaVuSans-61" transform="translate(2571.431641 0)"/>
    <use xlink:href="#DejaVuSans-6e" transform="translate(2632.710938 0)"/>
    <use xlink:href="#DejaVuSans-64" transform="translate(2696.089844 0)"/>
    <use xlink:href="#DejaVuSans-6f" transform="translate(2759.566406 0)"/>
    <use xlink:href="#DejaVuSans-6d" transform="translate(2820.748047 0)"/>
    <use xlink:href="#DejaVuSans-20" transform="translate(2918.160156 0)"/>
    <use xlink:href="#DejaVuSans-73" transform="translate(2949.947266 0)"/>
    <use xlink:href="#DejaVuSans-61" transform="translate(3002.046875 0)"/>
    <use xlink:href="#DejaVuSans-6d" transform="translate(3063.326172 0)"/>
    <use xlink:href="#DejaVuSans-70" transform="translate(3160.738281 0)"/>
    <use xlink:href="#DejaVuSans-6c" transform="translate(3224.214844 0)"/>
    <use xlink:href="#DejaVuSans-65" transform="translate(3251.998047 0)"/>
    <use xlink:href="#DejaVuSans-20" transform="translate(3313.521484 0)"/>
    <use xlink:href="#DejaVuSans-6f" transform="translate(3345.308594 0)"/>
    <use xlink:href="#DejaVuSans-66" transform="translate(3406.490234 0)"/>
    <use xlink:href="#DejaVuSans-20" transform="translate(3441.695312 0)"/>
    <use xlink:href="#DejaVuSans-61" transform="translate(3473.482422 0)"/>
    <use xlink:href="#DejaVuSans-6c" transform="translate(3534.761719 0)"/>
    <use xlink:href="#DejaVuSans-6c" transform="translate(3562.544922 0)"/>
    <use xlink:href="#DejaVuSans-20" transform="translate(3590.328125 0)"/>
    <use xlink:href="#DejaVuSans-66" transform="translate(3622.115234 0)"/>
    <use xlink:href="#DejaVuSans-61" transform="translate(3657.320312 0)"/>
    <use xlink:href="#DejaVuSans-69" transform="translate(3718.599609 0)"/>
    <use xlink:href="#DejaVuSans-6c" transform="translate(3746.382812 0)"/>
    <use xlink:href="#DejaVuSans-75" transform="translate(3774.166016 0)"/>
    <use xlink:href="#DejaVuSans-72" transform="translate(3837.544922 0)"/>
    <use xlink:href="#DejaVuSans-65" transform="translate(3876.408203 0)"/>
    <use xlink:href="#DejaVuSans-73" transform="translate(3937.931641 0)"/>
    <use xlink:href="#DejaVuSans-3b" transform="translate(3990.03125 0)"/>
    <use xlink:href="#DejaVuSans-20" transform="translate(4023.722656 0)"/>
    <use xlink:href="#DejaVuSans-78" transform="translate(4055.509766 0)"/>
    <use xlink:href="#DejaVuSans-76" transform="translate(4114.689453 0)"/>
    <use xlink:href="#DejaVuSans-6c" transform="translate(4173.869141 0)"/>
    <use xlink:href="#DejaVuSans-61" transform="translate(4201.652344 0)"/>
    <use xlink:href="#DejaVuSans-20" transform="translate(4262.931641 0)"/>
    <use xlink:href="#DejaVuSans-65" transform="translate(4294.71875 0)"/>
    <use xlink:href="#DejaVuSans-78" transform="translate(4354.492188 0)"/>
    <use xlink:href="#DejaVuSans-63" transform="translate(4411.921875 0)"/>
    <use xlink:href="#DejaVuSans-6c" transform="translate(4466.902344 0)"/>
    <use xlink:href="#DejaVuSans-75" transform="translate(4494.685547 0)"/>
    <use xlink:href="#DejaVuSans-64" transform="translate(4558.064453 0)"/>
    <use xlink:href="#DejaVuSans-65" transform="translate(4621.541016 0)"/>
    <use xlink:href="#DejaVuSans-64" transform="translate(4683.064453 0)"/>
    <use xlink:href="#DejaVuSans-20" transform="translate(4746.541016 0)"/>
    <use xlink:href="#DejaVuSans-28" transform="translate(4778.328125 0)"/>
    <use xlink:href="#DejaVuSans-77" transform="translate(4817.341797 0)"/>
    <use xlink:href="#DejaVuSans-69" transform="translate(4899.128906 0)"/>
    <use xlink:href="#DejaVuSans-72" transform="translate(4926.912109 0)"/>
    <use xlink:href="#DejaVuSans-69" transform="translate(4968.025391 0)"/>
    <use xlink:href="#DejaVuSans-6e" transform="translate(4995.808594 0)"/>
    <use xlink:href="#DejaVuSans-67" transform="translate(5059.1875 0)"/>
    <use xlink:href="#DejaVuSans-20" transform="translate(5122.664062 0)"/>
    <use xlink:href="#DejaVuSans-62" transform="translate(5154.451172 0)"/>
    <use xlink:href="#DejaVuSans-75" transform="translate(5217.927734 0)"/>
    <use xlink:href="#DejaVuSans-67" transform="translate(5281.306641 0)"/>
    <use xlink:href="#DejaVuSans-2c" transform="translate(5344.783203 0)"/>
    <use xlink:href="#DejaVuSans-20" transform="translate(5376.570312 0)"/>
    <use xlink:href="#DejaVuSans-6e" transform="translate(5408.357422 0)"/>
    <use xlink:href="#DejaVuSans-6f" transform="translate(5471.736328 0)"/>
    <use xlink:href="#DejaVuSans-74" transform="translate(5532.917969 0)"/>
    <use xlink:href="#DejaVuSans-20" transform="translate(5572.126953 0)"/>
    <use xlink:href="#DejaVuSans-61" transform="translate(5603.914062 0)"/>
    <use xlink:href="#DejaVuSans-20" transform="translate(5665.193359 0)"/>
    <use xlink:href="#DejaVuSans-70" transform="translate(5696.980469 0)"/>
    <use xlink:href="#DejaVuSans-6f" transform="translate(5760.457031 0)"/>
    <use xlink:href="#DejaVuSans-6c" transform="translate(5821.638672 0)"/>
    <use xlink:href="#DejaVuSans-69" transform="translate(5849.421875 0)"/>
    <use xlink:href="#DejaVuSans-63" transform="translate(5877.205078 0)"/>
    <use xlink:href="#DejaVuSans-79" transform="translate(5932.185547 0)"/>
    <use xlink:href="#DejaVuSans-20" transform="translate(5991.365234 0)"/>
    <use xlink:href="#DejaVuSans-6d" transform="translate(6023.152344 0)"/>
    <use xlink:href="#DejaVuSans-6f" transform="translate(6120.564453 0)"/>
    <use xlink:href="#DejaVuSans-64" transform="translate(6181.746094 0)"/>
    <use xlink:href="#DejaVuSans-65" transform="translate(6245.222656 0)"/>
    <use xlink:href="#DejaVuSans-29" transform="translate(6306.746094 0)"/>
    <use xlink:href="#DejaVuSans-2e" transform="translate(6345.759766 0)"/>
   </g>
  </g>
 </g>
 <defs>
  <clipPath id="p9f98db36c2">
   <rect x="140.596" y="23.178359" width="365.87" height="175.4"/>
  </clipPath>
 </defs>
</svg>
